<?xml version="1.0" standalone="yes"?>

<svg version="1.1" viewBox="0.0 0.0 945.2755905511812 381.76640419947506" fill="none" stroke="none" stroke-linecap="square" stroke-miterlimit="10" xmlns="http://www.w3.org/2000/svg" xmlns:xlink="http://www.w3.org/1999/xlink"><clipPath id="p.0"><path d="m0 0l945.2756 0l0 381.76642l-945.2756 0l0 -381.76642z" clip-rule="nonzero"></path></clipPath><g clip-path="url(#p.0)"><path fill="#000000" fill-opacity="0.0" d="m0 0l945.2756 0l0 381.76642l-945.2756 0z" fill-rule="evenodd"></path><path fill="#cfe2f3" d="m342.6063 88.76378l268.88187 0l0 143.40158l-268.88187 0z" fill-rule="evenodd"></path><path stroke="#000000" stroke-width="1.0" stroke-linejoin="round" stroke-linecap="butt" d="m342.6063 88.76378l268.88187 0l0 143.40158l-268.88187 0z" fill-rule="evenodd"></path><path fill="#000000" d="m439.891 120.80378l-4.109375 -17.1875l3.5625 0l2.578125 11.8125l3.140625 -11.8125l4.125 0l3.015625 12.0l2.640625 -12.0l3.484375 0l-4.171875 17.1875l-3.671875 0l-3.421875 -12.84375l-3.40625 12.84375l-3.765625 0zm19.433594 -6.40625q0 -1.640625 0.796875 -3.171875q0.8125 -1.53125 2.296875 -2.34375q1.484375 -0.8125 3.3125 -0.8125q2.828125 0 4.625 1.84375q1.8125 1.828125 1.8125 4.625q0 2.828125 -1.828125 4.6875q-1.828125 1.859375 -4.59375 1.859375q-1.703125 0 -3.265625 -0.765625q-1.546875 -0.78125 -2.359375 -2.265625q-0.796875 -1.5 -0.796875 -3.65625zm3.375 0.1875q0 1.84375 0.875 2.828125q0.875 0.984375 2.171875 0.984375q1.28125 0 2.15625 -0.984375q0.875 -0.984375 0.875 -2.859375q0 -1.828125 -0.875 -2.8125q-0.875 -0.984375 -2.15625 -0.984375q-1.296875 0 -2.171875 0.984375q-0.875 0.984375 -0.875 2.84375zm15.191406 6.21875l-3.296875 0l0 -12.453125l3.0625 0l0 1.78125q0.78125 -1.265625 1.40625 -1.65625q0.640625 -0.40625 1.4375 -0.40625q1.125 0 2.15625 0.625l-1.015625 2.875q-0.828125 -0.546875 -1.546875 -0.546875q-0.6875 0 -1.171875 0.390625q-0.484375 0.375 -0.765625 1.375q-0.265625 1.0 -0.265625 4.171875l0 3.84375zm6.0742188 0l0 -17.1875l3.296875 0l0 9.125l3.84375 -4.390625l4.0625 0l-4.25 4.546875l4.546875 7.90625l-3.546875 0l-3.125 -5.59375l-1.53125 1.609375l0 3.984375l-3.296875 0zm20.675781 -3.96875l3.28125 0.5625q-0.640625 1.796875 -2.015625 2.75q-1.359375 0.9375 -3.40625 0.9375q-3.25 0 -4.796875 -2.125q-1.234375 -1.703125 -1.234375 -4.28125q0 -3.09375 1.609375 -4.84375q1.625 -1.765625 4.09375 -1.765625q2.78125 0 4.375 1.84375q1.609375 1.828125 1.546875 5.609375l-8.25 0q0.03125 1.46875 0.796875 2.28125q0.765625 0.8125 1.890625 0.8125q0.78125 0 1.296875 -0.421875q0.53125 -0.421875 0.8125 -1.359375zm0.1875 -3.328125q-0.046875 -1.421875 -0.75 -2.15625q-0.703125 -0.75 -1.703125 -0.75q-1.078125 0 -1.78125 0.78125q-0.703125 0.78125 -0.6875 2.125l4.921875 0zm9.097656 7.296875l-3.296875 0l0 -12.453125l3.0625 0l0 1.78125q0.78125 -1.265625 1.40625 -1.65625q0.640625 -0.40625 1.4375 -0.40625q1.125 0 2.15625 0.625l-1.015625 2.875q-0.828125 -0.546875 -1.546875 -0.546875q-0.6875 0 -1.171875 0.390625q-0.484375 0.375 -0.765625 1.375q-0.265625 1.0 -0.265625 4.171875l0 3.84375z" fill-rule="nonzero"></path><path fill="#000000" fill-opacity="0.0" d="m150.51181 160.40158c48.02362 0 72.03543 0.01574707 96.04724 0.03149414c24.01181 0.01574707 48.02362 0.03149414 96.04724 0.03149414" fill-rule="evenodd"></path><path stroke="#000000" stroke-width="1.0" stroke-linejoin="round" stroke-linecap="butt" d="m150.51181 160.40158c48.02362 0 72.03543 0.01574707 96.04724 0.03149414c12.00592 0.007873535 24.01181 0.01574707 39.019196 0.021652222c7.5036926 0.0029449463 15.757751 0.00541687 25.13736 0.0071258545l25.890686 0.0021972656" fill-rule="evenodd"></path><path fill="#000000" stroke="#000000" stroke-width="1.0" stroke-linecap="butt" d="m336.60617 162.11578l4.5382385 -1.6513367l-4.537964 -1.6521149z" fill-rule="evenodd"></path><path fill="#000000" fill-opacity="0.0" d="m611.48816 160.46457c43.700806 0 65.55121 0.01574707 87.40161 0.03149414c21.850403 0.01574707 43.700806 0.03149414 87.40155 0.03149414" fill-rule="evenodd"></path><path stroke="#000000" stroke-width="1.0" stroke-linejoin="round" stroke-linecap="butt" d="m611.48816 160.46457c43.700806 0 65.55121 0.01574707 87.40161 0.03149414c10.925171 0.007873535 21.850403 0.01574707 35.506897 0.021652222c6.828247 0.002960205 14.339294 0.00541687 22.874634 0.0071411133l23.02002 0.0021362305" fill-rule="evenodd"></path><path fill="#000000" stroke="#000000" stroke-width="1.0" stroke-linecap="butt" d="m780.2912 162.17873l4.538208 -1.6513062l-4.537903 -1.6521606z" fill-rule="evenodd"></path><path fill="#000000" fill-opacity="0.0" d="m477.04724 232.16536c0 34.279526 -88.055115 75.19292 -176.11023 68.55907c-88.055115 -6.63385 -176.11023 -60.814972 -176.11023 -121.629944" fill-rule="evenodd"></path><path stroke="#000000" stroke-width="1.0" stroke-linejoin="round" stroke-linecap="butt" d="m477.04724 232.16536c0 34.279526 -88.055115 75.19292 -176.11023 68.55907c-44.027557 -3.316925 -88.055115 -18.52066 -121.07579 -40.49707c-16.51033 -10.98819 -30.268951 -23.669525 -39.89998 -37.40477c-4.815506 -6.8676147 -8.599136 -13.998703 -11.178864 -21.313354c-1.2898712 -3.657318 -2.278778 -7.36055 -2.9452133 -11.099655c-0.16660309 -0.9347992 -0.31306458 -1.8718109 -0.43902588 -2.8109283c-0.06298065 -0.46954346 -0.12083435 -0.93963623 -0.17353821 -1.410202c-0.0263443 -0.23530579 -0.0513916 -0.47071838 -0.075157166 -0.7062683l-0.037597656 -0.39445496" fill-rule="evenodd"></path><path fill="#000000" stroke="#000000" stroke-width="1.0" stroke-linecap="butt" d="m126.76171 185.00923l-1.8654785 -4.4544983l-1.4342575 4.61145z" fill-rule="evenodd"></path><path fill="#000000" fill-opacity="0.0" d="m266.06824 296.81104l120.12598 0l0 44.37793l-120.12598 0z" fill-rule="evenodd"></path><path fill="#000000" d="m278.4901 316.05103l0 -1.578125l-3.21875 0l0 -1.328125l3.421875 -5.0l1.265625 0l0 5.0l0.96875 0l0 1.328125l-0.96875 0l0 1.578125l-1.46875 0zm0 -2.90625l0 -2.703125l-1.8125 2.703125l1.8125 0zm3.3015137 2.90625l0 -1.515625l1.5 0l0 1.515625l-1.5 0zm5.608795 -3.890625q0 -1.203125 0.359375 -2.015625q0.265625 -0.609375 0.71875 -1.078125q0.46875 -0.484375 1.03125 -0.71875q0.734375 -0.3125 1.6875 -0.3125q1.75 0 2.78125 1.09375q1.046875 1.078125 1.046875 3.0q0 1.90625 -1.03125 2.984375q-1.03125 1.078125 -2.765625 1.078125q-1.765625 0 -2.796875 -1.078125q-1.03125 -1.078125 -1.03125 -2.953125zm1.625 -0.046875q0 1.328125 0.625 2.03125q0.625 0.6875 1.5625 0.6875q0.953125 0 1.5625 -0.6875q0.609375 -0.6875 0.609375 -2.0625q0 -1.34375 -0.59375 -2.015625q-0.59375 -0.671875 -1.578125 -0.671875q-0.984375 0 -1.59375 0.6875q-0.59375 0.671875 -0.59375 2.03125zm8.413757 3.9375l-1.515625 0l0 -5.703125l1.40625 0l0 0.8125q0.359375 -0.578125 0.640625 -0.75q0.296875 -0.1875 0.65625 -0.1875q0.515625 0 1.0 0.28125l-0.46875 1.3125q-0.375 -0.25 -0.703125 -0.25q-0.328125 0 -0.546875 0.1875q-0.21875 0.171875 -0.34375 0.625q-0.125 0.453125 -0.125 1.90625l0 1.765625zm2.7095032 -6.484375l0 -1.390625l1.5 0l0 1.390625l-1.5 0zm0 6.484375l0 -5.703125l1.5 0l0 5.703125l-1.5 0zm2.8200073 0.375l1.71875 0.203125q0.046875 0.3125 0.203125 0.421875q0.203125 0.15625 0.671875 0.15625q0.59375 0 0.890625 -0.171875q0.1875 -0.125 0.296875 -0.375q0.0625 -0.203125 0.0625 -0.703125l0 -0.828125q-0.671875 0.921875 -1.703125 0.921875q-1.140625 0 -1.8125 -0.96875q-0.53125 -0.765625 -0.53125 -1.921875q0 -1.421875 0.6875 -2.171875q0.6875 -0.765625 1.71875 -0.765625q1.0625 0 1.75 0.921875l0 -0.796875l1.40625 0l0 5.125q0 1.0 -0.171875 1.5q-0.15625 0.5 -0.46875 0.78125q-0.296875 0.296875 -0.796875 0.453125q-0.5 0.15625 -1.265625 0.15625q-1.453125 0 -2.0625 -0.5q-0.609375 -0.484375 -0.609375 -1.25q0 -0.078125 0.015625 -0.1875zm1.34375 -3.34375q0 0.90625 0.34375 1.328125q0.359375 0.421875 0.875 0.421875q0.546875 0 0.921875 -0.421875q0.390625 -0.4375 0.390625 -1.296875q0 -0.875 -0.375 -1.296875q-0.359375 -0.4375 -0.90625 -0.4375q-0.546875 0 -0.90625 0.421875q-0.34375 0.421875 -0.34375 1.28125zm5.3061523 -3.515625l0 -1.390625l1.5 0l0 1.390625l-1.5 0zm0 6.484375l0 -5.703125l1.5 0l0 5.703125l-1.5 0zm8.148132 0l-1.515625 0l0 -2.90625q0 -0.921875 -0.09375 -1.1875q-0.09375 -0.28125 -0.3125 -0.421875q-0.21875 -0.15625 -0.53125 -0.15625q-0.390625 0 -0.703125 0.21875q-0.3125 0.203125 -0.4375 0.5625q-0.109375 0.34375 -0.109375 1.3125l0 2.578125l-1.5 0l0 -5.703125l1.40625 0l0 0.84375q0.734375 -0.96875 1.875 -0.96875q0.5 0 0.90625 0.1875q0.421875 0.171875 0.625 0.453125q0.21875 0.265625 0.296875 0.625q0.09375 0.359375 0.09375 1.015625l0 3.546875zm2.4467773 -3.96875l-1.375 -0.25q0.234375 -0.8125 0.796875 -1.203125q0.5625 -0.40625 1.671875 -0.40625q1.015625 0 1.5 0.234375q0.5 0.234375 0.703125 0.609375q0.203125 0.359375 0.203125 1.34375l-0.015625 1.765625q0 0.75 0.0625 1.109375q0.078125 0.359375 0.28125 0.765625l-1.5 0q-0.0625 -0.15625 -0.140625 -0.453125q-0.03125 -0.125 -0.046875 -0.171875q-0.390625 0.375 -0.84375 0.5625q-0.4375 0.1875 -0.9375 0.1875q-0.875 0 -1.390625 -0.46875q-0.5 -0.484375 -0.5 -1.21875q0 -0.484375 0.234375 -0.859375q0.234375 -0.375 0.640625 -0.578125q0.421875 -0.203125 1.203125 -0.359375q1.0625 -0.1875 1.46875 -0.359375l0 -0.15625q0 -0.4375 -0.21875 -0.609375q-0.21875 -0.1875 -0.8125 -0.1875q-0.390625 0 -0.625 0.15625q-0.21875 0.15625 -0.359375 0.546875zm2.015625 1.234375q-0.296875 0.09375 -0.921875 0.234375q-0.625 0.125 -0.8125 0.25q-0.296875 0.21875 -0.296875 0.53125q0 0.328125 0.234375 0.5625q0.234375 0.21875 0.59375 0.21875q0.40625 0 0.78125 -0.265625q0.28125 -0.203125 0.359375 -0.5q0.0625 -0.1875 0.0625 -0.734375l0 -0.296875zm2.7858582 2.734375l0 -7.875l1.5 0l0 7.875l-1.5 0zm5.796295 -5.703125l1.390625 0l0 0.78125q0.75 -0.90625 1.78125 -0.90625q0.546875 0 0.953125 0.234375q0.40625 0.21875 0.65625 0.671875q0.375 -0.453125 0.8125 -0.671875q0.4375 -0.234375 0.9375 -0.234375q0.625 0 1.0625 0.25q0.4375 0.25 0.640625 0.75q0.15625 0.359375 0.15625 1.1875l0 3.640625l-1.5 0l0 -3.265625q0 -0.84375 -0.15625 -1.09375q-0.21875 -0.3125 -0.65625 -0.3125q-0.3125 0 -0.59375 0.1875q-0.28125 0.1875 -0.40625 0.5625q-0.109375 0.375 -0.109375 1.1875l0 2.734375l-1.515625 0l0 -3.125q0 -0.828125 -0.078125 -1.0625q-0.078125 -0.25 -0.25 -0.359375q-0.171875 -0.125 -0.46875 -0.125q-0.34375 0 -0.625 0.1875q-0.28125 0.1875 -0.40625 0.546875q-0.109375 0.34375 -0.109375 1.171875l0 2.765625l-1.515625 0l0 -5.703125zm12.897003 3.890625l1.5 0.25q-0.28125 0.828125 -0.90625 1.265625q-0.625 0.421875 -1.578125 0.421875q-1.484375 0 -2.203125 -0.96875q-0.5625 -0.78125 -0.5625 -1.96875q0 -1.421875 0.734375 -2.21875q0.75 -0.796875 1.890625 -0.796875q1.265625 0 2.0 0.84375q0.734375 0.828125 0.703125 2.5625l-3.78125 0q0.015625 0.671875 0.359375 1.046875q0.359375 0.375 0.875 0.375q0.359375 0 0.59375 -0.1875q0.25 -0.203125 0.375 -0.625zm0.078125 -1.53125q-0.015625 -0.65625 -0.34375 -0.984375q-0.3125 -0.34375 -0.765625 -0.34375q-0.5 0 -0.828125 0.359375q-0.3125 0.359375 -0.3125 0.96875l2.25 0zm2.0202332 1.71875l1.5 -0.234375q0.109375 0.4375 0.390625 0.671875q0.296875 0.21875 0.828125 0.21875q0.59375 0 0.890625 -0.203125q0.203125 -0.15625 0.203125 -0.40625q0 -0.171875 -0.109375 -0.28125q-0.125 -0.109375 -0.515625 -0.203125q-1.8125 -0.40625 -2.3125 -0.734375q-0.671875 -0.46875 -0.671875 -1.28125q0 -0.75 0.578125 -1.25q0.59375 -0.5 1.828125 -0.5q1.171875 0 1.734375 0.375q0.5625 0.375 0.78125 1.125l-1.421875 0.265625q-0.09375 -0.328125 -0.34375 -0.5q-0.25 -0.1875 -0.734375 -0.1875q-0.59375 0 -0.84375 0.171875q-0.171875 0.109375 -0.171875 0.296875q0 0.171875 0.140625 0.28125q0.203125 0.15625 1.40625 0.4375q1.21875 0.265625 1.6875 0.65625q0.484375 0.40625 0.484375 1.125q0 0.78125 -0.65625 1.34375q-0.65625 0.5625 -1.953125 0.5625q-1.15625 0 -1.84375 -0.46875q-0.671875 -0.46875 -0.875 -1.28125zm5.9265137 0l1.5 -0.234375q0.109375 0.4375 0.390625 0.671875q0.296875 0.21875 0.828125 0.21875q0.59375 0 0.890625 -0.203125q0.203125 -0.15625 0.203125 -0.40625q0 -0.171875 -0.109375 -0.28125q-0.125 -0.109375 -0.515625 -0.203125q-1.8125 -0.40625 -2.3125 -0.734375q-0.671875 -0.46875 -0.671875 -1.28125q0 -0.75 0.578125 -1.25q0.59375 -0.5 1.828125 -0.5q1.171875 0 1.734375 0.375q0.5625 0.375 0.78125 1.125l-1.421875 0.265625q-0.09375 -0.328125 -0.34375 -0.5q-0.25 -0.1875 -0.734375 -0.1875q-0.59375 0 -0.84375 0.171875q-0.171875 0.109375 -0.171875 0.296875q0 0.171875 0.140625 0.28125q0.203125 0.15625 1.40625 0.4375q1.21875 0.265625 1.6875 0.65625q0.484375 0.40625 0.484375 1.125q0 0.78125 -0.65625 1.34375q-0.65625 0.5625 -1.953125 0.5625q-1.15625 0 -1.84375 -0.46875q-0.671875 -0.46875 -0.875 -1.28125zm7.582733 -2.34375l-1.375 -0.25q0.234375 -0.8125 0.796875 -1.203125q0.5625 -0.40625 1.671875 -0.40625q1.015625 0 1.5 0.234375q0.5 0.234375 0.703125 0.609375q0.203125 0.359375 0.203125 1.34375l-0.015625 1.765625q0 0.75 0.0625 1.109375q0.078125 0.359375 0.28125 0.765625l-1.5 0q-0.0625 -0.15625 -0.140625 -0.453125q-0.03125 -0.125 -0.046875 -0.171875q-0.390625 0.375 -0.84375 0.5625q-0.4375 0.1875 -0.9375 0.1875q-0.875 0 -1.390625 -0.46875q-0.5 -0.484375 -0.5 -1.21875q0 -0.484375 0.234375 -0.859375q0.234375 -0.375 0.640625 -0.578125q0.421875 -0.203125 1.203125 -0.359375q1.0625 -0.1875 1.46875 -0.359375l0 -0.15625q0 -0.4375 -0.21875 -0.609375q-0.21875 -0.1875 -0.8125 -0.1875q-0.390625 0 -0.625 0.15625q-0.21875 0.15625 -0.359375 0.546875zm2.015625 1.234375q-0.296875 0.09375 -0.921875 0.234375q-0.625 0.125 -0.8125 0.25q-0.296875 0.21875 -0.296875 0.53125q0 0.328125 0.234375 0.5625q0.234375 0.21875 0.59375 0.21875q0.40625 0 0.78125 -0.265625q0.28125 -0.203125 0.359375 -0.5q0.0625 -0.1875 0.0625 -0.734375l0 -0.296875zm2.6452637 3.109375l1.71875 0.203125q0.046875 0.3125 0.203125 0.421875q0.203125 0.15625 0.671875 0.15625q0.59375 0 0.890625 -0.171875q0.1875 -0.125 0.296875 -0.375q0.0625 -0.203125 0.0625 -0.703125l0 -0.828125q-0.671875 0.921875 -1.703125 0.921875q-1.140625 0 -1.8125 -0.96875q-0.53125 -0.765625 -0.53125 -1.921875q0 -1.421875 0.6875 -2.171875q0.6875 -0.765625 1.71875 -0.765625q1.0625 0 1.75 0.921875l0 -0.796875l1.40625 0l0 5.125q0 1.0 -0.171875 1.5q-0.15625 0.5 -0.46875 0.78125q-0.296875 0.296875 -0.796875 0.453125q-0.5 0.15625 -1.265625 0.15625q-1.453125 0 -2.0625 -0.5q-0.609375 -0.484375 -0.609375 -1.25q0 -0.078125 0.015625 -0.1875zm1.34375 -3.34375q0 0.90625 0.34375 1.328125q0.359375 0.421875 0.875 0.421875q0.546875 0 0.921875 -0.421875q0.390625 -0.4375 0.390625 -1.296875q0 -0.875 -0.375 -1.296875q-0.359375 -0.4375 -0.90625 -0.4375q-0.546875 0 -0.90625 0.421875q-0.34375 0.421875 -0.34375 1.28125zm8.602997 1.15625l1.5 0.25q-0.28125 0.828125 -0.90625 1.265625q-0.625 0.421875 -1.578125 0.421875q-1.484375 0 -2.203125 -0.96875q-0.5625 -0.78125 -0.5625 -1.96875q0 -1.421875 0.734375 -2.21875q0.75 -0.796875 1.890625 -0.796875q1.265625 0 2.0 0.84375q0.734375 0.828125 0.703125 2.5625l-3.78125 0q0.015625 0.671875 0.359375 1.046875q0.359375 0.375 0.875 0.375q0.359375 0 0.59375 -0.1875q0.25 -0.203125 0.375 -0.625zm0.078125 -1.53125q-0.015625 -0.65625 -0.34375 -0.984375q-0.3125 -0.34375 -0.765625 -0.34375q-0.5 0 -0.828125 0.359375q-0.3125 0.359375 -0.3125 0.96875l2.25 0z" fill-rule="nonzero"></path><path fill="#000000" d="m276.9901 325.08228l-1.375 -0.25q0.234375 -0.8125 0.796875 -1.203125q0.5625 -0.40625 1.671875 -0.40625q1.015625 0 1.5 0.234375q0.5 0.234375 0.703125 0.609375q0.203125 0.359375 0.203125 1.34375l-0.015625 1.765625q0 0.75 0.0625 1.109375q0.078125 0.359375 0.28125 0.765625l-1.5 0q-0.0625 -0.15625 -0.140625 -0.453125q-0.03125 -0.125 -0.046875 -0.171875q-0.390625 0.375 -0.84375 0.5625q-0.4375 0.1875 -0.9375 0.1875q-0.875 0 -1.390625 -0.46875q-0.5 -0.484375 -0.5 -1.21875q0 -0.484375 0.234375 -0.859375q0.234375 -0.375 0.640625 -0.578125q0.421875 -0.203125 1.203125 -0.359375q1.0625 -0.1875 1.46875 -0.359375l0 -0.15625q0 -0.4375 -0.21875 -0.609375q-0.21875 -0.1875 -0.8125 -0.1875q-0.390625 0 -0.625 0.15625q-0.21875 0.15625 -0.359375 0.546875zm2.015625 1.234375q-0.296875 0.09375 -0.921875 0.234375q-0.625 0.125 -0.8125 0.25q-0.296875 0.21875 -0.296875 0.53125q0 0.328125 0.234375 0.5625q0.234375 0.21875 0.59375 0.21875q0.40625 0 0.78125 -0.265625q0.28125 -0.203125 0.359375 -0.5q0.0625 -0.1875 0.0625 -0.734375l0 -0.296875zm7.7546387 -1.28125l-1.484375 0.265625q-0.078125 -0.4375 -0.34375 -0.65625q-0.265625 -0.234375 -0.6875 -0.234375q-0.5625 0 -0.90625 0.390625q-0.328125 0.375 -0.328125 1.296875q0 1.015625 0.328125 1.4375q0.34375 0.421875 0.921875 0.421875q0.4375 0 0.703125 -0.25q0.28125 -0.25 0.390625 -0.84375l1.484375 0.25q-0.234375 1.03125 -0.890625 1.546875q-0.65625 0.515625 -1.75 0.515625q-1.265625 0 -2.015625 -0.78125q-0.734375 -0.796875 -0.734375 -2.1875q0 -1.421875 0.75 -2.203125q0.75 -0.78125 2.015625 -0.78125q1.046875 0 1.65625 0.453125q0.625 0.4375 0.890625 1.359375zm0.89523315 4.015625l0 -7.875l1.515625 0l0 4.171875l1.765625 -2.0l1.859375 0l-1.953125 2.078125l2.09375 3.625l-1.625 0l-1.4375 -2.5625l-0.703125 0.734375l0 1.828125l-1.515625 0zm11.176514 0l-1.515625 0l0 -2.90625q0 -0.921875 -0.09375 -1.1875q-0.09375 -0.28125 -0.3125 -0.421875q-0.21875 -0.15625 -0.53125 -0.15625q-0.390625 0 -0.703125 0.21875q-0.3125 0.203125 -0.4375 0.5625q-0.109375 0.34375 -0.109375 1.3125l0 2.578125l-1.5 0l0 -5.703125l1.40625 0l0 0.84375q0.734375 -0.96875 1.875 -0.96875q0.5 0 0.90625 0.1875q0.421875 0.171875 0.625 0.453125q0.21875 0.265625 0.296875 0.625q0.09375 0.359375 0.09375 1.015625l0 3.546875zm0.9623718 -2.9375q0 -0.75 0.375 -1.453125q0.375 -0.703125 1.046875 -1.0625q0.6875 -0.375 1.515625 -0.375q1.296875 0 2.125 0.84375q0.828125 0.828125 0.828125 2.109375q0 1.296875 -0.84375 2.15625q-0.828125 0.84375 -2.09375 0.84375q-0.78125 0 -1.5 -0.34375q-0.703125 -0.359375 -1.078125 -1.046875q-0.375 -0.6875 -0.375 -1.671875zm1.546875 0.078125q0 0.859375 0.40625 1.3125q0.40625 0.453125 1.0 0.453125q0.578125 0 0.984375 -0.453125q0.40625 -0.453125 0.40625 -1.3125q0 -0.84375 -0.40625 -1.296875q-0.40625 -0.453125 -0.984375 -0.453125q-0.59375 0 -1.0 0.453125q-0.40625 0.453125 -0.40625 1.296875zm6.3842773 2.859375l-1.8125 -5.703125l1.46875 0l1.0625 3.734375l0.984375 -3.734375l1.453125 0l0.953125 3.734375l1.09375 -3.734375l1.484375 0l-1.828125 5.703125l-1.453125 0l-0.984375 -3.671875l-0.96875 3.671875l-1.453125 0zm7.2262573 0l0 -7.875l1.5 0l0 7.875l-1.5 0zm6.257538 -1.8125l1.5 0.25q-0.28125 0.828125 -0.90625 1.265625q-0.625 0.421875 -1.578125 0.421875q-1.484375 0 -2.203125 -0.96875q-0.5625 -0.78125 -0.5625 -1.96875q0 -1.421875 0.734375 -2.21875q0.75 -0.796875 1.890625 -0.796875q1.265625 0 2.0 0.84375q0.734375 0.828125 0.703125 2.5625l-3.78125 0q0.015625 0.671875 0.359375 1.046875q0.359375 0.375 0.875 0.375q0.359375 0 0.59375 -0.1875q0.25 -0.203125 0.375 -0.625zm0.078125 -1.53125q-0.015625 -0.65625 -0.34375 -0.984375q-0.3125 -0.34375 -0.765625 -0.34375q-0.5 0 -0.828125 0.359375q-0.3125 0.359375 -0.3125 0.96875l2.25 0zm7.770233 3.34375l-1.390625 0l0 -0.84375q-0.359375 0.5 -0.84375 0.734375q-0.46875 0.234375 -0.9375 0.234375q-0.984375 0 -1.6875 -0.78125q-0.703125 -0.796875 -0.703125 -2.21875q0 -1.453125 0.671875 -2.203125q0.6875 -0.75 1.734375 -0.75q0.953125 0 1.65625 0.796875l0 -2.84375l1.5 0l0 7.875zm-4.015625 -2.96875q0 0.90625 0.25 1.3125q0.359375 0.59375 1.015625 0.59375q0.515625 0 0.875 -0.4375q0.375 -0.453125 0.375 -1.328125q0 -0.984375 -0.359375 -1.40625q-0.34375 -0.4375 -0.90625 -0.4375q-0.53125 0 -0.890625 0.421875q-0.359375 0.421875 -0.359375 1.28125zm5.1655273 3.34375l1.71875 0.203125q0.046875 0.3125 0.203125 0.421875q0.203125 0.15625 0.671875 0.15625q0.59375 0 0.890625 -0.171875q0.1875 -0.125 0.296875 -0.375q0.0625 -0.203125 0.0625 -0.703125l0 -0.828125q-0.671875 0.921875 -1.703125 0.921875q-1.140625 0 -1.8125 -0.96875q-0.53125 -0.765625 -0.53125 -1.921875q0 -1.421875 0.6875 -2.171875q0.6875 -0.765625 1.71875 -0.765625q1.0625 0 1.75 0.921875l0 -0.796875l1.40625 0l0 5.125q0 1.0 -0.171875 1.5q-0.15625 0.5 -0.46875 0.78125q-0.296875 0.296875 -0.796875 0.453125q-0.5 0.15625 -1.265625 0.15625q-1.453125 0 -2.0625 -0.5q-0.609375 -0.484375 -0.609375 -1.25q0 -0.078125 0.015625 -0.1875zm1.34375 -3.34375q0 0.90625 0.34375 1.328125q0.359375 0.421875 0.875 0.421875q0.546875 0 0.921875 -0.421875q0.390625 -0.4375 0.390625 -1.296875q0 -0.875 -0.375 -1.296875q-0.359375 -0.4375 -0.90625 -0.4375q-0.546875 0 -0.90625 0.421875q-0.34375 0.421875 -0.34375 1.28125zm8.602997 1.15625l1.5 0.25q-0.28125 0.828125 -0.90625 1.265625q-0.625 0.421875 -1.578125 0.421875q-1.484375 0 -2.203125 -0.96875q-0.5625 -0.78125 -0.5625 -1.96875q0 -1.421875 0.734375 -2.21875q0.75 -0.796875 1.890625 -0.796875q1.265625 0 2.0 0.84375q0.734375 0.828125 0.703125 2.5625l-3.78125 0q0.015625 0.671875 0.359375 1.046875q0.359375 0.375 0.875 0.375q0.359375 0 0.59375 -0.1875q0.25 -0.203125 0.375 -0.625zm0.078125 -1.53125q-0.015625 -0.65625 -0.34375 -0.984375q-0.3125 -0.34375 -0.765625 -0.34375q-0.5 0 -0.828125 0.359375q-0.3125 0.359375 -0.3125 0.96875l2.25 0zm7.7702637 3.34375l-1.390625 0l0 -0.84375q-0.359375 0.5 -0.84375 0.734375q-0.46875 0.234375 -0.9375 0.234375q-0.984375 0 -1.6875 -0.78125q-0.703125 -0.796875 -0.703125 -2.21875q0 -1.453125 0.671875 -2.203125q0.6875 -0.75 1.734375 -0.75q0.953125 0 1.65625 0.796875l0 -2.84375l1.5 0l0 7.875zm-4.015625 -2.96875q0 0.90625 0.25 1.3125q0.359375 0.59375 1.015625 0.59375q0.515625 0 0.875 -0.4375q0.375 -0.453125 0.375 -1.328125q0 -0.984375 -0.359375 -1.40625q-0.34375 -0.4375 -0.90625 -0.4375q-0.53125 0 -0.890625 0.421875q-0.359375 0.421875 -0.359375 1.28125z" fill-rule="nonzero"></path><path fill="#000000" fill-opacity="0.0" d="m648.3123 161.29134l162.01575 0l0 52.7874l-162.01575 0z" fill-rule="evenodd"></path><path fill="#000000" d="m657.71857 178.43759l1.46875 -0.171875q0.0625 0.5625 0.375 0.859375q0.3125 0.28125 0.734375 0.28125q0.46875 0 0.78125 -0.34375q0.328125 -0.359375 0.328125 -0.953125q0 -0.578125 -0.3125 -0.90625q-0.296875 -0.328125 -0.734375 -0.328125q-0.296875 0 -0.6875 0.109375l0.15625 -1.234375q0.609375 0.015625 0.9375 -0.265625q0.328125 -0.28125 0.328125 -0.75q0 -0.390625 -0.25 -0.625q-0.234375 -0.25 -0.625 -0.25q-0.375 0 -0.65625 0.28125q-0.265625 0.265625 -0.328125 0.78125l-1.390625 -0.234375q0.140625 -0.71875 0.421875 -1.140625q0.296875 -0.4375 0.8125 -0.671875q0.53125 -0.25 1.1875 -0.25q1.109375 0 1.78125 0.703125q0.5625 0.578125 0.5625 1.3125q0 1.046875 -1.140625 1.65625q0.671875 0.140625 1.078125 0.65625q0.40625 0.5 0.40625 1.21875q0 1.03125 -0.765625 1.765625q-0.75 0.734375 -1.875 0.734375q-1.0625 0 -1.765625 -0.609375q-0.703125 -0.625 -0.828125 -1.625zm6.3171387 2.09375l0 -1.515625l1.5 0l0 1.515625l-1.5 0zm5.9213257 0l0 -7.875l2.5625 0q1.4375 0 1.890625 0.125q0.671875 0.171875 1.125 0.765625q0.453125 0.59375 0.453125 1.53125q0 0.71875 -0.265625 1.21875q-0.25 0.5 -0.65625 0.78125q-0.40625 0.28125 -0.828125 0.375q-0.578125 0.109375 -1.65625 0.109375l-1.03125 0l0 2.96875l-1.59375 0zm1.59375 -6.546875l0 2.234375l0.875 0q0.9375 0 1.25 -0.125q0.3125 -0.125 0.484375 -0.375q0.1875 -0.265625 0.1875 -0.625q0 -0.421875 -0.25 -0.703125q-0.25 -0.28125 -0.640625 -0.34375q-0.28125 -0.0625 -1.140625 -0.0625l-0.765625 0zm9.263855 6.546875l0 -0.859375q-0.3125 0.46875 -0.828125 0.734375q-0.5 0.25 -1.0625 0.25q-0.578125 0 -1.03125 -0.25q-0.453125 -0.25 -0.671875 -0.703125q-0.203125 -0.46875 -0.203125 -1.265625l0 -3.609375l1.515625 0l0 2.625q0 1.203125 0.078125 1.46875q0.09375 0.265625 0.3125 0.4375q0.21875 0.15625 0.5625 0.15625q0.375 0 0.6875 -0.203125q0.3125 -0.21875 0.421875 -0.53125q0.109375 -0.328125 0.109375 -1.546875l0 -2.40625l1.515625 0l0 5.703125l-1.40625 0zm2.6811523 0l0 -7.875l1.515625 0l0 2.84375q0.703125 -0.796875 1.65625 -0.796875q1.046875 0 1.71875 0.75q0.6875 0.75 0.6875 2.171875q0 1.453125 -0.703125 2.25q-0.6875 0.78125 -1.6875 0.78125q-0.484375 0 -0.96875 -0.234375q-0.46875 -0.25 -0.8125 -0.734375l0 0.84375l-1.40625 0zm1.5 -2.96875q0 0.875 0.28125 1.296875q0.390625 0.609375 1.046875 0.609375q0.5 0 0.84375 -0.421875q0.359375 -0.4375 0.359375 -1.359375q0 -0.96875 -0.359375 -1.390625q-0.34375 -0.4375 -0.90625 -0.4375q-0.546875 0 -0.90625 0.421875q-0.359375 0.421875 -0.359375 1.28125zm5.0874023 2.96875l0 -7.875l1.5 0l0 7.875l-1.5 0zm2.9606323 -6.484375l0 -1.390625l1.5 0l0 1.390625l-1.5 0zm0 6.484375l0 -5.703125l1.5 0l0 5.703125l-1.5 0zm2.4293823 -1.625l1.5 -0.234375q0.109375 0.4375 0.390625 0.671875q0.296875 0.21875 0.828125 0.21875q0.59375 0 0.890625 -0.203125q0.203125 -0.15625 0.203125 -0.40625q0 -0.171875 -0.109375 -0.28125q-0.125 -0.109375 -0.515625 -0.203125q-1.8125 -0.40625 -2.3125 -0.734375q-0.671875 -0.46875 -0.671875 -1.28125q0 -0.75 0.578125 -1.25q0.59375 -0.5 1.828125 -0.5q1.171875 0 1.734375 0.375q0.5625 0.375 0.78125 1.125l-1.421875 0.265625q-0.09375 -0.328125 -0.34375 -0.5q-0.25 -0.1875 -0.734375 -0.1875q-0.59375 0 -0.84375 0.171875q-0.171875 0.109375 -0.171875 0.296875q0 0.171875 0.140625 0.28125q0.203125 0.15625 1.40625 0.4375q1.21875 0.265625 1.6875 0.65625q0.484375 0.40625 0.484375 1.125q0 0.78125 -0.65625 1.34375q-0.65625 0.5625 -1.953125 0.5625q-1.15625 0 -1.84375 -0.46875q-0.671875 -0.46875 -0.875 -1.28125zm7.9577637 -6.25l0 2.890625q0.734375 -0.84375 1.75 -0.84375q0.515625 0 0.921875 0.1875q0.421875 0.1875 0.640625 0.5q0.21875 0.296875 0.296875 0.671875q0.078125 0.359375 0.078125 1.125l0 3.34375l-1.515625 0l0 -3.015625q0 -0.890625 -0.09375 -1.125q-0.078125 -0.25 -0.296875 -0.390625q-0.21875 -0.140625 -0.546875 -0.140625q-0.375 0 -0.671875 0.1875q-0.296875 0.171875 -0.4375 0.546875q-0.125 0.359375 -0.125 1.078125l0 2.859375l-1.515625 0l0 -7.875l1.515625 0z" fill-rule="nonzero"></path><path fill="#000000" d="m658.1248 193.53134l0 -7.875l3.34375 0q1.265625 0 1.828125 0.21875q0.578125 0.203125 0.921875 0.75q0.34375 0.546875 0.34375 1.234375q0 0.890625 -0.53125 1.46875q-0.515625 0.578125 -1.546875 0.734375q0.515625 0.296875 0.84375 0.65625q0.34375 0.359375 0.90625 1.28125l0.96875 1.53125l-1.90625 0l-1.15625 -1.71875q-0.609375 -0.90625 -0.84375 -1.140625q-0.21875 -0.25 -0.46875 -0.328125q-0.25 -0.09375 -0.796875 -0.09375l-0.328125 0l0 3.28125l-1.578125 0zm1.578125 -4.546875l1.1875 0q1.140625 0 1.421875 -0.09375q0.28125 -0.09375 0.4375 -0.328125q0.171875 -0.234375 0.171875 -0.59375q0 -0.40625 -0.21875 -0.640625q-0.203125 -0.25 -0.59375 -0.3125q-0.1875 -0.03125 -1.15625 -0.03125l-1.25 0l0 2.0zm6.1018677 4.546875l0 -7.875l5.84375 0l0 1.328125l-4.25 0l0 1.75l3.953125 0l0 1.328125l-3.953125 0l0 2.140625l4.40625 0l0 1.328125l-6.0 0zm6.701416 -2.5625l1.546875 -0.15625q0.140625 0.78125 0.5625 1.15625q0.4375 0.359375 1.15625 0.359375q0.78125 0 1.15625 -0.328125q0.390625 -0.328125 0.390625 -0.75q0 -0.28125 -0.171875 -0.46875q-0.15625 -0.203125 -0.5625 -0.359375q-0.28125 -0.09375 -1.265625 -0.34375q-1.28125 -0.3125 -1.796875 -0.78125q-0.71875 -0.640625 -0.71875 -1.578125q0 -0.59375 0.328125 -1.109375q0.34375 -0.53125 0.984375 -0.8125q0.640625 -0.28125 1.5625 -0.28125q1.46875 0 2.21875 0.65625q0.75 0.65625 0.796875 1.734375l-1.59375 0.078125q-0.109375 -0.609375 -0.4375 -0.875q-0.328125 -0.265625 -1.0 -0.265625q-0.703125 0 -1.09375 0.28125q-0.25 0.1875 -0.25 0.484375q0 0.28125 0.234375 0.484375q0.296875 0.25 1.453125 0.53125q1.171875 0.265625 1.71875 0.5625q0.5625 0.28125 0.875 0.796875q0.3125 0.5 0.3125 1.25q0 0.6875 -0.375 1.28125q-0.375 0.578125 -1.0625 0.875q-0.6875 0.28125 -1.71875 0.28125q-1.484375 0 -2.296875 -0.6875q-0.796875 -0.6875 -0.953125 -2.015625zm7.513855 -5.3125l1.578125 0l0 4.265625q0 1.015625 0.0625 1.3125q0.109375 0.484375 0.484375 0.78125q0.390625 0.296875 1.046875 0.296875q0.6875 0 1.03125 -0.28125q0.34375 -0.28125 0.40625 -0.671875q0.078125 -0.40625 0.078125 -1.34375l0 -4.359375l1.578125 0l0 4.140625q0 1.40625 -0.125 2.0q-0.125 0.578125 -0.46875 0.984375q-0.34375 0.40625 -0.9375 0.65625q-0.578125 0.234375 -1.515625 0.234375q-1.125 0 -1.703125 -0.265625q-0.578125 -0.265625 -0.921875 -0.671875q-0.34375 -0.421875 -0.4375 -0.875q-0.15625 -0.6875 -0.15625 -2.0l0 -4.203125zm7.7424927 7.875l0 -7.8125l1.59375 0l0 6.484375l3.953125 0l0 1.328125l-5.546875 0zm8.243652 0l0 -6.546875l-2.34375 0l0 -1.328125l6.265625 0l0 1.328125l-2.34375 0l0 6.546875l-1.578125 0zm3.8217163 2.171875l0 -0.96875l6.28125 0l0 0.96875l-6.28125 0zm6.8327637 -2.171875l0 -7.875l5.84375 0l0 1.328125l-4.25 0l0 1.75l3.953125 0l0 1.328125l-3.953125 0l0 2.140625l4.40625 0l0 1.328125l-6.0 0zm6.310791 0l2.6875 -4.109375l-2.4375 -3.765625l1.859375 0l1.578125 2.53125l1.546875 -2.53125l1.84375 0l-2.453125 3.828125l2.703125 4.046875l-1.921875 0l-1.75 -2.71875l-1.75 2.71875l-1.90625 0zm12.951355 -2.890625l1.53125 0.484375q-0.34375 1.28125 -1.171875 1.921875q-0.828125 0.625 -2.09375 0.625q-1.5625 0 -2.578125 -1.078125q-1.015625 -1.078125 -1.015625 -2.9375q0 -1.953125 1.015625 -3.046875q1.015625 -1.09375 2.671875 -1.09375q1.453125 0 2.34375 0.859375q0.546875 0.5 0.8125 1.453125l-1.578125 0.375q-0.140625 -0.609375 -0.578125 -0.96875q-0.4375 -0.359375 -1.078125 -0.359375q-0.875 0 -1.421875 0.640625q-0.546875 0.625 -0.546875 2.03125q0 1.484375 0.53125 2.125q0.546875 0.640625 1.40625 0.640625q0.640625 0 1.09375 -0.40625q0.453125 -0.40625 0.65625 -1.265625zm2.6487427 2.890625l0 -7.875l5.84375 0l0 1.328125l-4.25 0l0 1.75l3.953125 0l0 1.328125l-3.953125 0l0 2.140625l4.40625 0l0 1.328125l-6.0 0zm7.107605 0l0 -7.875l2.5625 0q1.4375 0 1.890625 0.125q0.671875 0.171875 1.125 0.765625q0.453125 0.59375 0.453125 1.53125q0 0.71875 -0.265625 1.21875q-0.25 0.5 -0.65625 0.78125q-0.40625 0.28125 -0.828125 0.375q-0.578125 0.109375 -1.65625 0.109375l-1.03125 0l0 2.96875l-1.59375 0zm1.59375 -6.546875l0 2.234375l0.875 0q0.9375 0 1.25 -0.125q0.3125 -0.125 0.484375 -0.375q0.1875 -0.265625 0.1875 -0.625q0 -0.421875 -0.25 -0.703125q-0.25 -0.28125 -0.640625 -0.34375q-0.28125 -0.0625 -1.140625 -0.0625l-0.765625 0zm7.295166 6.546875l0 -6.546875l-2.34375 0l0 -1.328125l6.265625 0l0 1.328125l-2.34375 0l0 6.546875l-1.578125 0zm4.6811523 0l0 -7.875l1.59375 0l0 7.875l-1.59375 0zm2.6950073 -3.890625q0 -1.203125 0.359375 -2.015625q0.265625 -0.609375 0.71875 -1.078125q0.46875 -0.484375 1.03125 -0.71875q0.734375 -0.3125 1.6875 -0.3125q1.75 0 2.78125 1.09375q1.046875 1.078125 1.046875 3.0q0 1.90625 -1.03125 2.984375q-1.03125 1.078125 -2.765625 1.078125q-1.765625 0 -2.796875 -1.078125q-1.03125 -1.078125 -1.03125 -2.953125zm1.625 -0.046875q0 1.328125 0.625 2.03125q0.625 0.6875 1.5625 0.6875q0.953125 0 1.5625 -0.6875q0.609375 -0.6875 0.609375 -2.0625q0 -1.34375 -0.59375 -2.015625q-0.59375 -0.671875 -1.578125 -0.671875q-0.984375 0 -1.59375 0.6875q-0.59375 0.671875 -0.59375 2.03125zm6.9918823 3.9375l0 -7.875l1.546875 0l3.234375 5.265625l0 -5.265625l1.46875 0l0 7.875l-1.59375 0l-3.171875 -5.140625l0 5.140625l-1.484375 0z" fill-rule="nonzero"></path><path fill="#000000" d="m659.5467 206.53134l-1.515625 0l0 -5.703125l1.40625 0l0 0.8125q0.359375 -0.578125 0.640625 -0.75q0.296875 -0.1875 0.65625 -0.1875q0.515625 0 1.0 0.28125l-0.46875 1.3125q-0.375 -0.25 -0.703125 -0.25q-0.328125 0 -0.546875 0.1875q-0.21875 0.171875 -0.34375 0.625q-0.125 0.453125 -0.125 1.90625l0 1.765625zm6.0064087 -1.8125l1.5 0.25q-0.28125 0.828125 -0.90625 1.265625q-0.625 0.421875 -1.578125 0.421875q-1.484375 0 -2.203125 -0.96875q-0.5625 -0.78125 -0.5625 -1.96875q0 -1.421875 0.734375 -2.21875q0.75 -0.796875 1.890625 -0.796875q1.265625 0 2.0 0.84375q0.734375 0.828125 0.703125 2.5625l-3.78125 0q0.015625 0.671875 0.359375 1.046875q0.359375 0.375 0.875 0.375q0.359375 0 0.59375 -0.1875q0.25 -0.203125 0.375 -0.625zm0.078125 -1.53125q-0.015625 -0.65625 -0.34375 -0.984375q-0.3125 -0.34375 -0.765625 -0.34375q-0.5 0 -0.828125 0.359375q-0.3125 0.359375 -0.3125 0.96875l2.25 0zm2.0202026 1.71875l1.5 -0.234375q0.109375 0.4375 0.390625 0.671875q0.296875 0.21875 0.828125 0.21875q0.59375 0 0.890625 -0.203125q0.203125 -0.15625 0.203125 -0.40625q0 -0.171875 -0.109375 -0.28125q-0.125 -0.109375 -0.515625 -0.203125q-1.8125 -0.40625 -2.3125 -0.734375q-0.671875 -0.46875 -0.671875 -1.28125q0 -0.75 0.578125 -1.25q0.59375 -0.5 1.828125 -0.5q1.171875 0 1.734375 0.375q0.5625 0.375 0.78125 1.125l-1.421875 0.265625q-0.09375 -0.328125 -0.34375 -0.5q-0.25 -0.1875 -0.734375 -0.1875q-0.59375 0 -0.84375 0.171875q-0.171875 0.109375 -0.171875 0.296875q0 0.171875 0.140625 0.28125q0.203125 0.15625 1.40625 0.4375q1.21875 0.265625 1.6875 0.65625q0.484375 0.40625 0.484375 1.125q0 0.78125 -0.65625 1.34375q-0.65625 0.5625 -1.953125 0.5625q-1.15625 0 -1.84375 -0.46875q-0.671875 -0.46875 -0.875 -1.28125zm6.4108887 -4.078125l1.40625 0l0 0.84375q0.265625 -0.4375 0.734375 -0.703125q0.46875 -0.265625 1.046875 -0.265625q0.984375 0 1.671875 0.78125q0.703125 0.765625 0.703125 2.15625q0 1.4375 -0.703125 2.234375q-0.6875 0.78125 -1.6875 0.78125q-0.46875 0 -0.859375 -0.1875q-0.375 -0.1875 -0.8125 -0.640625l0 2.875l-1.5 0l0 -7.875zm1.484375 2.75q0 0.96875 0.375 1.4375q0.390625 0.453125 0.9375 0.453125q0.53125 0 0.875 -0.421875q0.359375 -0.421875 0.359375 -1.390625q0 -0.890625 -0.359375 -1.328125q-0.359375 -0.4375 -0.890625 -0.4375q-0.5625 0 -0.9375 0.4375q-0.359375 0.421875 -0.359375 1.25zm4.7124023 0.015625q0 -0.75 0.375 -1.453125q0.375 -0.703125 1.046875 -1.0625q0.6875 -0.375 1.515625 -0.375q1.296875 0 2.125 0.84375q0.828125 0.828125 0.828125 2.109375q0 1.296875 -0.84375 2.15625q-0.828125 0.84375 -2.09375 0.84375q-0.78125 0 -1.5 -0.34375q-0.703125 -0.359375 -1.078125 -1.046875q-0.375 -0.6875 -0.375 -1.671875zm1.546875 0.078125q0 0.859375 0.40625 1.3125q0.40625 0.453125 1.0 0.453125q0.578125 0 0.984375 -0.453125q0.40625 -0.453125 0.40625 -1.3125q0 -0.84375 -0.40625 -1.296875q-0.40625 -0.453125 -0.984375 -0.453125q-0.59375 0 -1.0 0.453125q-0.40625 0.453125 -0.40625 1.296875zm10.509277 2.859375l-1.515625 0l0 -2.90625q0 -0.921875 -0.09375 -1.1875q-0.09375 -0.28125 -0.3125 -0.421875q-0.21875 -0.15625 -0.53125 -0.15625q-0.390625 0 -0.703125 0.21875q-0.3125 0.203125 -0.4375 0.5625q-0.109375 0.34375 -0.109375 1.3125l0 2.578125l-1.5 0l0 -5.703125l1.40625 0l0 0.84375q0.734375 -0.96875 1.875 -0.96875q0.5 0 0.90625 0.1875q0.421875 0.171875 0.625 0.453125q0.21875 0.265625 0.296875 0.625q0.09375 0.359375 0.09375 1.015625l0 3.546875zm0.7904663 -1.625l1.5 -0.234375q0.109375 0.4375 0.390625 0.671875q0.296875 0.21875 0.828125 0.21875q0.59375 0 0.890625 -0.203125q0.203125 -0.15625 0.203125 -0.40625q0 -0.171875 -0.109375 -0.28125q-0.125 -0.109375 -0.515625 -0.203125q-1.8125 -0.40625 -2.3125 -0.734375q-0.671875 -0.46875 -0.671875 -1.28125q0 -0.75 0.578125 -1.25q0.59375 -0.5 1.828125 -0.5q1.171875 0 1.734375 0.375q0.5625 0.375 0.78125 1.125l-1.421875 0.265625q-0.09375 -0.328125 -0.34375 -0.5q-0.25 -0.1875 -0.734375 -0.1875q-0.59375 0 -0.84375 0.171875q-0.171875 0.109375 -0.171875 0.296875q0 0.171875 0.140625 0.28125q0.203125 0.15625 1.40625 0.4375q1.21875 0.265625 1.6875 0.65625q0.484375 0.40625 0.484375 1.125q0 0.78125 -0.65625 1.34375q-0.65625 0.5625 -1.953125 0.5625q-1.15625 0 -1.84375 -0.46875q-0.671875 -0.46875 -0.875 -1.28125zm9.754639 -0.1875l1.5 0.25q-0.28125 0.828125 -0.90625 1.265625q-0.625 0.421875 -1.578125 0.421875q-1.484375 0 -2.203125 -0.96875q-0.5625 -0.78125 -0.5625 -1.96875q0 -1.421875 0.734375 -2.21875q0.75 -0.796875 1.890625 -0.796875q1.265625 0 2.0 0.84375q0.734375 0.828125 0.703125 2.5625l-3.78125 0q0.015625 0.671875 0.359375 1.046875q0.359375 0.375 0.875 0.375q0.359375 0 0.59375 -0.1875q0.25 -0.203125 0.375 -0.625zm0.078125 -1.53125q-0.015625 -0.65625 -0.34375 -0.984375q-0.3125 -0.34375 -0.765625 -0.34375q-0.5 0 -0.828125 0.359375q-0.3125 0.359375 -0.3125 0.96875l2.25 0z" fill-rule="nonzero"></path><path fill="#000000" fill-opacity="0.0" d="m738.65094 74.01837l162.01575 0l0 37.354332l-162.01575 0z" fill-rule="evenodd"></path><path fill="#000000" d="m755.20886 95.818375l-2.125 -6.734375l1.734375 0l1.25 4.40625l1.171875 -4.40625l1.71875 0l1.125 4.40625l1.28125 -4.40625l1.765625 0l-2.171875 6.734375l-1.703125 0l-1.171875 -4.328125l-1.140625 4.328125l-1.734375 0zm8.69519 -3.46875q0 -0.890625 0.4375 -1.71875q0.4375 -0.828125 1.234375 -1.265625q0.8125 -0.4375 1.8125 -0.4375q1.515625 0 2.5 1.0q0.984375 0.984375 0.984375 2.5q0 1.53125 -1.0 2.546875q-0.984375 1.0 -2.484375 1.0q-0.921875 0 -1.765625 -0.421875q-0.84375 -0.421875 -1.28125 -1.21875q-0.4375 -0.8125 -0.4375 -1.984375zm1.828125 0.09375q0 1.0 0.46875 1.546875q0.484375 0.53125 1.1875 0.53125q0.703125 0 1.171875 -0.53125q0.46875 -0.546875 0.46875 -1.5625q0 -0.984375 -0.46875 -1.515625q-0.46875 -0.53125 -1.171875 -0.53125q-0.703125 0 -1.1875 0.53125q-0.46875 0.53125 -0.46875 1.53125zm8.438232 3.375l-1.78125 0l0 -6.734375l1.65625 0l0 0.953125q0.421875 -0.6875 0.765625 -0.890625q0.34375 -0.21875 0.765625 -0.21875q0.609375 0 1.171875 0.328125l-0.546875 1.5625q-0.453125 -0.296875 -0.84375 -0.296875q-0.375 0 -0.640625 0.21875q-0.25 0.203125 -0.40625 0.75q-0.140625 0.53125 -0.140625 2.25l0 2.078125zm3.4211426 0l0 -9.3125l1.78125 0l0 4.9375l2.078125 -2.359375l2.203125 0l-2.296875 2.453125l2.46875 4.28125l-1.921875 0l-1.703125 -3.03125l-0.828125 0.875l0 2.15625l-1.78125 0zm11.381226 -2.140625l1.765625 0.296875q-0.34375 0.96875 -1.078125 1.484375q-0.734375 0.515625 -1.84375 0.515625q-1.765625 0 -2.609375 -1.15625q-0.671875 -0.921875 -0.671875 -2.3125q0 -1.6875 0.875 -2.625q0.890625 -0.953125 2.21875 -0.953125q1.515625 0 2.375 1.0q0.875 0.984375 0.828125 3.03125l-4.46875 0q0.03125 0.796875 0.4375 1.234375q0.40625 0.4375 1.03125 0.4375q0.421875 0 0.703125 -0.21875q0.28125 -0.234375 0.4375 -0.734375zm0.09375 -1.8125q-0.015625 -0.765625 -0.40625 -1.171875q-0.375 -0.40625 -0.921875 -0.40625q-0.578125 0 -0.96875 0.421875q-0.375 0.4375 -0.375 1.15625l2.671875 0zm5.1156006 3.953125l-1.78125 0l0 -6.734375l1.65625 0l0 0.953125q0.421875 -0.6875 0.765625 -0.890625q0.34375 -0.21875 0.765625 -0.21875q0.609375 0 1.171875 0.328125l-0.546875 1.5625q-0.453125 -0.296875 -0.84375 -0.296875q-0.375 0 -0.640625 0.21875q-0.25 0.203125 -0.40625 0.75q-0.140625 0.53125 -0.140625 2.25l0 2.078125zm3.2648926 -2.484375l0 -1.78125l3.515625 0l0 1.78125l-3.515625 0zm4.2352905 -0.984375q0 -0.890625 0.4375 -1.71875q0.4375 -0.828125 1.234375 -1.265625q0.8125 -0.4375 1.8125 -0.4375q1.515625 0 2.5 1.0q0.984375 0.984375 0.984375 2.5q0 1.53125 -1.0 2.546875q-0.984375 1.0 -2.484375 1.0q-0.921875 0 -1.765625 -0.421875q-0.84375 -0.421875 -1.28125 -1.21875q-0.4375 -0.8125 -0.4375 -1.984375zm1.828125 0.09375q0 1.0 0.46875 1.546875q0.484375 0.53125 1.1875 0.53125q0.703125 0 1.171875 -0.53125q0.46875 -0.546875 0.46875 -1.5625q0 -0.984375 -0.46875 -1.515625q-0.46875 -0.53125 -1.171875 -0.53125q-0.703125 0 -1.1875 0.53125q-0.46875 0.53125 -0.46875 1.53125zm11.172607 3.375l0 -1.015625q-0.375 0.546875 -0.984375 0.859375q-0.59375 0.3125 -1.25 0.3125q-0.6875 0 -1.234375 -0.296875q-0.53125 -0.296875 -0.78125 -0.84375q-0.234375 -0.546875 -0.234375 -1.484375l0 -4.265625l1.78125 0l0 3.09375q0 1.421875 0.09375 1.75q0.109375 0.3125 0.359375 0.5q0.265625 0.1875 0.671875 0.1875q0.453125 0 0.8125 -0.25q0.375 -0.25 0.5 -0.625q0.140625 -0.375 0.140625 -1.8125l0 -2.84375l1.78125 0l0 6.734375l-1.65625 0zm6.7976074 -6.734375l0 1.421875l-1.21875 0l0 2.703125q0 0.828125 0.03125 0.96875q0.03125 0.140625 0.15625 0.234375q0.125 0.078125 0.296875 0.078125q0.25 0 0.71875 -0.171875l0.15625 1.390625q-0.625 0.265625 -1.40625 0.265625q-0.484375 0 -0.875 -0.15625q-0.390625 -0.171875 -0.578125 -0.421875q-0.171875 -0.265625 -0.234375 -0.703125q-0.0625 -0.3125 -0.0625 -1.25l0 -2.9375l-0.8125 0l0 -1.421875l0.8125 0l0 -1.34375l1.796875 -1.046875l0 2.390625l1.21875 0zm1.2821045 0l1.671875 0l0 0.984375q0.328125 -0.515625 0.875 -0.828125q0.546875 -0.3125 1.21875 -0.3125q1.1875 0 2.0 0.921875q0.8125 0.921875 0.8125 2.5625q0 1.6875 -0.828125 2.625q-0.8125 0.9375 -1.984375 0.9375q-0.5625 0 -1.015625 -0.21875q-0.453125 -0.234375 -0.953125 -0.765625l0 3.390625l-1.796875 0l0 -9.296875zm1.765625 3.25q0 1.140625 0.453125 1.6875q0.453125 0.53125 1.109375 0.53125q0.609375 0 1.015625 -0.5q0.421875 -0.5 0.421875 -1.625q0 -1.0625 -0.421875 -1.578125q-0.421875 -0.515625 -1.046875 -0.515625q-0.65625 0 -1.09375 0.515625q-0.4375 0.5 -0.4375 1.484375zm10.875732 3.484375l0 -1.015625q-0.375 0.546875 -0.984375 0.859375q-0.59375 0.3125 -1.25 0.3125q-0.6875 0 -1.234375 -0.296875q-0.53125 -0.296875 -0.78125 -0.84375q-0.234375 -0.546875 -0.234375 -1.484375l0 -4.265625l1.78125 0l0 3.09375q0 1.421875 0.09375 1.75q0.109375 0.3125 0.359375 0.5q0.265625 0.1875 0.671875 0.1875q0.453125 0 0.8125 -0.25q0.375 -0.25 0.5 -0.625q0.140625 -0.375 0.140625 -1.8125l0 -2.84375l1.78125 0l0 6.734375l-1.65625 0zm6.7976074 -6.734375l0 1.421875l-1.21875 0l0 2.703125q0 0.828125 0.03125 0.96875q0.03125 0.140625 0.15625 0.234375q0.125 0.078125 0.296875 0.078125q0.25 0 0.71875 -0.171875l0.15625 1.390625q-0.625 0.265625 -1.40625 0.265625q-0.484375 0 -0.875 -0.15625q-0.390625 -0.171875 -0.578125 -0.421875q-0.171875 -0.265625 -0.234375 -0.703125q-0.0625 -0.3125 -0.0625 -1.25l0 -2.9375l-0.8125 0l0 -1.421875l0.8125 0l0 -1.34375l1.796875 -1.046875l0 2.390625l1.21875 0zm1.1258545 4.25l0 -1.78125l3.515625 0l0 1.78125l-3.515625 0zm9.0633545 5.046875l0 -3.390625q-0.359375 0.453125 -0.875 0.71875q-0.515625 0.265625 -1.125 0.265625q-1.140625 0 -1.890625 -0.875q-0.875 -1.0 -0.875 -2.734375q0 -1.625 0.8125 -2.53125q0.828125 -0.90625 2.046875 -0.90625q0.671875 0 1.15625 0.28125q0.5 0.28125 0.890625 0.859375l0 -0.984375l1.640625 0l0 9.296875l-1.78125 0zm0.046875 -6.015625q0 -1.03125 -0.421875 -1.53125q-0.421875 -0.515625 -1.046875 -0.515625q-0.65625 0 -1.09375 0.515625q-0.421875 0.515625 -0.421875 1.625q0 1.125 0.40625 1.625q0.421875 0.484375 1.046875 0.484375q0.609375 0 1.0625 -0.546875q0.46875 -0.5625 0.46875 -1.65625zm8.125732 3.453125l0 -1.015625q-0.375 0.546875 -0.984375 0.859375q-0.59375 0.3125 -1.25 0.3125q-0.6875 0 -1.234375 -0.296875q-0.53125 -0.296875 -0.78125 -0.84375q-0.234375 -0.546875 -0.234375 -1.484375l0 -4.265625l1.78125 0l0 3.09375q0 1.421875 0.09375 1.75q0.109375 0.3125 0.359375 0.5q0.265625 0.1875 0.671875 0.1875q0.453125 0 0.8125 -0.25q0.375 -0.25 0.5 -0.625q0.140625 -0.375 0.140625 -1.8125l0 -2.84375l1.78125 0l0 6.734375l-1.65625 0zm7.6101074 -2.140625l1.765625 0.296875q-0.34375 0.96875 -1.078125 1.484375q-0.734375 0.515625 -1.84375 0.515625q-1.765625 0 -2.609375 -1.15625q-0.671875 -0.921875 -0.671875 -2.3125q0 -1.6875 0.875 -2.625q0.890625 -0.953125 2.21875 -0.953125q1.515625 0 2.375 1.0q0.875 0.984375 0.828125 3.03125l-4.46875 0q0.03125 0.796875 0.4375 1.234375q0.40625 0.4375 1.03125 0.4375q0.421875 0 0.703125 -0.21875q0.28125 -0.234375 0.4375 -0.734375zm0.09375 -1.8125q-0.015625 -0.765625 -0.40625 -1.171875q-0.375 -0.40625 -0.921875 -0.40625q-0.578125 0 -0.96875 0.421875q-0.375 0.4375 -0.375 1.15625l2.671875 0zm7.8499756 3.953125l0 -1.015625q-0.375 0.546875 -0.984375 0.859375q-0.59375 0.3125 -1.25 0.3125q-0.6875 0 -1.234375 -0.296875q-0.53125 -0.296875 -0.78125 -0.84375q-0.234375 -0.546875 -0.234375 -1.484375l0 -4.265625l1.78125 0l0 3.09375q0 1.421875 0.09375 1.75q0.109375 0.3125 0.359375 0.5q0.265625 0.1875 0.671875 0.1875q0.453125 0 0.8125 -0.25q0.375 -0.25 0.5 -0.625q0.140625 -0.375 0.140625 -1.8125l0 -2.84375l1.78125 0l0 6.734375l-1.65625 0zm7.6101074 -2.140625l1.765625 0.296875q-0.34375 0.96875 -1.078125 1.484375q-0.734375 0.515625 -1.84375 0.515625q-1.765625 0 -2.609375 -1.15625q-0.671875 -0.921875 -0.671875 -2.3125q0 -1.6875 0.875 -2.625q0.890625 -0.953125 2.21875 -0.953125q1.515625 0 2.375 1.0q0.875 0.984375 0.828125 3.03125l-4.46875 0q0.03125 0.796875 0.4375 1.234375q0.40625 0.4375 1.03125 0.4375q0.421875 0 0.703125 -0.21875q0.28125 -0.234375 0.4375 -0.734375zm0.09375 -1.8125q-0.015625 -0.765625 -0.40625 -1.171875q-0.375 -0.40625 -0.921875 -0.40625q-0.578125 0 -0.96875 0.421875q-0.375 0.4375 -0.375 1.15625l2.671875 0z" fill-rule="nonzero"></path><path fill="#000000" fill-opacity="0.0" d="m39.04987 74.01837l162.01575 0l0 37.354332l-162.01575 0z" fill-rule="evenodd"></path><path fill="#000000" d="m60.046185 95.818375l-2.125 -6.734375l1.734375 0l1.25 4.40625l1.171875 -4.40625l1.71875 0l1.1249962 4.40625l1.28125 -4.40625l1.765625 0l-2.171875 6.734375l-1.703125 0l-1.1718712 -4.328125l-1.140625 4.328125l-1.734375 0zm8.695171 -3.46875q0 -0.890625 0.4375 -1.71875q0.4375 -0.828125 1.234375 -1.265625q0.8125 -0.4375 1.8125 -0.4375q1.515625 0 2.5 1.0q0.984375 0.984375 0.984375 2.5q0 1.53125 -1.0 2.546875q-0.984375 1.0 -2.484375 1.0q-0.921875 0 -1.765625 -0.421875q-0.84375 -0.421875 -1.28125 -1.21875q-0.4375 -0.8125 -0.4375 -1.984375zm1.828125 0.09375q0 1.0 0.46875 1.546875q0.484375 0.53125 1.1875 0.53125q0.703125 0 1.171875 -0.53125q0.46875 -0.546875 0.46875 -1.5625q0 -0.984375 -0.46875 -1.515625q-0.46875 -0.53125 -1.171875 -0.53125q-0.703125 0 -1.1875 0.53125q-0.46875 0.53125 -0.46875 1.53125zm8.438232 3.375l-1.78125 0l0 -6.734375l1.65625 0l0 0.953125q0.421875 -0.6875 0.765625 -0.890625q0.34375 -0.21875 0.765625 -0.21875q0.609375 0 1.171875 0.328125l-0.546875 1.5625q-0.453125 -0.296875 -0.84375 -0.296875q-0.375 0 -0.640625 0.21875q-0.25 0.203125 -0.40625 0.75q-0.140625 0.53125 -0.140625 2.25l0 2.078125zm3.4211578 0l0 -9.3125l1.78125 0l0 4.9375l2.078125 -2.359375l2.203125 0l-2.296875 2.453125l2.46875 4.28125l-1.921875 0l-1.703125 -3.03125l-0.828125 0.875l0 2.15625l-1.78125 0zm11.381226 -2.140625l1.765625 0.296875q-0.34375 0.96875 -1.078125 1.484375q-0.734375 0.515625 -1.84375 0.515625q-1.765625 0 -2.609375 -1.15625q-0.671875 -0.921875 -0.671875 -2.3125q0 -1.6875 0.875 -2.625q0.890625 -0.953125 2.21875 -0.953125q1.515625 0 2.375 1.0q0.875 0.984375 0.828125 3.03125l-4.46875 0q0.03125 0.796875 0.4375 1.234375q0.40625 0.4375 1.03125 0.4375q0.421875 0 0.703125 -0.21875q0.28125 -0.234375 0.4375 -0.734375zm0.09375 -1.8125q-0.015625 -0.765625 -0.40625 -1.171875q-0.375 -0.40625 -0.921875 -0.40625q-0.578125 0 -0.96875 0.421875q-0.375 0.4375 -0.375 1.15625l2.671875 0zm5.1156006 3.953125l-1.78125 0l0 -6.734375l1.65625 0l0 0.953125q0.421875 -0.6875 0.765625 -0.890625q0.34375 -0.21875 0.765625 -0.21875q0.609375 0 1.171875 0.328125l-0.546875 1.5625q-0.453125 -0.296875 -0.84375 -0.296875q-0.375 0 -0.640625 0.21875q-0.25 0.203125 -0.40625 0.75q-0.140625 0.53125 -0.140625 2.25l0 2.078125zm3.2649078 -2.484375l0 -1.78125l3.515625 0l0 1.78125l-3.515625 0zm4.6571198 -5.171875l0 -1.65625l1.78125 0l0 1.65625l-1.78125 0zm0 7.65625l0 -6.734375l1.78125 0l0 6.734375l-1.78125 0zm9.827988 0l-1.78125 0l0 -3.4375q0 -1.09375 -0.125 -1.40625q-0.109375 -0.328125 -0.375 -0.5q-0.25 -0.1875 -0.609375 -0.1875q-0.453125 0 -0.828125 0.265625q-0.359375 0.25 -0.5 0.671875q-0.140625 0.40625 -0.140625 1.546875l0 3.046875l-1.78125 0l0 -6.734375l1.65625 0l0 0.984375q0.875 -1.140625 2.21875 -1.140625q0.59375 0 1.078125 0.21875q0.484375 0.203125 0.734375 0.53125q0.265625 0.328125 0.359375 0.75q0.09375 0.421875 0.09375 1.203125l0 4.1875zm1.9538574 -6.734375l1.671875 0l0 0.984375q0.328125 -0.515625 0.875 -0.828125q0.546875 -0.3125 1.21875 -0.3125q1.1875 0 2.0 0.921875q0.8125 0.921875 0.8125 2.5625q0 1.6875 -0.828125 2.625q-0.8125 0.9375 -1.984375 0.9375q-0.5625 0 -1.015625 -0.21875q-0.453125 -0.234375 -0.953125 -0.765625l0 3.390625l-1.796875 0l0 -9.296875zm1.765625 3.25q0 1.140625 0.453125 1.6875q0.453125 0.53125 1.109375 0.53125q0.609375 0 1.015625 -0.5q0.421875 -0.5 0.421875 -1.625q0 -1.0625 -0.421875 -1.578125q-0.421875 -0.515625 -1.046875 -0.515625q-0.65625 0 -1.09375 0.515625q-0.4375 0.5 -0.4375 1.484375zm10.87574 3.484375l0 -1.015625q-0.375 0.546875 -0.984375 0.859375q-0.59375 0.3125 -1.25 0.3125q-0.6875 0 -1.2343826 -0.296875q-0.53125 -0.296875 -0.78125 -0.84375q-0.234375 -0.546875 -0.234375 -1.484375l0 -4.265625l1.7812576 0l0 3.09375q0 1.421875 0.09375 1.75q0.109375 0.3125 0.359375 0.5q0.265625 0.1875 0.671875 0.1875q0.453125 0 0.8125 -0.25q0.375 -0.25 0.5 -0.625q0.140625 -0.375 0.140625 -1.8125l0 -2.84375l1.78125 0l0 6.734375l-1.65625 0zm6.7976074 -6.734375l0 1.421875l-1.21875 0l0 2.703125q0 0.828125 0.03125 0.96875q0.03125 0.140625 0.15625 0.234375q0.125 0.078125 0.296875 0.078125q0.25 0 0.71875 -0.171875l0.15625 1.390625q-0.625 0.265625 -1.40625 0.265625q-0.484375 0 -0.875 -0.15625q-0.390625 -0.171875 -0.578125 -0.421875q-0.171875 -0.265625 -0.234375 -0.703125q-0.0625 -0.3125 -0.0625 -1.25l0 -2.9375l-0.8125 0l0 -1.421875l0.8125 0l0 -1.34375l1.796875 -1.046875l0 2.390625l1.21875 0zm1.1258698 4.25l0 -1.78125l3.515625 0l0 1.78125l-3.515625 0zm9.06337 5.046875l0 -3.390625q-0.359375 0.453125 -0.875 0.71875q-0.515625 0.265625 -1.125 0.265625q-1.140625 0 -1.890625 -0.875q-0.875 -1.0 -0.875 -2.734375q0 -1.625 0.8125 -2.53125q0.828125 -0.90625 2.046875 -0.90625q0.671875 0 1.15625 0.28125q0.5 0.28125 0.890625 0.859375l0 -0.984375l1.640625 0l0 9.296875l-1.78125 0zm0.046875 -6.015625q0 -1.03125 -0.421875 -1.53125q-0.421875 -0.515625 -1.046875 -0.515625q-0.65625 0 -1.09375 0.515625q-0.421875 0.515625 -0.421875 1.625q0 1.125 0.40625 1.625q0.421875 0.484375 1.046875 0.484375q0.609375 0 1.0625 -0.546875q0.46875 -0.5625 0.46875 -1.65625zm8.125732 3.453125l0 -1.015625q-0.375 0.546875 -0.984375 0.859375q-0.59375 0.3125 -1.25 0.3125q-0.6875 0 -1.234375 -0.296875q-0.53125 -0.296875 -0.78125 -0.84375q-0.234375 -0.546875 -0.234375 -1.484375l0 -4.265625l1.78125 0l0 3.09375q0 1.421875 0.09375 1.75q0.109375 0.3125 0.359375 0.5q0.265625 0.1875 0.671875 0.1875q0.453125 0 0.8125 -0.25q0.375 -0.25 0.5 -0.625q0.140625 -0.375 0.140625 -1.8125l0 -2.84375l1.78125 0l0 6.734375l-1.65625 0zm7.6101074 -2.140625l1.765625 0.296875q-0.34375 0.96875 -1.078125 1.484375q-0.734375 0.515625 -1.84375 0.515625q-1.765625 0 -2.609375 -1.15625q-0.671875 -0.921875 -0.671875 -2.3125q0 -1.6875 0.875 -2.625q0.890625 -0.953125 2.21875 -0.953125q1.515625 0 2.375 1.0q0.875 0.984375 0.828125 3.03125l-4.46875 0q0.03125 0.796875 0.4375 1.234375q0.40625 0.4375 1.03125 0.4375q0.421875 0 0.703125 -0.21875q0.28125 -0.234375 0.4375 -0.734375zm0.09375 -1.8125q-0.015625 -0.765625 -0.40625 -1.171875q-0.375 -0.40625 -0.921875 -0.40625q-0.578125 0 -0.96875 0.421875q-0.375 0.4375 -0.375 1.15625l2.671875 0zm7.8499756 3.953125l0 -1.015625q-0.375 0.546875 -0.984375 0.859375q-0.59375 0.3125 -1.25 0.3125q-0.6875 0 -1.234375 -0.296875q-0.53125 -0.296875 -0.78125 -0.84375q-0.234375 -0.546875 -0.234375 -1.484375l0 -4.265625l1.78125 0l0 3.09375q0 1.421875 0.09375 1.75q0.109375 0.3125 0.359375 0.5q0.265625 0.1875 0.671875 0.1875q0.453125 0 0.8125 -0.25q0.375 -0.25 0.5 -0.625q0.140625 -0.375 0.140625 -1.8125l0 -2.84375l1.78125 0l0 6.734375l-1.65625 0zm7.6101074 -2.140625l1.765625 0.296875q-0.34375 0.96875 -1.078125 1.484375q-0.734375 0.515625 -1.84375 0.515625q-1.765625 0 -2.609375 -1.15625q-0.671875 -0.921875 -0.671875 -2.3125q0 -1.6875 0.875 -2.625q0.890625 -0.953125 2.21875 -0.953125q1.515625 0 2.375 1.0q0.875 0.984375 0.828125 3.03125l-4.46875 0q0.03125 0.796875 0.4375 1.234375q0.40625 0.4375 1.03125 0.4375q0.421875 0 0.703125 -0.21875q0.28125 -0.234375 0.4375 -0.734375zm0.09375 -1.8125q-0.015625 -0.765625 -0.40625 -1.171875q-0.375 -0.40625 -0.921875 -0.40625q-0.578125 0 -0.96875 0.421875q-0.375 0.4375 -0.375 1.15625l2.671875 0z" fill-rule="nonzero"></path><path fill="#000000" fill-opacity="0.0" d="m204.01837 161.19423l91.1181 0l0 52.7874l-91.1181 0z" fill-rule="evenodd"></path><path fill="#000000" d="m217.3465 180.43422l-1.515625 0l0 -5.6875q-0.8125 0.765625 -1.9375 1.140625l0 -1.359375q0.59375 -0.203125 1.28125 -0.734375q0.6875 -0.546875 0.953125 -1.265625l1.21875 0l0 7.90625zm2.3952484 0l0 -1.515625l1.5 0l0 1.515625l-1.5 0zm5.515045 -2.5625l1.546875 -0.15625q0.140625 0.78125 0.5625 1.15625q0.4375 0.359375 1.15625 0.359375q0.78125 0 1.15625 -0.328125q0.390625 -0.328125 0.390625 -0.75q0 -0.28125 -0.171875 -0.46875q-0.15625 -0.203125 -0.5625 -0.359375q-0.28125 -0.09375 -1.265625 -0.34375q-1.28125 -0.3125 -1.796875 -0.78125q-0.71875 -0.640625 -0.71875 -1.578125q0 -0.59375 0.328125 -1.109375q0.34375 -0.53125 0.984375 -0.8125q0.640625 -0.28125 1.5625 -0.28125q1.46875 0 2.21875 0.65625q0.75 0.65625 0.796875 1.734375l-1.59375 0.078125q-0.109375 -0.609375 -0.4375 -0.875q-0.328125 -0.265625 -1.0 -0.265625q-0.703125 0 -1.09375 0.28125q-0.25 0.1875 -0.25 0.484375q0 0.28125 0.234375 0.484375q0.296875 0.25 1.453125 0.53125q1.171875 0.265625 1.71875 0.5625q0.5625 0.28125 0.875 0.796875q0.3125 0.5 0.3125 1.25q0 0.6875 -0.375 1.28125q-0.375 0.578125 -1.0625 0.875q-0.6875 0.28125 -1.71875 0.28125q-1.484375 0 -2.296875 -0.6875q-0.796875 -0.6875 -0.953125 -2.015625zm10.1232605 -3.140625l0 1.203125l-1.03125 0l0 2.296875q0 0.703125 0.03125 0.828125q0.03125 0.109375 0.125 0.1875q0.109375 0.0625 0.265625 0.0625q0.203125 0 0.609375 -0.140625l0.125 1.171875q-0.53125 0.21875 -1.1875 0.21875q-0.421875 0 -0.75 -0.125q-0.328125 -0.140625 -0.484375 -0.359375q-0.140625 -0.21875 -0.203125 -0.59375q-0.046875 -0.265625 -0.046875 -1.0625l0 -2.484375l-0.6875 0l0 -1.203125l0.6875 0l0 -1.140625l1.515625 -0.875l0 2.015625l1.03125 0zm2.0642395 1.734375l-1.375 -0.25q0.234375 -0.8125 0.796875 -1.203125q0.5625 -0.40625 1.671875 -0.40625q1.015625 0 1.5 0.234375q0.5 0.234375 0.703125 0.609375q0.203125 0.359375 0.203125 1.34375l-0.015625 1.765625q0 0.75 0.0625 1.109375q0.078125 0.359375 0.28125 0.765625l-1.5 0q-0.0625 -0.15625 -0.140625 -0.453125q-0.03125 -0.125 -0.046875 -0.171875q-0.390625 0.375 -0.84375 0.5625q-0.4375 0.1875 -0.9375 0.1875q-0.875 0 -1.390625 -0.46875q-0.5 -0.484375 -0.5 -1.21875q0 -0.484375 0.234375 -0.859375q0.234375 -0.375 0.640625 -0.578125q0.421875 -0.203125 1.203125 -0.359375q1.0625 -0.1875 1.46875 -0.359375l0 -0.15625q0 -0.4375 -0.21875 -0.609375q-0.21875 -0.1875 -0.8125 -0.1875q-0.390625 0 -0.625 0.15625q-0.21875 0.15625 -0.359375 0.546875zm2.015625 1.234375q-0.296875 0.09375 -0.921875 0.234375q-0.625 0.125 -0.8125 0.25q-0.296875 0.21875 -0.296875 0.53125q0 0.328125 0.234375 0.5625q0.234375 0.21875 0.59375 0.21875q0.40625 0 0.78125 -0.265625q0.28125 -0.203125 0.359375 -0.5q0.0625 -0.1875 0.0625 -0.734375l0 -0.296875zm4.2233734 2.734375l-1.515625 0l0 -5.703125l1.40625 0l0 0.8125q0.359375 -0.578125 0.640625 -0.75q0.296875 -0.1875 0.65625 -0.1875q0.515625 0 1.0 0.28125l-0.46875 1.3125q-0.375 -0.25 -0.703125 -0.25q-0.328125 0 -0.546875 0.1875q-0.21875 0.171875 -0.34375 0.625q-0.125 0.453125 -0.125 1.90625l0 1.765625zm5.318863 -5.703125l0 1.203125l-1.03125 0l0 2.296875q0 0.703125 0.03125 0.828125q0.03125 0.109375 0.125 0.1875q0.109375 0.0625 0.265625 0.0625q0.203125 0 0.609375 -0.140625l0.125 1.171875q-0.53125 0.21875 -1.1875 0.21875q-0.421875 0 -0.75 -0.125q-0.328125 -0.140625 -0.484375 -0.359375q-0.140625 -0.21875 -0.203125 -0.59375q-0.046875 -0.265625 -0.046875 -1.0625l0 -2.484375l-0.6875 0l0 -1.203125l0.6875 0l0 -1.140625l1.515625 -0.875l0 2.015625l1.03125 0z" fill-rule="nonzero"></path><path fill="#000000" d="m213.76837 187.7311l1.40625 0l0 0.84375q0.265625 -0.4375 0.734375 -0.703125q0.46875 -0.265625 1.046875 -0.265625q0.984375 0 1.671875 0.78125q0.703125 0.765625 0.703125 2.15625q0 1.4375 -0.703125 2.234375q-0.6875 0.78125 -1.6875 0.78125q-0.46875 0 -0.859375 -0.1875q-0.375 -0.1875 -0.8125 -0.640625l0 2.875l-1.5 0l0 -7.875zm1.484375 2.75q0 0.96875 0.375 1.4375q0.390625 0.453125 0.9375 0.453125q0.53125 0 0.875 -0.421875q0.359375 -0.421875 0.359375 -1.390625q0 -0.890625 -0.359375 -1.328125q-0.359375 -0.4375 -0.890625 -0.4375q-0.5625 0 -0.9375 0.4375q-0.359375 0.421875 -0.359375 1.25zm6.509262 2.953125l-1.515625 0l0 -5.703125l1.40625 0l0 0.8125q0.359375 -0.578125 0.640625 -0.75q0.296875 -0.1875 0.65625 -0.1875q0.515625 0 1.0 0.28125l-0.46875 1.3125q-0.375 -0.25 -0.703125 -0.25q-0.328125 0 -0.546875 0.1875q-0.21875 0.171875 -0.34375 0.625q-0.125 0.453125 -0.125 1.90625l0 1.765625zm2.350113 -2.9375q0 -0.75 0.375 -1.453125q0.375 -0.703125 1.046875 -1.0625q0.6875 -0.375 1.515625 -0.375q1.296875 0 2.125 0.84375q0.828125 0.828125 0.828125 2.109375q0 1.296875 -0.84375 2.15625q-0.828125 0.84375 -2.09375 0.84375q-0.78125 0 -1.5 -0.34375q-0.703125 -0.359375 -1.078125 -1.046875q-0.375 -0.6875 -0.375 -1.671875zm1.546875 0.078125q0 0.859375 0.40625 1.3125q0.40625 0.453125 1.0 0.453125q0.578125 0 0.984375 -0.453125q0.40625 -0.453125 0.40625 -1.3125q0 -0.84375 -0.40625 -1.296875q-0.40625 -0.453125 -0.984375 -0.453125q-0.59375 0 -1.0 0.453125q-0.40625 0.453125 -0.40625 1.296875zm10.290512 -1.15625l-1.484375 0.265625q-0.078125 -0.4375 -0.34375 -0.65625q-0.265625 -0.234375 -0.6875 -0.234375q-0.5625 0 -0.90625 0.390625q-0.328125 0.375 -0.328125 1.296875q0 1.015625 0.328125 1.4375q0.34375 0.421875 0.921875 0.421875q0.4375 0 0.703125 -0.25q0.28125 -0.25 0.390625 -0.84375l1.484375 0.25q-0.234375 1.03125 -0.890625 1.546875q-0.65625 0.515625 -1.75 0.515625q-1.265625 0 -2.015625 -0.78125q-0.734375 -0.796875 -0.734375 -2.1875q0 -1.421875 0.75 -2.203125q0.75 -0.78125 2.015625 -0.78125q1.046875 0 1.65625 0.453125q0.625 0.4375 0.890625 1.359375zm4.2546234 2.203125l1.5 0.25q-0.28125 0.828125 -0.90625 1.265625q-0.625 0.421875 -1.578125 0.421875q-1.484375 0 -2.203125 -0.96875q-0.5625 -0.78125 -0.5625 -1.96875q0 -1.421875 0.734375 -2.21875q0.75 -0.796875 1.890625 -0.796875q1.265625 0 2.0 0.84375q0.734375 0.828125 0.703125 2.5625l-3.78125 0q0.015625 0.671875 0.359375 1.046875q0.359375 0.375 0.875 0.375q0.359375 0 0.59375 -0.1875q0.25 -0.203125 0.375 -0.625zm0.078125 -1.53125q-0.015625 -0.65625 -0.34375 -0.984375q-0.3125 -0.34375 -0.765625 -0.34375q-0.5 0 -0.828125 0.359375q-0.3125 0.359375 -0.3125 0.96875l2.25 0zm2.0202484 1.71875l1.5 -0.234375q0.109375 0.4375 0.390625 0.671875q0.296875 0.21875 0.828125 0.21875q0.59375 0 0.890625 -0.203125q0.203125 -0.15625 0.203125 -0.40625q0 -0.171875 -0.109375 -0.28125q-0.125 -0.109375 -0.515625 -0.203125q-1.8125 -0.40625 -2.3125 -0.734375q-0.671875 -0.46875 -0.671875 -1.28125q0 -0.75 0.578125 -1.25q0.59375 -0.5 1.828125 -0.5q1.171875 0 1.734375 0.375q0.5625 0.375 0.78125 1.125l-1.421875 0.265625q-0.09375 -0.328125 -0.34375 -0.5q-0.25 -0.1875 -0.734375 -0.1875q-0.59375 0 -0.84375 0.171875q-0.171875 0.109375 -0.171875 0.296875q0 0.171875 0.140625 0.28125q0.203125 0.15625 1.40625 0.4375q1.21875 0.265625 1.6875 0.65625q0.484375 0.40625 0.484375 1.125q0 0.78125 -0.65625 1.34375q-0.65625 0.5625 -1.953125 0.5625q-1.15625 0 -1.84375 -0.46875q-0.671875 -0.46875 -0.875 -1.28125zm5.9264984 0l1.5 -0.234375q0.109375 0.4375 0.390625 0.671875q0.296875 0.21875 0.828125 0.21875q0.59375 0 0.890625 -0.203125q0.203125 -0.15625 0.203125 -0.40625q0 -0.171875 -0.109375 -0.28125q-0.125 -0.109375 -0.515625 -0.203125q-1.8125 -0.40625 -2.3125 -0.734375q-0.671875 -0.46875 -0.671875 -1.28125q0 -0.75 0.578125 -1.25q0.59375 -0.5 1.828125 -0.5q1.171875 0 1.734375 0.375q0.5625 0.375 0.78125 1.125l-1.421875 0.265625q-0.09375 -0.328125 -0.34375 -0.5q-0.25 -0.1875 -0.734375 -0.1875q-0.59375 0 -0.84375 0.171875q-0.171875 0.109375 -0.171875 0.296875q0 0.171875 0.140625 0.28125q0.203125 0.15625 1.40625 0.4375q1.21875 0.265625 1.6875 0.65625q0.484375 0.40625 0.484375 1.125q0 0.78125 -0.65625 1.34375q-0.65625 0.5625 -1.953125 0.5625q-1.15625 0 -1.84375 -0.46875q-0.671875 -0.46875 -0.875 -1.28125zm6.4577484 -4.859375l0 -1.390625l1.5000153 0l0 1.390625l-1.5000153 0zm0 6.484375l0 -5.703125l1.5000153 0l0 5.703125l-1.5000153 0zm8.148148 0l-1.515625 0l0 -2.90625q0 -0.921875 -0.09375 -1.1875q-0.09375 -0.28125 -0.3125 -0.421875q-0.21875 -0.15625 -0.53125 -0.15625q-0.390625 0 -0.703125 0.21875q-0.3125 0.203125 -0.4375 0.5625q-0.109375 0.34375 -0.109375 1.3125l0 2.578125l-1.5 0l0 -5.703125l1.40625 0l0 0.84375q0.734375 -0.96875 1.875 -0.96875q0.5 0 0.90625 0.1875q0.421875 0.171875 0.625 0.453125q0.21875 0.265625 0.296875 0.625q0.09375 0.359375 0.09375 1.015625l0 3.546875zm1.1811523 0.375l1.71875 0.203125q0.046875 0.3125 0.203125 0.421875q0.203125 0.15625 0.671875 0.15625q0.59375 0 0.890625 -0.171875q0.1875 -0.125 0.296875 -0.375q0.0625 -0.203125 0.0625 -0.703125l0 -0.828125q-0.671875 0.921875 -1.703125 0.921875q-1.140625 0 -1.8125 -0.96875q-0.53125 -0.765625 -0.53125 -1.921875q0 -1.421875 0.6875 -2.171875q0.6875 -0.765625 1.71875 -0.765625q1.0625 0 1.75 0.921875l0 -0.796875l1.40625 0l0 5.125q0 1.0 -0.171875 1.5q-0.15625 0.5 -0.46875 0.78125q-0.296875 0.296875 -0.796875 0.453125q-0.5 0.15625 -1.265625 0.15625q-1.453125 0 -2.0625 -0.5q-0.609375 -0.484375 -0.609375 -1.25q0 -0.078125 0.015625 -0.1875zm1.34375 -3.34375q0 0.90625 0.34375 1.328125q0.359375 0.421875 0.875 0.421875q0.546875 0 0.921875 -0.421875q0.390625 -0.4375 0.390625 -1.296875q0 -0.875 -0.375 -1.296875q-0.359375 -0.4375 -0.90625 -0.4375q-0.546875 0 -0.90625 0.421875q-0.34375 0.421875 -0.34375 1.28125z" fill-rule="nonzero"></path><path fill="#000000" d="m213.69025 200.7311l1.390625 0l0 0.78125q0.75 -0.90625 1.78125 -0.90625q0.546875 0 0.953125 0.234375q0.40625 0.21875 0.65625 0.671875q0.375 -0.453125 0.8125 -0.671875q0.4375 -0.234375 0.9375 -0.234375q0.625 0 1.0625 0.25q0.4375 0.25 0.640625 0.75q0.15625 0.359375 0.15625 1.1875l0 3.640625l-1.5 0l0 -3.265625q0 -0.84375 -0.15625 -1.09375q-0.21875 -0.3125 -0.65625 -0.3125q-0.3125 0 -0.59375 0.1875q-0.28125 0.1875 -0.40625 0.5625q-0.109375 0.375 -0.109375 1.1875l0 2.734375l-1.515625 0l0 -3.125q0 -0.828125 -0.078125 -1.0625q-0.078125 -0.25 -0.25 -0.359375q-0.171875 -0.125 -0.46875 -0.125q-0.34375 0 -0.625 0.1875q-0.28125 0.1875 -0.40625 0.546875q-0.109375 0.34375 -0.109375 1.171875l0 2.765625l-1.515625 0l0 -5.703125zm12.896988 3.890625l1.5 0.25q-0.28125 0.828125 -0.90625 1.265625q-0.625 0.421875 -1.578125 0.421875q-1.484375 0 -2.203125 -0.96875q-0.5625 -0.78125 -0.5625 -1.96875q0 -1.421875 0.734375 -2.21875q0.75 -0.796875 1.890625 -0.796875q1.265625 0 2.0 0.84375q0.734375 0.828125 0.703125 2.5625l-3.78125 0q0.015625 0.671875 0.359375 1.046875q0.359375 0.375 0.875 0.375q0.359375 0 0.59375 -0.1875q0.25 -0.203125 0.375 -0.625zm0.078125 -1.53125q-0.015625 -0.65625 -0.34375 -0.984375q-0.3125 -0.34375 -0.765625 -0.34375q-0.5 0 -0.828125 0.359375q-0.3125 0.359375 -0.3125 0.96875l2.25 0zm2.0202484 1.71875l1.5 -0.234375q0.109375 0.4375 0.390625 0.671875q0.296875 0.21875 0.828125 0.21875q0.59375 0 0.890625 -0.203125q0.203125 -0.15625 0.203125 -0.40625q0 -0.171875 -0.109375 -0.28125q-0.125 -0.109375 -0.515625 -0.203125q-1.8125 -0.40625 -2.3125 -0.734375q-0.671875 -0.46875 -0.671875 -1.28125q0 -0.75 0.578125 -1.25q0.59375 -0.5 1.828125 -0.5q1.171875 0 1.734375 0.375q0.5625 0.375 0.78125 1.125l-1.421875 0.265625q-0.09375 -0.328125 -0.34375 -0.5q-0.25 -0.1875 -0.734375 -0.1875q-0.59375 0 -0.84375 0.171875q-0.171875 0.109375 -0.171875 0.296875q0 0.171875 0.140625 0.28125q0.203125 0.15625 1.40625 0.4375q1.21875 0.265625 1.6875 0.65625q0.484375 0.40625 0.484375 1.125q0 0.78125 -0.65625 1.34375q-0.65625 0.5625 -1.953125 0.5625q-1.15625 0 -1.84375 -0.46875q-0.671875 -0.46875 -0.875 -1.28125zm5.9264984 0l1.5 -0.234375q0.109375 0.4375 0.390625 0.671875q0.296875 0.21875 0.828125 0.21875q0.59375 0 0.890625 -0.203125q0.203125 -0.15625 0.203125 -0.40625q0 -0.171875 -0.109375 -0.28125q-0.125 -0.109375 -0.515625 -0.203125q-1.8125 -0.40625 -2.3125 -0.734375q-0.671875 -0.46875 -0.671875 -1.28125q0 -0.75 0.578125 -1.25q0.59375 -0.5 1.828125 -0.5q1.171875 0 1.734375 0.375q0.5625 0.375 0.78125 1.125l-1.421875 0.265625q-0.09375 -0.328125 -0.34375 -0.5q-0.25 -0.1875 -0.734375 -0.1875q-0.59375 0 -0.84375 0.171875q-0.171875 0.109375 -0.171875 0.296875q0 0.171875 0.140625 0.28125q0.203125 0.15625 1.40625 0.4375q1.21875 0.265625 1.6875 0.65625q0.484375 0.40625 0.484375 1.125q0 0.78125 -0.65625 1.34375q-0.65625 0.5625 -1.953125 0.5625q-1.15625 0 -1.84375 -0.46875q-0.671875 -0.46875 -0.875 -1.28125zm7.5827484 -2.34375l-1.375 -0.25q0.234375 -0.8125 0.796875 -1.203125q0.5625 -0.40625 1.671875 -0.40625q1.015625 0 1.5 0.234375q0.5 0.234375 0.703125 0.609375q0.203125 0.359375 0.203125 1.34375l-0.015625 1.765625q0 0.75 0.0625 1.109375q0.078125 0.359375 0.28125 0.765625l-1.5 0q-0.0625 -0.15625 -0.140625 -0.453125q-0.03125 -0.125 -0.046875 -0.171875q-0.390625 0.375 -0.84375 0.5625q-0.4375 0.1875 -0.9375 0.1875q-0.875 0 -1.390625 -0.46875q-0.5 -0.484375 -0.5 -1.21875q0 -0.484375 0.234375 -0.859375q0.234375 -0.375 0.640625 -0.578125q0.421875 -0.203125 1.203125 -0.359375q1.0625 -0.1875 1.46875 -0.359375l0 -0.15625q0 -0.4375 -0.21875 -0.609375q-0.21875 -0.1875 -0.8125 -0.1875q-0.390625 0 -0.625 0.15625q-0.21875 0.15625 -0.359375 0.546875zm2.015625 1.234375q-0.296875 0.09375 -0.921875 0.234375q-0.625 0.125 -0.8125 0.25q-0.296875 0.21875 -0.296875 0.53125q0 0.328125 0.234375 0.5625q0.234375 0.21875 0.59375 0.21875q0.40625 0 0.78125 -0.265625q0.28125 -0.203125 0.359375 -0.5q0.0625 -0.1875 0.0625 -0.734375l0 -0.296875zm2.6452484 3.109375l1.71875 0.203125q0.046875 0.3125 0.203125 0.421875q0.203125 0.15625 0.671875 0.15625q0.59375 0 0.890625 -0.171875q0.1875 -0.125 0.296875 -0.375q0.0625 -0.203125 0.0625 -0.703125l0 -0.828125q-0.671875 0.921875 -1.703125 0.921875q-1.140625 0 -1.8125 -0.96875q-0.53125 -0.765625 -0.53125 -1.921875q0 -1.421875 0.6875 -2.171875q0.6875 -0.765625 1.71875 -0.765625q1.0625 0 1.75 0.921875l0 -0.796875l1.40625 0l0 5.125q0 1.0 -0.171875 1.5q-0.15625 0.5 -0.46875 0.78125q-0.296875 0.296875 -0.796875 0.453125q-0.5 0.15625 -1.265625 0.15625q-1.453125 0 -2.0625 -0.5q-0.609375 -0.484375 -0.609375 -1.25q0 -0.078125 0.015625 -0.1875zm1.34375 -3.34375q0 0.90625 0.34375 1.328125q0.359375 0.421875 0.875 0.421875q0.546875 0 0.921875 -0.421875q0.390625 -0.4375 0.390625 -1.296875q0 -0.875 -0.375 -1.296875q-0.359375 -0.4375 -0.90625 -0.4375q-0.546875 0 -0.90625 0.421875q-0.34375 0.421875 -0.34375 1.28125zm8.603012 1.15625l1.5 0.25q-0.28125 0.828125 -0.90625 1.265625q-0.625 0.421875 -1.578125 0.421875q-1.484375 0 -2.203125 -0.96875q-0.5625 -0.78125 -0.5625 -1.96875q0 -1.421875 0.734375 -2.21875q0.75 -0.796875 1.890625 -0.796875q1.265625 0 2.0 0.84375q0.734375 0.828125 0.703125 2.5625l-3.78125 0q0.015625 0.671875 0.359375 1.046875q0.359375 0.375 0.875 0.375q0.359375 0 0.59375 -0.1875q0.25 -0.203125 0.375 -0.625zm0.078125 -1.53125q-0.015625 -0.65625 -0.34375 -0.984375q-0.3125 -0.34375 -0.765625 -0.34375q-0.5 0 -0.828125 0.359375q-0.3125 0.359375 -0.3125 0.96875l2.25 0z" fill-rule="nonzero"></path><path fill="#000000" fill-opacity="0.0" d="m294.55905 9.251968l364.9764 0l0 44.377953l-364.9764 0z" fill-rule="evenodd"></path><path fill="#000000" d="m396.54803 36.171967l0 -13.59375l5.78125 0q2.1875 0 3.171875 0.359375q0.984375 0.359375 1.578125 1.296875q0.59375 0.9375 0.59375 2.15625q0 1.53125 -0.90625 2.53125q-0.890625 0.984375 -2.6875 1.25q0.890625 0.515625 1.46875 1.140625q0.578125 0.625 1.5625 2.203125l1.671875 2.65625l-3.296875 0l-1.984375 -2.953125q-1.046875 -1.59375 -1.4375 -2.0q-0.390625 -0.421875 -0.828125 -0.5625q-0.4375 -0.15625 -1.390625 -0.15625l-0.546875 0l0 5.671875l-2.75 0zm2.75 -7.84375l2.03125 0q1.96875 0 2.453125 -0.171875q0.5 -0.171875 0.78125 -0.578125q0.28125 -0.40625 0.28125 -1.015625q0 -0.6875 -0.375 -1.109375q-0.359375 -0.421875 -1.03125 -0.53125q-0.328125 -0.046875 -2.0 -0.046875l-2.140625 0l0 3.453125zm17.176086 7.84375l0 -1.46875q-0.53125 0.78125 -1.40625 1.234375q-0.875 0.453125 -1.859375 0.453125q-0.984375 0 -1.78125 -0.4375q-0.78125 -0.4375 -1.140625 -1.21875q-0.34375 -0.796875 -0.34375 -2.1875l0 -6.234375l2.609375 0l0 4.53125q0 2.078125 0.140625 2.546875q0.140625 0.46875 0.515625 0.75q0.390625 0.265625 0.96875 0.265625q0.671875 0 1.203125 -0.359375q0.53125 -0.375 0.71875 -0.90625q0.1875 -0.546875 0.1875 -2.671875l0 -4.15625l2.609375 0l0 9.859375l-2.421875 0zm13.880341 0l-2.609375 0l0 -5.03125q0 -1.59375 -0.171875 -2.0625q-0.15625 -0.46875 -0.53125 -0.71875q-0.375 -0.265625 -0.90625 -0.265625q-0.6875 0 -1.234375 0.375q-0.53125 0.359375 -0.734375 0.984375q-0.1875 0.609375 -0.1875 2.25l0 4.46875l-2.609375 0l0 -9.859375l2.421875 0l0 1.453125q1.296875 -1.671875 3.25 -1.671875q0.859375 0 1.578125 0.3125q0.71875 0.3125 1.078125 0.796875q0.359375 0.484375 0.5 1.09375q0.15625 0.609375 0.15625 1.75l0 6.125zm6.942871 -9.859375l0 2.078125l-1.78125 0l0 3.984375q0 1.203125 0.046875 1.40625q0.0625 0.1875 0.234375 0.328125q0.1875 0.125 0.453125 0.125q0.359375 0 1.046875 -0.25l0.21875 2.015625q-0.90625 0.390625 -2.0625 0.390625q-0.703125 0 -1.265625 -0.234375q-0.5625 -0.234375 -0.828125 -0.609375q-0.265625 -0.375 -0.375 -1.015625q-0.078125 -0.453125 -0.078125 -1.84375l0 -4.296875l-1.203125 0l0 -2.078125l1.203125 0l0 -1.953125l2.609375 -1.515625l0 3.46875l1.78125 0zm1.697052 -1.328125l0 -2.40625l2.609375 0l0 2.40625l-2.609375 0zm0 11.1875l0 -9.859375l2.609375 0l0 9.859375l-2.609375 0zm4.9957886 -9.859375l2.40625 0l0 1.359375q1.28125 -1.578125 3.0625 -1.578125q0.953125 0 1.640625 0.390625q0.703125 0.390625 1.140625 1.1875q0.65625 -0.796875 1.40625 -1.1875q0.75 -0.390625 1.609375 -0.390625q1.078125 0 1.828125 0.453125q0.75 0.4375 1.125 1.28125q0.265625 0.640625 0.265625 2.046875l0 6.296875l-2.609375 0l0 -5.625q0 -1.46875 -0.265625 -1.90625q-0.359375 -0.546875 -1.109375 -0.546875q-0.546875 0 -1.03125 0.34375q-0.484375 0.328125 -0.703125 0.96875q-0.203125 0.640625 -0.203125 2.03125l0 4.734375l-2.609375 0l0 -5.40625q0 -1.4375 -0.140625 -1.84375q-0.140625 -0.421875 -0.4375 -0.625q-0.28125 -0.203125 -0.78125 -0.203125q-0.609375 0 -1.09375 0.328125q-0.484375 0.3125 -0.6875 0.9375q-0.203125 0.609375 -0.203125 2.03125l0 4.78125l-2.609375 0l0 -9.859375zm22.479034 6.71875l2.609375 0.4375q-0.5 1.4375 -1.59375 2.1875q-1.078125 0.734375 -2.703125 0.734375q-2.5625 0 -3.796875 -1.671875q-0.96875 -1.34375 -0.96875 -3.40625q0 -2.4375 1.265625 -3.828125q1.28125 -1.390625 3.25 -1.390625q2.1875 0 3.453125 1.453125q1.28125 1.453125 1.234375 4.453125l-6.53125 0q0.015625 1.15625 0.625 1.8125q0.609375 0.640625 1.5 0.640625q0.609375 0 1.03125 -0.328125q0.421875 -0.34375 0.625 -1.09375zm0.15625 -2.625q-0.03125 -1.140625 -0.59375 -1.71875q-0.546875 -0.59375 -1.34375 -0.59375q-0.859375 0 -1.40625 0.625q-0.5625 0.609375 -0.546875 1.6875l3.890625 0zm4.531952 5.765625l0 -13.59375l10.09375 0l0 2.296875l-7.34375 0l0 3.015625l6.828125 0l0 2.28125l-6.828125 0l0 3.703125l7.609375 0l0 2.296875l-10.359375 0zm11.177948 0l3.5625 -5.078125l-3.40625 -4.78125l3.171875 0l1.75 2.71875l1.828125 -2.71875l3.0625 0l-3.328125 4.671875l3.640625 5.1875l-3.203125 0l-2.0 -3.046875l-2.03125 3.046875l-3.046875 0zm20.219482 -6.9375l-2.5625 0.46875q-0.140625 -0.78125 -0.59375 -1.171875q-0.453125 -0.390625 -1.1875 -0.390625q-0.984375 0 -1.5625 0.671875q-0.578125 0.671875 -0.578125 2.25q0 1.765625 0.578125 2.484375q0.59375 0.71875 1.59375 0.71875q0.75 0 1.21875 -0.421875q0.46875 -0.421875 0.671875 -1.453125l2.546875 0.4375q-0.390625 1.765625 -1.53125 2.671875q-1.125 0.890625 -3.03125 0.890625q-2.15625 0 -3.453125 -1.359375q-1.28125 -1.359375 -1.28125 -3.78125q0 -2.4375 1.296875 -3.796875q1.296875 -1.359375 3.484375 -1.359375q1.796875 0 2.859375 0.78125q1.0625 0.765625 1.53125 2.359375zm7.485077 3.796875l2.609375 0.4375q-0.5 1.4375 -1.59375 2.1875q-1.078125 0.734375 -2.703125 0.734375q-2.5625 0 -3.796875 -1.671875q-0.96875 -1.34375 -0.96875 -3.40625q0 -2.4375 1.265625 -3.828125q1.28125 -1.390625 3.25 -1.390625q2.1875 0 3.453125 1.453125q1.28125 1.453125 1.234375 4.453125l-6.53125 0q0.015625 1.15625 0.625 1.8125q0.609375 0.640625 1.5 0.640625q0.609375 0 1.03125 -0.328125q0.421875 -0.34375 0.625 -1.09375zm0.15625 -2.625q-0.03125 -1.140625 -0.59375 -1.71875q-0.546875 -0.59375 -1.34375 -0.59375q-0.859375 0 -1.40625 0.625q-0.5625 0.609375 -0.546875 1.6875l3.890625 0zm4.4538574 -4.09375l2.421875 0l0 1.453125q0.46875 -0.734375 1.28125 -1.203125q0.8125 -0.46875 1.796875 -0.46875q1.703125 0 2.90625 1.34375q1.203125 1.34375 1.203125 3.75q0 2.46875 -1.21875 3.84375q-1.203125 1.359375 -2.921875 1.359375q-0.8125 0 -1.484375 -0.3125q-0.65625 -0.328125 -1.390625 -1.125l0 4.96875l-2.59375 0l0 -13.609375zm2.578125 4.765625q0 1.65625 0.65625 2.453125q0.65625 0.796875 1.59375 0.796875q0.921875 0 1.515625 -0.71875q0.609375 -0.734375 0.609375 -2.40625q0 -1.546875 -0.625 -2.296875q-0.625 -0.75 -1.53125 -0.75q-0.96875 0 -1.59375 0.734375q-0.625 0.734375 -0.625 2.1875zm13.395996 -4.765625l0 2.078125l-1.78125 0l0 3.984375q0 1.203125 0.046875 1.40625q0.0625 0.1875 0.234375 0.328125q0.1875 0.125 0.453125 0.125q0.359375 0 1.046875 -0.25l0.21875 2.015625q-0.90625 0.390625 -2.0625 0.390625q-0.703125 0 -1.265625 -0.234375q-0.5625 -0.234375 -0.828125 -0.609375q-0.265625 -0.375 -0.375 -1.015625q-0.078125 -0.453125 -0.078125 -1.84375l0 -4.296875l-1.203125 0l0 -2.078125l1.203125 0l0 -1.953125l2.609375 -1.515625l0 3.46875l1.78125 0zm1.6970215 -1.328125l0 -2.40625l2.609375 0l0 2.40625l-2.609375 0zm0 11.1875l0 -9.859375l2.609375 0l0 9.859375l-2.609375 0zm4.5895996 -5.0625q0 -1.296875 0.640625 -2.515625q0.640625 -1.21875 1.8125 -1.859375q1.171875 -0.640625 2.609375 -0.640625q2.25 0 3.671875 1.453125q1.421875 1.453125 1.421875 3.671875q0 2.234375 -1.4375 3.703125q-1.4375 1.46875 -3.625 1.46875q-1.359375 0 -2.59375 -0.609375q-1.21875 -0.609375 -1.859375 -1.796875q-0.640625 -1.1875 -0.640625 -2.875zm2.671875 0.140625q0 1.46875 0.6875 2.25q0.703125 0.765625 1.71875 0.765625q1.015625 0 1.703125 -0.765625q0.703125 -0.78125 0.703125 -2.265625q0 -1.453125 -0.703125 -2.234375q-0.6875 -0.78125 -1.703125 -0.78125q-1.015625 0 -1.71875 0.78125q-0.6875 0.78125 -0.6875 2.25zm18.28656 4.921875l-2.609375 0l0 -5.03125q0 -1.59375 -0.171875 -2.0625q-0.15625 -0.46875 -0.53125 -0.71875q-0.375 -0.265625 -0.90625 -0.265625q-0.6875 0 -1.234375 0.375q-0.53125 0.359375 -0.734375 0.984375q-0.1875 0.609375 -0.1875 2.25l0 4.46875l-2.609375 0l0 -9.859375l2.421875 0l0 1.453125q1.296875 -1.671875 3.25 -1.671875q0.859375 0 1.578125 0.3125q0.71875 0.3125 1.078125 0.796875q0.359375 0.484375 0.5 1.09375q0.15625 0.609375 0.15625 1.75l0 6.125z" fill-rule="nonzero"></path><path fill="#cfe2f3" d="m361.0315 177.19174l0 0c0 -4.0849457 3.3115234 -7.396469 7.3964844 -7.396469l217.23853 0c1.9616699 0 3.8430176 0.77926636 5.2301025 2.1663818c1.387146 1.3871002 2.1663818 3.2684326 2.1663818 5.2300873l0 29.585007c0 4.084961 -3.3115234 7.3964844 -7.3964844 7.3964844l-217.23853 0l0 0c-4.084961 0 -7.3964844 -3.3115234 -7.3964844 -7.3964844z" fill-rule="evenodd"></path><path stroke="#000000" stroke-width="1.0" stroke-linejoin="round" stroke-linecap="butt" stroke-dasharray="4.0,3.0" d="m361.0315 177.19174l0 0c0 -4.0849457 3.3115234 -7.396469 7.3964844 -7.396469l217.23853 0c1.9616699 0 3.8430176 0.77926636 5.2301025 2.1663818c1.387146 1.3871002 2.1663818 3.2684326 2.1663818 5.2300873l0 29.585007c0 4.084961 -3.3115234 7.3964844 -7.3964844 7.3964844l-217.23853 0l0 0c-4.084961 0 -7.3964844 -3.3115234 -7.3964844 -7.3964844z" fill-rule="evenodd"></path><path fill="#000000" d="m405.6303 194.31801l0 1.40625l-5.28125 0q0.078125 -0.796875 0.5 -1.5q0.4375 -0.71875 1.703125 -1.890625q1.015625 -0.953125 1.25 -1.296875q0.3125 -0.46875 0.3125 -0.921875q0 -0.5 -0.28125 -0.765625q-0.265625 -0.28125 -0.734375 -0.28125q-0.46875 0 -0.75 0.296875q-0.28125 0.28125 -0.328125 0.9375l-1.5 -0.15625q0.125 -1.25 0.828125 -1.78125q0.71875 -0.546875 1.78125 -0.546875q1.171875 0 1.828125 0.625q0.671875 0.625 0.671875 1.5625q0 0.53125 -0.1875 1.015625q-0.1875 0.484375 -0.609375 1.0q-0.265625 0.359375 -0.984375 1.015625q-0.71875 0.65625 -0.90625 0.875q-0.1875 0.203125 -0.3125 0.40625l3.0 0zm1.1608582 1.40625l0 -1.515625l1.5 0l0 1.515625l-1.5 0zm5.93692 0l0 -7.875l3.34375 0q1.265625 0 1.828125 0.21875q0.578125 0.203125 0.921875 0.75q0.34375 0.546875 0.34375 1.234375q0 0.890625 -0.53125 1.46875q-0.515625 0.578125 -1.546875 0.734375q0.515625 0.296875 0.84375 0.65625q0.34375 0.359375 0.90625 1.28125l0.96875 1.53125l-1.90625 0l-1.15625 -1.71875q-0.609375 -0.90625 -0.84375 -1.140625q-0.21875 -0.25 -0.46875 -0.328125q-0.25 -0.09375 -0.796875 -0.09375l-0.328125 0l0 3.28125l-1.578125 0zm1.578125 -4.546875l1.1875 0q1.140625 0 1.421875 -0.09375q0.28125 -0.09375 0.4375 -0.328125q0.171875 -0.234375 0.171875 -0.59375q0 -0.40625 -0.21875 -0.640625q-0.203125 -0.25 -0.59375 -0.3125q-0.1875 -0.03125 -1.15625 -0.03125l-1.25 0l0 2.0zm9.851868 4.546875l0 -0.859375q-0.3125 0.46875 -0.828125 0.734375q-0.5 0.25 -1.0625 0.25q-0.578125 0 -1.03125 -0.25q-0.453125 -0.25 -0.671875 -0.703125q-0.203125 -0.46875 -0.203125 -1.265625l0 -3.609375l1.515625 0l0 2.625q0 1.203125 0.078125 1.46875q0.09375 0.265625 0.3125 0.4375q0.21875 0.15625 0.5625 0.15625q0.375 0 0.6875 -0.203125q0.3125 -0.21875 0.421875 -0.53125q0.109375 -0.328125 0.109375 -1.546875l0 -2.40625l1.515625 0l0 5.703125l-1.40625 0zm7.946747 0l-1.515625 0l0 -2.90625q0 -0.921875 -0.09375 -1.1875q-0.09375 -0.28125 -0.3125 -0.421875q-0.21875 -0.15625 -0.53125 -0.15625q-0.390625 0 -0.703125 0.21875q-0.3125 0.203125 -0.4375 0.5625q-0.109375 0.34375 -0.109375 1.3125l0 2.578125l-1.5 0l0 -5.703125l1.40625 0l0 0.84375q0.734375 -0.96875 1.875 -0.96875q0.5 0 0.90625 0.1875q0.421875 0.171875 0.625 0.453125q0.21875 0.265625 0.296875 0.625q0.09375 0.359375 0.09375 1.015625l0 3.546875zm3.9311523 -5.703125l0 1.203125l-1.03125 0l0 2.296875q0 0.703125 0.03125 0.828125q0.03125 0.109375 0.125 0.1875q0.109375 0.0625 0.265625 0.0625q0.203125 0 0.609375 -0.140625l0.125 1.171875q-0.53125 0.21875 -1.1875 0.21875q-0.421875 0 -0.75 -0.125q-0.328125 -0.140625 -0.484375 -0.359375q-0.140625 -0.21875 -0.203125 -0.59375q-0.046875 -0.265625 -0.046875 -1.0625l0 -2.484375l-0.6875 0l0 -1.203125l0.6875 0l0 -1.140625l1.515625 -0.875l0 2.015625l1.03125 0zm0.9392395 -0.78125l0 -1.390625l1.5 0l0 1.390625l-1.5 0zm0 6.484375l0 -5.703125l1.5 0l0 5.703125l-1.5 0zm2.8356323 -5.703125l1.390625 0l0 0.78125q0.75 -0.90625 1.78125 -0.90625q0.546875 0 0.953125 0.234375q0.40625 0.21875 0.65625 0.671875q0.375 -0.453125 0.8125 -0.671875q0.4375 -0.234375 0.9375 -0.234375q0.625 0 1.0625 0.25q0.4375 0.25 0.640625 0.75q0.15625 0.359375 0.15625 1.1875l0 3.640625l-1.5 0l0 -3.265625q0 -0.84375 -0.15625 -1.09375q-0.21875 -0.3125 -0.65625 -0.3125q-0.3125 0 -0.59375 0.1875q-0.28125 0.1875 -0.40625 0.5625q-0.109375 0.375 -0.109375 1.1875l0 2.734375l-1.515625 0l0 -3.125q0 -0.828125 -0.078125 -1.0625q-0.078125 -0.25 -0.25 -0.359375q-0.171875 -0.125 -0.46875 -0.125q-0.34375 0 -0.625 0.1875q-0.28125 0.1875 -0.40625 0.546875q-0.109375 0.34375 -0.109375 1.171875l0 2.765625l-1.515625 0l0 -5.703125zm12.897003 3.890625l1.5 0.25q-0.28125 0.828125 -0.90625 1.265625q-0.625 0.421875 -1.578125 0.421875q-1.484375 0 -2.203125 -0.96875q-0.5625 -0.78125 -0.5625 -1.96875q0 -1.421875 0.734375 -2.21875q0.75 -0.796875 1.890625 -0.796875q1.265625 0 2.0 0.84375q0.734375 0.828125 0.703125 2.5625l-3.78125 0q0.015625 0.671875 0.359375 1.046875q0.359375 0.375 0.875 0.375q0.359375 0 0.59375 -0.1875q0.25 -0.203125 0.375 -0.625zm0.078125 -1.53125q-0.015625 -0.65625 -0.34375 -0.984375q-0.3125 -0.34375 -0.765625 -0.34375q-0.5 0 -0.828125 0.359375q-0.3125 0.359375 -0.3125 0.96875l2.25 0zm8.809021 1.53125l1.5 0.25q-0.28125 0.828125 -0.90625 1.265625q-0.625 0.421875 -1.578125 0.421875q-1.484375 0 -2.203125 -0.96875q-0.5625 -0.78125 -0.5625 -1.96875q0 -1.421875 0.734375 -2.21875q0.75 -0.796875 1.890625 -0.796875q1.265625 0 2.0 0.84375q0.734375 0.828125 0.703125 2.5625l-3.78125 0q0.015625 0.671875 0.359375 1.046875q0.359375 0.375 0.875 0.375q0.359375 0 0.59375 -0.1875q0.25 -0.203125 0.375 -0.625zm0.078125 -1.53125q-0.015625 -0.65625 -0.34375 -0.984375q-0.3125 -0.34375 -0.765625 -0.34375q-0.5 0 -0.828125 0.359375q-0.3125 0.359375 -0.3125 0.96875l2.25 0zm1.8171082 3.34375l2.0625 -2.9375l-1.96875 -2.765625l1.84375 0l1.0 1.5625l1.0625 -1.5625l1.78125 0l-1.9375 2.703125l2.109375 3.0l-1.859375 0l-1.15625 -1.765625l-1.171875 1.765625l-1.765625 0zm11.629639 -4.015625l-1.484375 0.265625q-0.078125 -0.4375 -0.34375 -0.65625q-0.265625 -0.234375 -0.6875 -0.234375q-0.5625 0 -0.90625 0.390625q-0.328125 0.375 -0.328125 1.296875q0 1.015625 0.328125 1.4375q0.34375 0.421875 0.921875 0.421875q0.4375 0 0.703125 -0.25q0.28125 -0.25 0.390625 -0.84375l1.484375 0.25q-0.234375 1.03125 -0.890625 1.546875q-0.65625 0.515625 -1.75 0.515625q-1.265625 0 -2.015625 -0.78125q-0.734375 -0.796875 -0.734375 -2.1875q0 -1.421875 0.75 -2.203125q0.75 -0.78125 2.015625 -0.78125q1.046875 0 1.65625 0.453125q0.625 0.4375 0.890625 1.359375zm4.254608 2.203125l1.5 0.25q-0.28125 0.828125 -0.90625 1.265625q-0.625 0.421875 -1.578125 0.421875q-1.484375 0 -2.203125 -0.96875q-0.5625 -0.78125 -0.5625 -1.96875q0 -1.421875 0.734375 -2.21875q0.75 -0.796875 1.890625 -0.796875q1.265625 0 2.0 0.84375q0.734375 0.828125 0.703125 2.5625l-3.78125 0q0.015625 0.671875 0.359375 1.046875q0.359375 0.375 0.875 0.375q0.359375 0 0.59375 -0.1875q0.25 -0.203125 0.375 -0.625zm0.078125 -1.53125q-0.015625 -0.65625 -0.34375 -0.984375q-0.3125 -0.34375 -0.765625 -0.34375q-0.5 0 -0.828125 0.359375q-0.3125 0.359375 -0.3125 0.96875l2.25 0zm2.5046387 -2.359375l1.40625 0l0 0.84375q0.265625 -0.4375 0.734375 -0.703125q0.46875 -0.265625 1.046875 -0.265625q0.984375 0 1.671875 0.78125q0.703125 0.765625 0.703125 2.15625q0 1.4375 -0.703125 2.234375q-0.6875 0.78125 -1.6875 0.78125q-0.46875 0 -0.859375 -0.1875q-0.375 -0.1875 -0.8125 -0.640625l0 2.875l-1.5 0l0 -7.875zm1.484375 2.75q0 0.96875 0.375 1.4375q0.390625 0.453125 0.9375 0.453125q0.53125 0 0.875 -0.421875q0.359375 -0.421875 0.359375 -1.390625q0 -0.890625 -0.359375 -1.328125q-0.359375 -0.4375 -0.890625 -0.4375q-0.5625 0 -0.9375 0.4375q-0.359375 0.421875 -0.359375 1.25zm7.681122 -2.75l0 1.203125l-1.03125 0l0 2.296875q0 0.703125 0.03125 0.828125q0.03125 0.109375 0.125 0.1875q0.109375 0.0625 0.265625 0.0625q0.203125 0 0.609375 -0.140625l0.125 1.171875q-0.53125 0.21875 -1.1875 0.21875q-0.421875 0 -0.75 -0.125q-0.328125 -0.140625 -0.484375 -0.359375q-0.140625 -0.21875 -0.203125 -0.59375q-0.046875 -0.265625 -0.046875 -1.0625l0 -2.484375l-0.6875 0l0 -1.203125l0.6875 0l0 -1.140625l1.515625 -0.875l0 2.015625l1.03125 0zm0.9392395 -0.78125l0 -1.390625l1.5 0l0 1.390625l-1.5 0zm0 6.484375l0 -5.703125l1.5 0l0 5.703125l-1.5 0zm2.6012878 -2.9375q0 -0.75 0.375 -1.453125q0.375 -0.703125 1.046875 -1.0625q0.6875 -0.375 1.515625 -0.375q1.296875 0 2.125 0.84375q0.828125 0.828125 0.828125 2.109375q0 1.296875 -0.84375 2.15625q-0.828125 0.84375 -2.09375 0.84375q-0.78125 0 -1.5 -0.34375q-0.703125 -0.359375 -1.078125 -1.046875q-0.375 -0.6875 -0.375 -1.671875zm1.546875 0.078125q0 0.859375 0.40625 1.3125q0.40625 0.453125 1.0 0.453125q0.578125 0 0.984375 -0.453125q0.40625 -0.453125 0.40625 -1.3125q0 -0.84375 -0.40625 -1.296875q-0.40625 -0.453125 -0.984375 -0.453125q-0.59375 0 -1.0 0.453125q-0.40625 0.453125 -0.40625 1.296875zm10.509247 2.859375l-1.515625 0l0 -2.90625q0 -0.921875 -0.09375 -1.1875q-0.09375 -0.28125 -0.3125 -0.421875q-0.21875 -0.15625 -0.53125 -0.15625q-0.390625 0 -0.703125 0.21875q-0.3125 0.203125 -0.4375 0.5625q-0.109375 0.34375 -0.109375 1.3125l0 2.578125l-1.5 0l0 -5.703125l1.40625 0l0 0.84375q0.734375 -0.96875 1.875 -0.96875q0.5 0 0.90625 0.1875q0.421875 0.171875 0.625 0.453125q0.21875 0.265625 0.296875 0.625q0.09375 0.359375 0.09375 1.015625l0 3.546875zm9.50119 0l-1.390625 0l0 -0.84375q-0.359375 0.5 -0.84375 0.734375q-0.46875 0.234375 -0.9375 0.234375q-0.984375 0 -1.6875305 -0.78125q-0.703125 -0.796875 -0.703125 -2.21875q0 -1.453125 0.671875 -2.203125q0.6875305 -0.75 1.7344055 -0.75q0.953125 0 1.65625 0.796875l0 -2.84375l1.5 0l0 7.875zm-4.015625 -2.96875q0 0.90625 0.25 1.3125q0.359375 0.59375 1.015625 0.59375q0.515625 0 0.875 -0.4375q0.375 -0.453125 0.375 -1.328125q0 -0.984375 -0.359375 -1.40625q-0.34375 -0.4375 -0.90625 -0.4375q-0.53125 0 -0.890625 0.421875q-0.359375 0.421875 -0.359375 1.28125zm8.603027 1.15625l1.5 0.25q-0.28125 0.828125 -0.90625 1.265625q-0.625 0.421875 -1.578125 0.421875q-1.484375 0 -2.203125 -0.96875q-0.5625 -0.78125 -0.5625 -1.96875q0 -1.421875 0.734375 -2.21875q0.75 -0.796875 1.890625 -0.796875q1.265625 0 2.0 0.84375q0.734375 0.828125 0.703125 2.5625l-3.78125 0q0.015625 0.671875 0.359375 1.046875q0.359375 0.375 0.875 0.375q0.359375 0 0.59375 -0.1875q0.25 -0.203125 0.375 -0.625zm0.078125 -1.53125q-0.015625 -0.65625 -0.34375 -0.984375q-0.3125 -0.34375 -0.765625 -0.34375q-0.5 0 -0.828125 0.359375q-0.3125 0.359375 -0.3125 0.96875l2.25 0zm5.1608276 -2.359375l0 1.203125l-1.03125 0l0 2.296875q0 0.703125 0.03125 0.828125q0.03125 0.109375 0.125 0.1875q0.109375 0.0625 0.265625 0.0625q0.203125 0 0.609375 -0.140625l0.125 1.171875q-0.53125 0.21875 -1.1875 0.21875q-0.421875 0 -0.75 -0.125q-0.328125 -0.140625 -0.484375 -0.359375q-0.140625 -0.21875 -0.203125 -0.59375q-0.046875 -0.265625 -0.046875 -1.0625l0 -2.484375l-0.6875 0l0 -1.203125l0.6875 0l0 -1.140625l1.515625 -0.875l0 2.015625l1.03125 0zm4.236145 3.890625l1.5 0.25q-0.28125 0.828125 -0.90625 1.265625q-0.625 0.421875 -1.578125 0.421875q-1.484375 0 -2.203125 -0.96875q-0.5625 -0.78125 -0.5625 -1.96875q0 -1.421875 0.734375 -2.21875q0.75 -0.796875 1.890625 -0.796875q1.265625 0 2.0 0.84375q0.734375 0.828125 0.703125 2.5625l-3.78125 0q0.015625 0.671875 0.359375 1.046875q0.359375 0.375 0.875 0.375q0.359375 0 0.59375 -0.1875q0.25 -0.203125 0.375 -0.625zm0.078125 -1.53125q-0.015625 -0.65625 -0.34375 -0.984375q-0.3125 -0.34375 -0.765625 -0.34375q-0.5 0 -0.828125 0.359375q-0.3125 0.359375 -0.3125 0.96875l2.25 0zm7.5202637 -0.671875l-1.484375 0.265625q-0.078125 -0.4375 -0.34375 -0.65625q-0.265625 -0.234375 -0.6875 -0.234375q-0.5625 0 -0.90625 0.390625q-0.328125 0.375 -0.328125 1.296875q0 1.015625 0.328125 1.4375q0.34375 0.421875 0.921875 0.421875q0.4375 0 0.703125 -0.25q0.28125 -0.25 0.390625 -0.84375l1.484375 0.25q-0.234375 1.03125 -0.890625 1.546875q-0.65625 0.515625 -1.75 0.515625q-1.265625 0 -2.015625 -0.78125q-0.734375 -0.796875 -0.734375 -2.1875q0 -1.421875 0.75 -2.203125q0.75 -0.78125 2.015625 -0.78125q1.046875 0 1.65625 0.453125q0.625 0.4375 0.890625 1.359375zm3.5670776 -1.6875l0 1.203125l-1.03125 0l0 2.296875q0 0.703125 0.03125 0.828125q0.03125 0.109375 0.125 0.1875q0.109375 0.0625 0.265625 0.0625q0.203125 0 0.609375 -0.140625l0.125 1.171875q-0.53125 0.21875 -1.1875 0.21875q-0.421875 0 -0.75 -0.125q-0.328125 -0.140625 -0.484375 -0.359375q-0.140625 -0.21875 -0.203125 -0.59375q-0.046875 -0.265625 -0.046875 -1.0625l0 -2.484375l-0.6875 0l0 -1.203125l0.6875 0l0 -1.140625l1.515625 -0.875l0 2.015625l1.03125 0zm4.236145 3.890625l1.5 0.25q-0.28125 0.828125 -0.90625 1.265625q-0.625 0.421875 -1.578125 0.421875q-1.484375 0 -2.203125 -0.96875q-0.5625 -0.78125 -0.5625 -1.96875q0 -1.421875 0.734375 -2.21875q0.75 -0.796875 1.890625 -0.796875q1.265625 0 2.0 0.84375q0.734375 0.828125 0.703125 2.5625l-3.78125 0q0.015625 0.671875 0.359375 1.046875q0.359375 0.375 0.875 0.375q0.359375 0 0.59375 -0.1875q0.25 -0.203125 0.375 -0.625zm0.078125 -1.53125q-0.015625 -0.65625 -0.34375 -0.984375q-0.3125 -0.34375 -0.765625 -0.34375q-0.5 0 -0.828125 0.359375q-0.3125 0.359375 -0.3125 0.96875l2.25 0zm7.7702637 3.34375l-1.390625 0l0 -0.84375q-0.359375 0.5 -0.84375 0.734375q-0.46875 0.234375 -0.9375 0.234375q-0.984375 0 -1.6875 -0.78125q-0.703125 -0.796875 -0.703125 -2.21875q0 -1.453125 0.671875 -2.203125q0.6875 -0.75 1.734375 -0.75q0.953125 0 1.65625 0.796875l0 -2.84375l1.5 0l0 7.875zm-4.015625 -2.96875q0 0.90625 0.25 1.3125q0.359375 0.59375 1.015625 0.59375q0.515625 0 0.875 -0.4375q0.375 -0.453125 0.375 -1.328125q0 -0.984375 -0.359375 -1.40625q-0.34375 -0.4375 -0.90625 -0.4375q-0.53125 0 -0.890625 0.421875q-0.359375 0.421875 -0.359375 1.28125z" fill-rule="nonzero"></path><path fill="#cfe2f3" d="m786.04987 141.7874l66.74017 0l0 37.35434l-66.74017 0z" fill-rule="evenodd"></path><path stroke="#000000" stroke-width="1.0" stroke-linejoin="round" stroke-linecap="butt" d="m786.04987 141.7874l66.74017 0l0 37.35434l-66.74017 0z" fill-rule="evenodd"></path><path fill="#000000" fill-opacity="0.0" d="m818.7188 159.96889l-32.661438 -18.173218" fill-rule="evenodd"></path><path stroke="#000000" stroke-width="1.0" stroke-linejoin="round" stroke-linecap="butt" d="m818.7188 159.96889l-32.661438 -18.173218" fill-rule="evenodd"></path><path fill="#000000" fill-opacity="0.0" d="m818.5276 160.2126l34.740112 -18.425201" fill-rule="evenodd"></path><path stroke="#000000" stroke-width="1.0" stroke-linejoin="round" stroke-linecap="butt" d="m818.5276 160.2126l34.740112 -18.425201" fill-rule="evenodd"></path><path fill="#cfe2f3" d="m91.44095 141.7559l66.74016 0l0 37.354324l-66.74016 0z" fill-rule="evenodd"></path><path stroke="#000000" stroke-width="1.0" stroke-linejoin="round" stroke-linecap="butt" d="m91.44095 141.7559l66.74016 0l0 37.354324l-66.74016 0z" fill-rule="evenodd"></path><path fill="#000000" fill-opacity="0.0" d="m124.109856 159.9374l-32.661415 -18.173218" fill-rule="evenodd"></path><path stroke="#000000" stroke-width="1.0" stroke-linejoin="round" stroke-linecap="butt" d="m124.109856 159.9374l-32.661415 -18.173218" fill-rule="evenodd"></path><path fill="#000000" fill-opacity="0.0" d="m123.91863 160.1811l34.740166 -18.425201" fill-rule="evenodd"></path><path stroke="#000000" stroke-width="1.0" stroke-linejoin="round" stroke-linecap="butt" d="m123.91863 160.1811l34.740166 -18.425201" fill-rule="evenodd"></path></g></svg>

