<?xml version="1.0" standalone="yes"?>

<svg version="1.1" viewBox="0.0 0.0 939.2729658792651 360.99212598425197" fill="none" stroke="none" stroke-linecap="square" stroke-miterlimit="10" xmlns="http://www.w3.org/2000/svg" xmlns:xlink="http://www.w3.org/1999/xlink"><clipPath id="p.0"><path d="m0 0l939.27295 0l0 360.99213l-939.27295 0l0 -360.99213z" clip-rule="nonzero"></path></clipPath><g clip-path="url(#p.0)"><path fill="#ffffff" d="m0 0l939.27295 0l0 360.99213l-939.27295 0z" fill-rule="evenodd"></path><path fill="#cfe2f3" d="m342.6063 88.76378l268.88187 0l0 143.40158l-268.88187 0z" fill-rule="evenodd"></path><path stroke="#000000" stroke-width="1.0" stroke-linejoin="round" stroke-linecap="butt" d="m342.6063 88.76378l268.88187 0l0 143.40158l-268.88187 0z" fill-rule="evenodd"></path><path fill="#000000" d="m439.891 169.00456l-4.109375 -17.1875l3.5625 0l2.578125 11.8125l3.140625 -11.8125l4.125 0l3.015625 12.0l2.640625 -12.0l3.484375 0l-4.171875 17.1875l-3.671875 0l-3.421875 -12.84375l-3.40625 12.84375l-3.765625 0zm19.433594 -6.40625q0 -1.640625 0.796875 -3.171875q0.8125 -1.53125 2.296875 -2.34375q1.484375 -0.8125 3.3125 -0.8125q2.828125 0 4.625 1.84375q1.8125 1.828125 1.8125 4.625q0 2.828125 -1.828125 4.6875q-1.828125 1.859375 -4.59375 1.859375q-1.703125 0 -3.265625 -0.765625q-1.546875 -0.78125 -2.359375 -2.265625q-0.796875 -1.5 -0.796875 -3.65625zm3.375 0.1875q0 1.84375 0.875 2.828125q0.875 0.984375 2.171875 0.984375q1.28125 0 2.15625 -0.984375q0.875 -0.984375 0.875 -2.859375q0 -1.828125 -0.875 -2.8125q-0.875 -0.984375 -2.15625 -0.984375q-1.296875 0 -2.171875 0.984375q-0.875 0.984375 -0.875 2.84375zm15.191406 6.21875l-3.296875 0l0 -12.453125l3.0625 0l0 1.78125q0.78125 -1.265625 1.40625 -1.65625q0.640625 -0.40625 1.4375 -0.40625q1.125 0 2.15625 0.625l-1.015625 2.875q-0.828125 -0.546875 -1.546875 -0.546875q-0.6875 0 -1.171875 0.390625q-0.484375 0.375 -0.765625 1.375q-0.265625 1.0 -0.265625 4.171875l0 3.84375zm6.0742188 0l0 -17.1875l3.296875 0l0 9.125l3.84375 -4.390625l4.0625 0l-4.25 4.546875l4.546875 7.90625l-3.546875 0l-3.125 -5.59375l-1.53125 1.609375l0 3.984375l-3.296875 0zm20.675781 -3.96875l3.28125 0.5625q-0.640625 1.796875 -2.015625 2.75q-1.359375 0.9375 -3.40625 0.9375q-3.25 0 -4.796875 -2.125q-1.234375 -1.703125 -1.234375 -4.28125q0 -3.09375 1.609375 -4.84375q1.625 -1.765625 4.09375 -1.765625q2.78125 0 4.375 1.84375q1.609375 1.828125 1.546875 5.609375l-8.25 0q0.03125 1.46875 0.796875 2.28125q0.765625 0.8125 1.890625 0.8125q0.78125 0 1.296875 -0.421875q0.53125 -0.421875 0.8125 -1.359375zm0.1875 -3.328125q-0.046875 -1.421875 -0.75 -2.15625q-0.703125 -0.75 -1.703125 -0.75q-1.078125 0 -1.78125 0.78125q-0.703125 0.78125 -0.6875 2.125l4.921875 0zm9.097656 7.296875l-3.296875 0l0 -12.453125l3.0625 0l0 1.78125q0.78125 -1.265625 1.40625 -1.65625q0.640625 -0.40625 1.4375 -0.40625q1.125 0 2.15625 0.625l-1.015625 2.875q-0.828125 -0.546875 -1.546875 -0.546875q-0.6875 0 -1.171875 0.390625q-0.484375 0.375 -0.765625 1.375q-0.265625 1.0 -0.265625 4.171875l0 3.84375z" fill-rule="nonzero"></path><path fill="#000000" fill-opacity="0.0" d="m145.44095 160.77953c49.291336 0 73.93701 -0.07873535 98.58267 -0.15748596c24.64566 -0.07873535 49.29135 -0.1574707 98.58267 -0.1574707" fill-rule="evenodd"></path><path stroke="#000000" stroke-width="1.0" stroke-linejoin="round" stroke-linecap="butt" d="m145.44095 160.77953c49.291336 0 73.93701 -0.07873535 98.58267 -0.15748596c12.322845 -0.039367676 24.64566 -0.07873535 40.049225 -0.10826111c7.7017517 -0.014770508 16.173706 -0.027069092 25.800934 -0.03567505c4.8135986 -0.0043029785 9.916016 -0.0076904297 15.355377 -0.009994507l11.377136 -0.002319336" fill-rule="evenodd"></path><path fill="#000000" stroke="#000000" stroke-width="1.0" stroke-linecap="butt" d="m336.60663 162.11752l4.537781 -1.6526642l-4.538452 -1.6508026z" fill-rule="evenodd"></path><path fill="#000000" fill-opacity="0.0" d="m611.48816 160.46457c43.01581 0 64.52368 0.07873535 86.031555 0.1574707c21.507874 0.07875061 43.015747 0.15748596 86.031494 0.15748596" fill-rule="evenodd"></path><path stroke="#000000" stroke-width="1.0" stroke-linejoin="round" stroke-linecap="butt" d="m611.48816 160.46457c43.01581 0 64.52368 0.07873535 86.031555 0.1574707c10.753906 0.039382935 21.507874 0.07875061 34.950256 0.10827637c6.7211914 0.014755249 14.114502 0.027069092 22.516113 0.03567505c4.2006836 0.0043029785 8.653503 0.0076904297 13.400391 0.009994507l9.164734 0.0021362305" fill-rule="evenodd"></path><path fill="#000000" stroke="#000000" stroke-width="1.0" stroke-linecap="butt" d="m777.5508 162.42986l4.538513 -1.6506653l-4.5377197 -1.6528015z" fill-rule="evenodd"></path><path fill="#000000" fill-opacity="0.0" d="m477.04724 232.16536c0 30.335861 -91.3071 67.27803 -182.61417 60.671707c-91.30708 -6.6062927 -182.61417 -56.761047 -182.61417 -113.52211" fill-rule="evenodd"></path><path stroke="#000000" stroke-width="1.0" stroke-linejoin="round" stroke-linecap="butt" d="m477.04724 232.16536c0 30.335861 -91.3071 67.27803 -182.61417 60.671738c-45.65355 -3.3031616 -91.30708 -17.493439 -125.54724 -37.953033c-17.120087 -10.229828 -31.386826 -22.026962 -41.373528 -34.814224c-4.9933624 -6.3936157 -8.91671 -13.034775 -11.591721 -19.851318c-1.3375092 -3.408249 -2.3629227 -6.8603516 -3.0539703 -10.34729c-0.17276764 -0.8717499 -0.32463074 -1.7456512 -0.45524597 -2.6215973c-0.06529999 -0.43797302 -0.12529755 -0.87646484 -0.1799469 -1.3154297l-0.0743866 -0.6287842" fill-rule="evenodd"></path><path fill="#000000" stroke="#000000" stroke-width="1.0" stroke-linecap="butt" d="m113.806145 185.21234l-1.9048615 -4.437805l-1.3933487 4.6239777z" fill-rule="evenodd"></path><path fill="#000000" fill-opacity="0.0" d="m258.87927 286.7953l120.12598 0l0 44.37793l-120.12598 0z" fill-rule="evenodd"></path><path fill="#000000" d="m268.28552 303.94153l1.46875 -0.171875q0.0625 0.5625 0.375 0.859375q0.3125 0.28125 0.734375 0.28125q0.46875 0 0.78125 -0.34375q0.328125 -0.359375 0.328125 -0.953125q0 -0.578125 -0.3125 -0.90625q-0.296875 -0.328125 -0.734375 -0.328125q-0.296875 0 -0.6875 0.109375l0.15625 -1.234375q0.609375 0.015625 0.9375 -0.265625q0.328125 -0.28125 0.328125 -0.75q0 -0.390625 -0.25 -0.625q-0.234375 -0.25 -0.625 -0.25q-0.375 0 -0.65625 0.28125q-0.265625 0.265625 -0.328125 0.78125l-1.390625 -0.234375q0.140625 -0.71875 0.421875 -1.140625q0.296875 -0.4375 0.8125 -0.671875q0.53125 -0.25 1.1875 -0.25q1.109375 0 1.78125 0.703125q0.5625 0.578125 0.5625 1.3125q0 1.046875 -1.140625 1.65625q0.671875 0.140625 1.078125 0.65625q0.40625 0.5 0.40625 1.21875q0 1.03125 -0.765625 1.765625q-0.75 0.734375 -1.875 0.734375q-1.0625 0 -1.765625 -0.609375q-0.703125 -0.625 -0.828125 -1.625zm6.317108 2.09375l0 -1.515625l1.5 0l0 1.515625l-1.5 0zm5.90567 0l0 -7.875l2.375 0l1.4375 5.375l1.40625 -5.375l2.390625 0l0 7.875l-1.484375 0l0 -6.203125l-1.5625 6.203125l-1.53125 0l-1.5625 -6.203125l0 6.203125l-1.46875 0zm12.1892395 -1.8125l1.5 0.25q-0.28125 0.828125 -0.90625 1.265625q-0.625 0.421875 -1.578125 0.421875q-1.484375 0 -2.203125 -0.96875q-0.5625 -0.78125 -0.5625 -1.96875q0 -1.421875 0.734375 -2.21875q0.75 -0.796875 1.890625 -0.796875q1.265625 0 2.0 0.84375q0.734375 0.828125 0.703125 2.5625l-3.78125 0q0.015625 0.671875 0.359375 1.046875q0.359375 0.375 0.875 0.375q0.359375 0 0.59375 -0.1875q0.25 -0.203125 0.375 -0.625zm0.078125 -1.53125q-0.015625 -0.65625 -0.34375 -0.984375q-0.3125 -0.34375 -0.765625 -0.34375q-0.5 0 -0.828125 0.359375q-0.3125 0.359375 -0.3125 0.96875l2.25 0zm2.0202637 1.71875l1.5 -0.234375q0.109375 0.4375 0.390625 0.671875q0.296875 0.21875 0.828125 0.21875q0.59375 0 0.890625 -0.203125q0.203125 -0.15625 0.203125 -0.40625q0 -0.171875 -0.109375 -0.28125q-0.125 -0.109375 -0.515625 -0.203125q-1.8125 -0.40625 -2.3125 -0.734375q-0.671875 -0.46875 -0.671875 -1.28125q0 -0.75 0.578125 -1.25q0.59375 -0.5 1.828125 -0.5q1.171875 0 1.734375 0.375q0.5625 0.375 0.78125 1.125l-1.421875 0.265625q-0.09375 -0.328125 -0.34375 -0.5q-0.25 -0.1875 -0.734375 -0.1875q-0.59375 0 -0.84375 0.171875q-0.171875 0.109375 -0.171875 0.296875q0 0.171875 0.140625 0.28125q0.203125 0.15625 1.40625 0.4375q1.21875 0.265625 1.6875 0.65625q0.484375 0.40625 0.484375 1.125q0 0.78125 -0.65625 1.34375q-0.65625 0.5625 -1.953125 0.5625q-1.15625 0 -1.84375 -0.46875q-0.671875 -0.46875 -0.875 -1.28125zm5.926483 0l1.5 -0.234375q0.109375 0.4375 0.390625 0.671875q0.296875 0.21875 0.828125 0.21875q0.59375 0 0.890625 -0.203125q0.203125 -0.15625 0.203125 -0.40625q0 -0.171875 -0.109375 -0.28125q-0.125 -0.109375 -0.515625 -0.203125q-1.8125 -0.40625 -2.3125 -0.734375q-0.671875 -0.46875 -0.671875 -1.28125q0 -0.75 0.578125 -1.25q0.59375 -0.5 1.828125 -0.5q1.171875 0 1.734375 0.375q0.5625 0.375 0.78125 1.125l-1.421875 0.265625q-0.09375 -0.328125 -0.34375 -0.5q-0.25 -0.1875 -0.734375 -0.1875q-0.59375 0 -0.84375 0.171875q-0.171875 0.109375 -0.171875 0.296875q0 0.171875 0.140625 0.28125q0.203125 0.15625 1.40625 0.4375q1.21875 0.265625 1.6875 0.65625q0.484375 0.40625 0.484375 1.125q0 0.78125 -0.65625 1.34375q-0.65625 0.5625 -1.953125 0.5625q-1.15625 0 -1.84375 -0.46875q-0.671875 -0.46875 -0.875 -1.28125zm7.5827637 -2.34375l-1.375 -0.25q0.234375 -0.8125 0.796875 -1.203125q0.5625 -0.40625 1.671875 -0.40625q1.015625 0 1.5 0.234375q0.5 0.234375 0.703125 0.609375q0.203125 0.359375 0.203125 1.34375l-0.015625 1.765625q0 0.75 0.0625 1.109375q0.078125 0.359375 0.28125 0.765625l-1.5 0q-0.0625 -0.15625 -0.140625 -0.453125q-0.03125 -0.125 -0.046875 -0.171875q-0.390625 0.375 -0.84375 0.5625q-0.4375 0.1875 -0.9375 0.1875q-0.875 0 -1.390625 -0.46875q-0.5 -0.484375 -0.5 -1.21875q0 -0.484375 0.234375 -0.859375q0.234375 -0.375 0.640625 -0.578125q0.421875 -0.203125 1.203125 -0.359375q1.0625 -0.1875 1.46875 -0.359375l0 -0.15625q0 -0.4375 -0.21875 -0.609375q-0.21875 -0.1875 -0.8125 -0.1875q-0.390625 0 -0.625 0.15625q-0.21875 0.15625 -0.359375 0.546875zm2.015625 1.234375q-0.296875 0.09375 -0.921875 0.234375q-0.625 0.125 -0.8125 0.25q-0.296875 0.21875 -0.296875 0.53125q0 0.328125 0.234375 0.5625q0.234375 0.21875 0.59375 0.21875q0.40625 0 0.78125 -0.265625q0.28125 -0.203125 0.359375 -0.5q0.0625 -0.1875 0.0625 -0.734375l0 -0.296875zm2.6452332 3.109375l1.71875 0.203125q0.046875 0.3125 0.203125 0.421875q0.203125 0.15625 0.671875 0.15625q0.59375 0 0.890625 -0.171875q0.1875 -0.125 0.296875 -0.375q0.0625 -0.203125 0.0625 -0.703125l0 -0.828125q-0.671875 0.921875 -1.703125 0.921875q-1.140625 0 -1.8125 -0.96875q-0.53125 -0.765625 -0.53125 -1.921875q0 -1.421875 0.6875 -2.171875q0.6875 -0.765625 1.71875 -0.765625q1.0625 0 1.75 0.921875l0 -0.796875l1.40625 0l0 5.125q0 1.0 -0.171875 1.5q-0.15625 0.5 -0.46875 0.78125q-0.296875 0.296875 -0.796875 0.453125q-0.5 0.15625 -1.265625 0.15625q-1.453125 0 -2.0625 -0.5q-0.609375 -0.484375 -0.609375 -1.25q0 -0.078125 0.015625 -0.1875zm1.34375 -3.34375q0 0.90625 0.34375 1.328125q0.359375 0.421875 0.875 0.421875q0.546875 0 0.921875 -0.421875q0.390625 -0.4375 0.390625 -1.296875q0 -0.875 -0.375 -1.296875q-0.359375 -0.4375 -0.90625 -0.4375q-0.546875 0 -0.90625 0.421875q-0.34375 0.421875 -0.34375 1.28125zm8.603027 1.15625l1.5 0.25q-0.28125 0.828125 -0.90625 1.265625q-0.625 0.421875 -1.578125 0.421875q-1.484375 0 -2.203125 -0.96875q-0.5625 -0.78125 -0.5625 -1.96875q0 -1.421875 0.734375 -2.21875q0.75 -0.796875 1.890625 -0.796875q1.265625 0 2.0 0.84375q0.734375 0.828125 0.703125 2.5625l-3.78125 0q0.015625 0.671875 0.359375 1.046875q0.359375 0.375 0.875 0.375q0.359375 0 0.59375 -0.1875q0.25 -0.203125 0.375 -0.625zm0.078125 -1.53125q-0.015625 -0.65625 -0.34375 -0.984375q-0.3125 -0.34375 -0.765625 -0.34375q-0.5 0 -0.828125 0.359375q-0.3125 0.359375 -0.3125 0.96875l2.25 0z" fill-rule="nonzero"></path><path fill="#000000" d="m269.80115 315.06653l-1.375 -0.25q0.234375 -0.8125 0.796875 -1.203125q0.5625 -0.40625 1.671875 -0.40625q1.015625 0 1.5 0.234375q0.5 0.234375 0.703125 0.609375q0.203125 0.359375 0.203125 1.34375l-0.015625 1.765625q0 0.75 0.0625 1.109375q0.078125 0.359375 0.28125 0.765625l-1.5 0q-0.0625 -0.15625 -0.140625 -0.453125q-0.03125 -0.125 -0.046875 -0.171875q-0.390625 0.375 -0.84375 0.5625q-0.4375 0.1875 -0.9375 0.1875q-0.875 0 -1.390625 -0.46875q-0.5 -0.484375 -0.5 -1.21875q0 -0.484375 0.234375 -0.859375q0.234375 -0.375 0.640625 -0.578125q0.421875 -0.203125 1.203125 -0.359375q1.0625 -0.1875 1.46875 -0.359375l0 -0.15625q0 -0.4375 -0.21875 -0.609375q-0.21875 -0.1875 -0.8125 -0.1875q-0.390625 0 -0.625 0.15625q-0.21875 0.15625 -0.359375 0.546875zm2.015625 1.234375q-0.296875 0.09375 -0.921875 0.234375q-0.625 0.125 -0.8125 0.25q-0.296875 0.21875 -0.296875 0.53125q0 0.328125 0.234375 0.5625q0.234375 0.21875 0.59375 0.21875q0.40625 0 0.78125 -0.265625q0.28125 -0.203125 0.359375 -0.5q0.0625 -0.1875 0.0625 -0.734375l0 -0.296875zm7.754608 -1.28125l-1.484375 0.265625q-0.078125 -0.4375 -0.34375 -0.65625q-0.265625 -0.234375 -0.6875 -0.234375q-0.5625 0 -0.90625 0.390625q-0.328125 0.375 -0.328125 1.296875q0 1.015625 0.328125 1.4375q0.34375 0.421875 0.921875 0.421875q0.4375 0 0.703125 -0.25q0.28125 -0.25 0.390625 -0.84375l1.484375 0.25q-0.234375 1.03125 -0.890625 1.546875q-0.65625 0.515625 -1.75 0.515625q-1.265625 0 -2.015625 -0.78125q-0.734375 -0.796875 -0.734375 -2.1875q0 -1.421875 0.75 -2.203125q0.75 -0.78125 2.015625 -0.78125q1.046875 0 1.65625 0.453125q0.625 0.4375 0.890625 1.359375zm0.8952637 4.015625l0 -7.875l1.515625 0l0 4.171875l1.765625 -2.0l1.859375 0l-1.953125 2.078125l2.09375 3.625l-1.625 0l-1.4375 -2.5625l-0.703125 0.734375l0 1.828125l-1.515625 0zm11.176483 0l-1.515625 0l0 -2.90625q0 -0.921875 -0.09375 -1.1875q-0.09375 -0.28125 -0.3125 -0.421875q-0.21875 -0.15625 -0.53125 -0.15625q-0.390625 0 -0.703125 0.21875q-0.3125 0.203125 -0.4375 0.5625q-0.109375 0.34375 -0.109375 1.3125l0 2.578125l-1.5 0l0 -5.703125l1.40625 0l0 0.84375q0.734375 -0.96875 1.875 -0.96875q0.5 0 0.90625 0.1875q0.421875 0.171875 0.625 0.453125q0.21875 0.265625 0.296875 0.625q0.09375 0.359375 0.09375 1.015625l0 3.546875zm0.96240234 -2.9375q0 -0.75 0.375 -1.453125q0.375 -0.703125 1.046875 -1.0625q0.6875 -0.375 1.515625 -0.375q1.296875 0 2.125 0.84375q0.828125 0.828125 0.828125 2.109375q0 1.296875 -0.84375 2.15625q-0.828125 0.84375 -2.09375 0.84375q-0.78125 0 -1.5 -0.34375q-0.703125 -0.359375 -1.078125 -1.046875q-0.375 -0.6875 -0.375 -1.671875zm1.546875 0.078125q0 0.859375 0.40625 1.3125q0.40625 0.453125 1.0 0.453125q0.578125 0 0.984375 -0.453125q0.40625 -0.453125 0.40625 -1.3125q0 -0.84375 -0.40625 -1.296875q-0.40625 -0.453125 -0.984375 -0.453125q-0.59375 0 -1.0 0.453125q-0.40625 0.453125 -0.40625 1.296875zm6.384247 2.859375l-1.8125 -5.703125l1.46875 0l1.0625 3.734375l0.984375 -3.734375l1.453125 0l0.953125 3.734375l1.09375 -3.734375l1.484375 0l-1.828125 5.703125l-1.453125 0l-0.984375 -3.671875l-0.96875 3.671875l-1.453125 0zm7.226288 0l0 -7.875l1.5 0l0 7.875l-1.5 0zm6.2575073 -1.8125l1.5 0.25q-0.28125 0.828125 -0.90625 1.265625q-0.625 0.421875 -1.578125 0.421875q-1.484375 0 -2.203125 -0.96875q-0.5625 -0.78125 -0.5625 -1.96875q0 -1.421875 0.734375 -2.21875q0.75 -0.796875 1.890625 -0.796875q1.265625 0 2.0 0.84375q0.734375 0.828125 0.703125 2.5625l-3.78125 0q0.015625 0.671875 0.359375 1.046875q0.359375 0.375 0.875 0.375q0.359375 0 0.59375 -0.1875q0.25 -0.203125 0.375 -0.625zm0.078125 -1.53125q-0.015625 -0.65625 -0.34375 -0.984375q-0.3125 -0.34375 -0.765625 -0.34375q-0.5 0 -0.828125 0.359375q-0.3125 0.359375 -0.3125 0.96875l2.25 0zm7.7702637 3.34375l-1.390625 0l0 -0.84375q-0.359375 0.5 -0.84375 0.734375q-0.46875 0.234375 -0.9375 0.234375q-0.984375 0 -1.6875 -0.78125q-0.703125 -0.796875 -0.703125 -2.21875q0 -1.453125 0.671875 -2.203125q0.6875 -0.75 1.734375 -0.75q0.953125 0 1.65625 0.796875l0 -2.84375l1.5 0l0 7.875zm-4.015625 -2.96875q0 0.90625 0.25 1.3125q0.359375 0.59375 1.015625 0.59375q0.515625 0 0.875 -0.4375q0.375 -0.453125 0.375 -1.328125q0 -0.984375 -0.359375 -1.40625q-0.34375 -0.4375 -0.90625 -0.4375q-0.53125 0 -0.890625 0.421875q-0.359375 0.421875 -0.359375 1.28125zm5.165497 3.34375l1.71875 0.203125q0.046875 0.3125 0.203125 0.421875q0.203125 0.15625 0.671875 0.15625q0.59375 0 0.890625 -0.171875q0.1875 -0.125 0.296875 -0.375q0.0625 -0.203125 0.0625 -0.703125l0 -0.828125q-0.671875 0.921875 -1.703125 0.921875q-1.140625 0 -1.8125 -0.96875q-0.53125 -0.765625 -0.53125 -1.921875q0 -1.421875 0.6875 -2.171875q0.6875 -0.765625 1.71875 -0.765625q1.0625 0 1.75 0.921875l0 -0.796875l1.40625 0l0 5.125q0 1.0 -0.171875 1.5q-0.15625 0.5 -0.46875 0.78125q-0.296875 0.296875 -0.796875 0.453125q-0.5 0.15625 -1.265625 0.15625q-1.453125 0 -2.0625 -0.5q-0.609375 -0.484375 -0.609375 -1.25q0 -0.078125 0.015625 -0.1875zm1.34375 -3.34375q0 0.90625 0.34375 1.328125q0.359375 0.421875 0.875 0.421875q0.546875 0 0.921875 -0.421875q0.390625 -0.4375 0.390625 -1.296875q0 -0.875 -0.375 -1.296875q-0.359375 -0.4375 -0.90625 -0.4375q-0.546875 0 -0.90625 0.421875q-0.34375 0.421875 -0.34375 1.28125zm8.603027 1.15625l1.5 0.25q-0.28125 0.828125 -0.90625 1.265625q-0.625 0.421875 -1.578125 0.421875q-1.484375 0 -2.203125 -0.96875q-0.5625 -0.78125 -0.5625 -1.96875q0 -1.421875 0.734375 -2.21875q0.75 -0.796875 1.890625 -0.796875q1.265625 0 2.0 0.84375q0.734375 0.828125 0.703125 2.5625l-3.78125 0q0.015625 0.671875 0.359375 1.046875q0.359375 0.375 0.875 0.375q0.359375 0 0.59375 -0.1875q0.25 -0.203125 0.375 -0.625zm0.078125 -1.53125q-0.015625 -0.65625 -0.34375 -0.984375q-0.3125 -0.34375 -0.765625 -0.34375q-0.5 0 -0.828125 0.359375q-0.3125 0.359375 -0.3125 0.96875l2.25 0zm7.770233 3.34375l-1.390625 0l0 -0.84375q-0.359375 0.5 -0.84375 0.734375q-0.46875 0.234375 -0.9375 0.234375q-0.984375 0 -1.6875 -0.78125q-0.703125 -0.796875 -0.703125 -2.21875q0 -1.453125 0.671875 -2.203125q0.6875 -0.75 1.734375 -0.75q0.953125 0 1.65625 0.796875l0 -2.84375l1.5 0l0 7.875zm-4.015625 -2.96875q0 0.90625 0.25 1.3125q0.359375 0.59375 1.015625 0.59375q0.515625 0 0.875 -0.4375q0.375 -0.453125 0.375 -1.328125q0 -0.984375 -0.359375 -1.40625q-0.34375 -0.4375 -0.90625 -0.4375q-0.53125 0 -0.890625 0.421875q-0.359375 0.421875 -0.359375 1.28125z" fill-rule="nonzero"></path><path fill="#000000" fill-opacity="0.0" d="m648.3123 161.29134l151.4961 0l0 54.834656l-151.4961 0z" fill-rule="evenodd"></path><path fill="#000000" d="m662.8748 179.12509l0 1.40625l-5.28125 0q0.078125 -0.796875 0.5 -1.5q0.4375 -0.71875 1.703125 -1.890625q1.015625 -0.953125 1.25 -1.296875q0.3125 -0.46875 0.3125 -0.921875q0 -0.5 -0.28125 -0.765625q-0.265625 -0.28125 -0.734375 -0.28125q-0.46875 0 -0.75 0.296875q-0.28125 0.28125 -0.328125 0.9375l-1.5 -0.15625q0.125 -1.25 0.828125 -1.78125q0.71875 -0.546875 1.78125 -0.546875q1.171875 0 1.828125 0.625q0.671875 0.625 0.671875 1.5625q0 0.53125 -0.1875 1.015625q-0.1875 0.484375 -0.609375 1.0q-0.265625 0.359375 -0.984375 1.015625q-0.71875 0.65625 -0.90625 0.875q-0.1875 0.203125 -0.3125 0.40625l3.0 0zm1.1608887 1.40625l0 -1.515625l1.5 0l0 1.515625l-1.5 0zm5.9213257 0l0 -7.875l2.5625 0q1.4375 0 1.890625 0.125q0.671875 0.171875 1.125 0.765625q0.453125 0.59375 0.453125 1.53125q0 0.71875 -0.265625 1.21875q-0.25 0.5 -0.65625 0.78125q-0.40625 0.28125 -0.828125 0.375q-0.578125 0.109375 -1.65625 0.109375l-1.03125 0l0 2.96875l-1.59375 0zm1.59375 -6.546875l0 2.234375l0.875 0q0.9375 0 1.25 -0.125q0.3125 -0.125 0.484375 -0.375q0.1875 -0.265625 0.1875 -0.625q0 -0.421875 -0.25 -0.703125q-0.25 -0.28125 -0.640625 -0.34375q-0.28125 -0.0625 -1.140625 -0.0625l-0.765625 0zm9.263855 6.546875l0 -0.859375q-0.3125 0.46875 -0.828125 0.734375q-0.5 0.25 -1.0625 0.25q-0.578125 0 -1.03125 -0.25q-0.453125 -0.25 -0.671875 -0.703125q-0.203125 -0.46875 -0.203125 -1.265625l0 -3.609375l1.515625 0l0 2.625q0 1.203125 0.078125 1.46875q0.09375 0.265625 0.3125 0.4375q0.21875 0.15625 0.5625 0.15625q0.375 0 0.6875 -0.203125q0.3125 -0.21875 0.421875 -0.53125q0.109375 -0.328125 0.109375 -1.546875l0 -2.40625l1.515625 0l0 5.703125l-1.40625 0zm2.6811523 0l0 -7.875l1.515625 0l0 2.84375q0.703125 -0.796875 1.65625 -0.796875q1.046875 0 1.71875 0.75q0.6875 0.75 0.6875 2.171875q0 1.453125 -0.703125 2.25q-0.6875 0.78125 -1.6875 0.78125q-0.484375 0 -0.96875 -0.234375q-0.46875 -0.25 -0.8125 -0.734375l0 0.84375l-1.40625 0zm1.5 -2.96875q0 0.875 0.28125 1.296875q0.390625 0.609375 1.046875 0.609375q0.5 0 0.84375 -0.421875q0.359375 -0.4375 0.359375 -1.359375q0 -0.96875 -0.359375 -1.390625q-0.34375 -0.4375 -0.90625 -0.4375q-0.546875 0 -0.90625 0.421875q-0.359375 0.421875 -0.359375 1.28125zm5.0874023 2.96875l0 -7.875l1.5 0l0 7.875l-1.5 0zm2.9606323 -6.484375l0 -1.390625l1.5 0l0 1.390625l-1.5 0zm0 6.484375l0 -5.703125l1.5 0l0 5.703125l-1.5 0zm2.4293823 -1.625l1.5 -0.234375q0.109375 0.4375 0.390625 0.671875q0.296875 0.21875 0.828125 0.21875q0.59375 0 0.890625 -0.203125q0.203125 -0.15625 0.203125 -0.40625q0 -0.171875 -0.109375 -0.28125q-0.125 -0.109375 -0.515625 -0.203125q-1.8125 -0.40625 -2.3125 -0.734375q-0.671875 -0.46875 -0.671875 -1.28125q0 -0.75 0.578125 -1.25q0.59375 -0.5 1.828125 -0.5q1.171875 0 1.734375 0.375q0.5625 0.375 0.78125 1.125l-1.421875 0.265625q-0.09375 -0.328125 -0.34375 -0.5q-0.25 -0.1875 -0.734375 -0.1875q-0.59375 0 -0.84375 0.171875q-0.171875 0.109375 -0.171875 0.296875q0 0.171875 0.140625 0.28125q0.203125 0.15625 1.40625 0.4375q1.21875 0.265625 1.6875 0.65625q0.484375 0.40625 0.484375 1.125q0 0.78125 -0.65625 1.34375q-0.65625 0.5625 -1.953125 0.5625q-1.15625 0 -1.84375 -0.46875q-0.671875 -0.46875 -0.875 -1.28125zm7.9577637 -6.25l0 2.890625q0.734375 -0.84375 1.75 -0.84375q0.515625 0 0.921875 0.1875q0.421875 0.1875 0.640625 0.5q0.21875 0.296875 0.296875 0.671875q0.078125 0.359375 0.078125 1.125l0 3.34375l-1.515625 0l0 -3.015625q0 -0.890625 -0.09375 -1.125q-0.078125 -0.25 -0.296875 -0.390625q-0.21875 -0.140625 -0.546875 -0.140625q-0.375 0 -0.671875 0.1875q-0.296875 0.171875 -0.4375 0.546875q-0.125 0.359375 -0.125 1.078125l0 2.859375l-1.515625 0l0 -7.875l1.515625 0z" fill-rule="nonzero"></path><path fill="#000000" d="m658.1248 193.53134l0 -7.875l3.34375 0q1.265625 0 1.828125 0.21875q0.578125 0.203125 0.921875 0.75q0.34375 0.546875 0.34375 1.234375q0 0.890625 -0.53125 1.46875q-0.515625 0.578125 -1.546875 0.734375q0.515625 0.296875 0.84375 0.65625q0.34375 0.359375 0.90625 1.28125l0.96875 1.53125l-1.90625 0l-1.15625 -1.71875q-0.609375 -0.90625 -0.84375 -1.140625q-0.21875 -0.25 -0.46875 -0.328125q-0.25 -0.09375 -0.796875 -0.09375l-0.328125 0l0 3.28125l-1.578125 0zm1.578125 -4.546875l1.1875 0q1.140625 0 1.421875 -0.09375q0.28125 -0.09375 0.4375 -0.328125q0.171875 -0.234375 0.171875 -0.59375q0 -0.40625 -0.21875 -0.640625q-0.203125 -0.25 -0.59375 -0.3125q-0.1875 -0.03125 -1.15625 -0.03125l-1.25 0l0 2.0zm6.1018677 4.546875l0 -7.875l5.84375 0l0 1.328125l-4.25 0l0 1.75l3.953125 0l0 1.328125l-3.953125 0l0 2.140625l4.40625 0l0 1.328125l-6.0 0zm6.701416 -2.5625l1.546875 -0.15625q0.140625 0.78125 0.5625 1.15625q0.4375 0.359375 1.15625 0.359375q0.78125 0 1.15625 -0.328125q0.390625 -0.328125 0.390625 -0.75q0 -0.28125 -0.171875 -0.46875q-0.15625 -0.203125 -0.5625 -0.359375q-0.28125 -0.09375 -1.265625 -0.34375q-1.28125 -0.3125 -1.796875 -0.78125q-0.71875 -0.640625 -0.71875 -1.578125q0 -0.59375 0.328125 -1.109375q0.34375 -0.53125 0.984375 -0.8125q0.640625 -0.28125 1.5625 -0.28125q1.46875 0 2.21875 0.65625q0.75 0.65625 0.796875 1.734375l-1.59375 0.078125q-0.109375 -0.609375 -0.4375 -0.875q-0.328125 -0.265625 -1.0 -0.265625q-0.703125 0 -1.09375 0.28125q-0.25 0.1875 -0.25 0.484375q0 0.28125 0.234375 0.484375q0.296875 0.25 1.453125 0.53125q1.171875 0.265625 1.71875 0.5625q0.5625 0.28125 0.875 0.796875q0.3125 0.5 0.3125 1.25q0 0.6875 -0.375 1.28125q-0.375 0.578125 -1.0625 0.875q-0.6875 0.28125 -1.71875 0.28125q-1.484375 0 -2.296875 -0.6875q-0.796875 -0.6875 -0.953125 -2.015625zm7.513855 -5.3125l1.578125 0l0 4.265625q0 1.015625 0.0625 1.3125q0.109375 0.484375 0.484375 0.78125q0.390625 0.296875 1.046875 0.296875q0.6875 0 1.03125 -0.28125q0.34375 -0.28125 0.40625 -0.671875q0.078125 -0.40625 0.078125 -1.34375l0 -4.359375l1.578125 0l0 4.140625q0 1.40625 -0.125 2.0q-0.125 0.578125 -0.46875 0.984375q-0.34375 0.40625 -0.9375 0.65625q-0.578125 0.234375 -1.515625 0.234375q-1.125 0 -1.703125 -0.265625q-0.578125 -0.265625 -0.921875 -0.671875q-0.34375 -0.421875 -0.4375 -0.875q-0.15625 -0.6875 -0.15625 -2.0l0 -4.203125zm7.7424927 7.875l0 -7.8125l1.59375 0l0 6.484375l3.953125 0l0 1.328125l-5.546875 0zm8.243652 0l0 -6.546875l-2.34375 0l0 -1.328125l6.265625 0l0 1.328125l-2.34375 0l0 6.546875l-1.578125 0zm3.8217163 2.171875l0 -0.96875l6.28125 0l0 0.96875l-6.28125 0zm6.4265137 -4.734375l1.546875 -0.15625q0.140625 0.78125 0.5625 1.15625q0.4375 0.359375 1.15625 0.359375q0.78125 0 1.15625 -0.328125q0.390625 -0.328125 0.390625 -0.75q0 -0.28125 -0.171875 -0.46875q-0.15625 -0.203125 -0.5625 -0.359375q-0.28125 -0.09375 -1.265625 -0.34375q-1.28125 -0.3125 -1.796875 -0.78125q-0.71875 -0.640625 -0.71875 -1.578125q0 -0.59375 0.328125 -1.109375q0.34375 -0.53125 0.984375 -0.8125q0.640625 -0.28125 1.5625 -0.28125q1.46875 0 2.21875 0.65625q0.75 0.65625 0.796875 1.734375l-1.59375 0.078125q-0.109375 -0.609375 -0.4375 -0.875q-0.328125 -0.265625 -1.0 -0.265625q-0.703125 0 -1.09375 0.28125q-0.25 0.1875 -0.25 0.484375q0 0.28125 0.234375 0.484375q0.296875 0.25 1.453125 0.53125q1.171875 0.265625 1.71875 0.5625q0.5625 0.28125 0.875 0.796875q0.3125 0.5 0.3125 1.25q0 0.6875 -0.375 1.28125q-0.375 0.578125 -1.0625 0.875q-0.6875 0.28125 -1.71875 0.28125q-1.484375 0 -2.296875 -0.6875q-0.796875 -0.6875 -0.953125 -2.015625zm7.513916 -5.3125l1.578125 0l0 4.265625q0 1.015625 0.0625 1.3125q0.109375 0.484375 0.484375 0.78125q0.390625 0.296875 1.046875 0.296875q0.6875 0 1.03125 -0.28125q0.34375 -0.28125 0.40625 -0.671875q0.078125 -0.40625 0.078125 -1.34375l0 -4.359375l1.578125 0l0 4.140625q0 1.40625 -0.125 2.0q-0.125 0.578125 -0.46875 0.984375q-0.34375 0.40625 -0.9375 0.65625q-0.578125 0.234375 -1.515625 0.234375q-1.125 0 -1.703125 -0.265625q-0.578125 -0.265625 -0.921875 -0.671875q-0.34375 -0.421875 -0.4375 -0.875q-0.15625 -0.6875 -0.15625 -2.0l0 -4.203125zm12.742432 4.984375l1.53125 0.484375q-0.34375 1.28125 -1.171875 1.921875q-0.828125 0.625 -2.09375 0.625q-1.5625 0 -2.578125 -1.078125q-1.015625 -1.078125 -1.015625 -2.9375q0 -1.953125 1.015625 -3.046875q1.015625 -1.09375 2.671875 -1.09375q1.453125 0 2.34375 0.859375q0.546875 0.5 0.8125 1.453125l-1.578125 0.375q-0.140625 -0.609375 -0.578125 -0.96875q-0.4375 -0.359375 -1.078125 -0.359375q-0.875 0 -1.421875 0.640625q-0.546875 0.625 -0.546875 2.03125q0 1.484375 0.53125 2.125q0.546875 0.640625 1.40625 0.640625q0.640625 0 1.09375 -0.40625q0.453125 -0.40625 0.65625 -1.265625zm7.6956177 0l1.53125 0.484375q-0.34375 1.28125 -1.171875 1.921875q-0.828125 0.625 -2.09375 0.625q-1.5625 0 -2.578125 -1.078125q-1.015625 -1.078125 -1.015625 -2.9375q0 -1.953125 1.015625 -3.046875q1.015625 -1.09375 2.671875 -1.09375q1.453125 0 2.34375 0.859375q0.546875 0.5 0.8125 1.453125l-1.578125 0.375q-0.140625 -0.609375 -0.578125 -0.96875q-0.4375 -0.359375 -1.078125 -0.359375q-0.875 0 -1.421875 0.640625q-0.546875 0.625 -0.546875 2.03125q0 1.484375 0.53125 2.125q0.546875 0.640625 1.40625 0.640625q0.640625 0 1.09375 -0.40625q0.453125 -0.40625 0.65625 -1.265625zm2.6487427 2.890625l0 -7.875l5.84375 0l0 1.328125l-4.25 0l0 1.75l3.953125 0l0 1.328125l-3.953125 0l0 2.140625l4.40625 0l0 1.328125l-6.0 0zm6.701355 -2.5625l1.546875 -0.15625q0.140625 0.78125 0.5625 1.15625q0.4375 0.359375 1.15625 0.359375q0.78125 0 1.15625 -0.328125q0.390625 -0.328125 0.390625 -0.75q0 -0.28125 -0.171875 -0.46875q-0.15625 -0.203125 -0.5625 -0.359375q-0.28125 -0.09375 -1.265625 -0.34375q-1.28125 -0.3125 -1.796875 -0.78125q-0.71875 -0.640625 -0.71875 -1.578125q0 -0.59375 0.328125 -1.109375q0.34375 -0.53125 0.984375 -0.8125q0.640625 -0.28125 1.5625 -0.28125q1.46875 0 2.21875 0.65625q0.75 0.65625 0.796875 1.734375l-1.59375 0.078125q-0.109375 -0.609375 -0.4375 -0.875q-0.328125 -0.265625 -1.0 -0.265625q-0.703125 0 -1.09375 0.28125q-0.25 0.1875 -0.25 0.484375q0 0.28125 0.234375 0.484375q0.296875 0.25 1.453125 0.53125q1.171875 0.265625 1.71875 0.5625q0.5625 0.28125 0.875 0.796875q0.3125 0.5 0.3125 1.25q0 0.6875 -0.375 1.28125q-0.375 0.578125 -1.0625 0.875q-0.6875 0.28125 -1.71875 0.28125q-1.484375 0 -2.296875 -0.6875q-0.796875 -0.6875 -0.953125 -2.015625zm7.107666 0l1.546875 -0.15625q0.140625 0.78125 0.5625 1.15625q0.4375 0.359375 1.15625 0.359375q0.78125 0 1.15625 -0.328125q0.390625 -0.328125 0.390625 -0.75q0 -0.28125 -0.171875 -0.46875q-0.15625 -0.203125 -0.5625 -0.359375q-0.28125 -0.09375 -1.265625 -0.34375q-1.28125 -0.3125 -1.796875 -0.78125q-0.71875 -0.640625 -0.71875 -1.578125q0 -0.59375 0.328125 -1.109375q0.34375 -0.53125 0.984375 -0.8125q0.640625 -0.28125 1.5625 -0.28125q1.46875 0 2.21875 0.65625q0.75 0.65625 0.796875 1.734375l-1.59375 0.078125q-0.109375 -0.609375 -0.4375 -0.875q-0.328125 -0.265625 -1.0 -0.265625q-0.703125 0 -1.09375 0.28125q-0.25 0.1875 -0.25 0.484375q0 0.28125 0.234375 0.484375q0.296875 0.25 1.453125 0.53125q1.171875 0.265625 1.71875 0.5625q0.5625 0.28125 0.875 0.796875q0.3125 0.5 0.3125 1.25q0 0.6875 -0.375 1.28125q-0.375 0.578125 -1.0625 0.875q-0.6875 0.28125 -1.71875 0.28125q-1.484375 0 -2.296875 -0.6875q-0.796875 -0.6875 -0.953125 -2.015625z" fill-rule="nonzero"></path><path fill="#000000" d="m659.5467 206.53134l-1.515625 0l0 -5.703125l1.40625 0l0 0.8125q0.359375 -0.578125 0.640625 -0.75q0.296875 -0.1875 0.65625 -0.1875q0.515625 0 1.0 0.28125l-0.46875 1.3125q-0.375 -0.25 -0.703125 -0.25q-0.328125 0 -0.546875 0.1875q-0.21875 0.171875 -0.34375 0.625q-0.125 0.453125 -0.125 1.90625l0 1.765625zm6.0064087 -1.8125l1.5 0.25q-0.28125 0.828125 -0.90625 1.265625q-0.625 0.421875 -1.578125 0.421875q-1.484375 0 -2.203125 -0.96875q-0.5625 -0.78125 -0.5625 -1.96875q0 -1.421875 0.734375 -2.21875q0.75 -0.796875 1.890625 -0.796875q1.265625 0 2.0 0.84375q0.734375 0.828125 0.703125 2.5625l-3.78125 0q0.015625 0.671875 0.359375 1.046875q0.359375 0.375 0.875 0.375q0.359375 0 0.59375 -0.1875q0.25 -0.203125 0.375 -0.625zm0.078125 -1.53125q-0.015625 -0.65625 -0.34375 -0.984375q-0.3125 -0.34375 -0.765625 -0.34375q-0.5 0 -0.828125 0.359375q-0.3125 0.359375 -0.3125 0.96875l2.25 0zm2.0202026 1.71875l1.5 -0.234375q0.109375 0.4375 0.390625 0.671875q0.296875 0.21875 0.828125 0.21875q0.59375 0 0.890625 -0.203125q0.203125 -0.15625 0.203125 -0.40625q0 -0.171875 -0.109375 -0.28125q-0.125 -0.109375 -0.515625 -0.203125q-1.8125 -0.40625 -2.3125 -0.734375q-0.671875 -0.46875 -0.671875 -1.28125q0 -0.75 0.578125 -1.25q0.59375 -0.5 1.828125 -0.5q1.171875 0 1.734375 0.375q0.5625 0.375 0.78125 1.125l-1.421875 0.265625q-0.09375 -0.328125 -0.34375 -0.5q-0.25 -0.1875 -0.734375 -0.1875q-0.59375 0 -0.84375 0.171875q-0.171875 0.109375 -0.171875 0.296875q0 0.171875 0.140625 0.28125q0.203125 0.15625 1.40625 0.4375q1.21875 0.265625 1.6875 0.65625q0.484375 0.40625 0.484375 1.125q0 0.78125 -0.65625 1.34375q-0.65625 0.5625 -1.953125 0.5625q-1.15625 0 -1.84375 -0.46875q-0.671875 -0.46875 -0.875 -1.28125zm6.4108887 -4.078125l1.40625 0l0 0.84375q0.265625 -0.4375 0.734375 -0.703125q0.46875 -0.265625 1.046875 -0.265625q0.984375 0 1.671875 0.78125q0.703125 0.765625 0.703125 2.15625q0 1.4375 -0.703125 2.234375q-0.6875 0.78125 -1.6875 0.78125q-0.46875 0 -0.859375 -0.1875q-0.375 -0.1875 -0.8125 -0.640625l0 2.875l-1.5 0l0 -7.875zm1.484375 2.75q0 0.96875 0.375 1.4375q0.390625 0.453125 0.9375 0.453125q0.53125 0 0.875 -0.421875q0.359375 -0.421875 0.359375 -1.390625q0 -0.890625 -0.359375 -1.328125q-0.359375 -0.4375 -0.890625 -0.4375q-0.5625 0 -0.9375 0.4375q-0.359375 0.421875 -0.359375 1.25zm4.7124023 0.015625q0 -0.75 0.375 -1.453125q0.375 -0.703125 1.046875 -1.0625q0.6875 -0.375 1.515625 -0.375q1.296875 0 2.125 0.84375q0.828125 0.828125 0.828125 2.109375q0 1.296875 -0.84375 2.15625q-0.828125 0.84375 -2.09375 0.84375q-0.78125 0 -1.5 -0.34375q-0.703125 -0.359375 -1.078125 -1.046875q-0.375 -0.6875 -0.375 -1.671875zm1.546875 0.078125q0 0.859375 0.40625 1.3125q0.40625 0.453125 1.0 0.453125q0.578125 0 0.984375 -0.453125q0.40625 -0.453125 0.40625 -1.3125q0 -0.84375 -0.40625 -1.296875q-0.40625 -0.453125 -0.984375 -0.453125q-0.59375 0 -1.0 0.453125q-0.40625 0.453125 -0.40625 1.296875zm10.509277 2.859375l-1.515625 0l0 -2.90625q0 -0.921875 -0.09375 -1.1875q-0.09375 -0.28125 -0.3125 -0.421875q-0.21875 -0.15625 -0.53125 -0.15625q-0.390625 0 -0.703125 0.21875q-0.3125 0.203125 -0.4375 0.5625q-0.109375 0.34375 -0.109375 1.3125l0 2.578125l-1.5 0l0 -5.703125l1.40625 0l0 0.84375q0.734375 -0.96875 1.875 -0.96875q0.5 0 0.90625 0.1875q0.421875 0.171875 0.625 0.453125q0.21875 0.265625 0.296875 0.625q0.09375 0.359375 0.09375 1.015625l0 3.546875zm0.7904663 -1.625l1.5 -0.234375q0.109375 0.4375 0.390625 0.671875q0.296875 0.21875 0.828125 0.21875q0.59375 0 0.890625 -0.203125q0.203125 -0.15625 0.203125 -0.40625q0 -0.171875 -0.109375 -0.28125q-0.125 -0.109375 -0.515625 -0.203125q-1.8125 -0.40625 -2.3125 -0.734375q-0.671875 -0.46875 -0.671875 -1.28125q0 -0.75 0.578125 -1.25q0.59375 -0.5 1.828125 -0.5q1.171875 0 1.734375 0.375q0.5625 0.375 0.78125 1.125l-1.421875 0.265625q-0.09375 -0.328125 -0.34375 -0.5q-0.25 -0.1875 -0.734375 -0.1875q-0.59375 0 -0.84375 0.171875q-0.171875 0.109375 -0.171875 0.296875q0 0.171875 0.140625 0.28125q0.203125 0.15625 1.40625 0.4375q1.21875 0.265625 1.6875 0.65625q0.484375 0.40625 0.484375 1.125q0 0.78125 -0.65625 1.34375q-0.65625 0.5625 -1.953125 0.5625q-1.15625 0 -1.84375 -0.46875q-0.671875 -0.46875 -0.875 -1.28125zm9.754639 -0.1875l1.5 0.25q-0.28125 0.828125 -0.90625 1.265625q-0.625 0.421875 -1.578125 0.421875q-1.484375 0 -2.203125 -0.96875q-0.5625 -0.78125 -0.5625 -1.96875q0 -1.421875 0.734375 -2.21875q0.75 -0.796875 1.890625 -0.796875q1.265625 0 2.0 0.84375q0.734375 0.828125 0.703125 2.5625l-3.78125 0q0.015625 0.671875 0.359375 1.046875q0.359375 0.375 0.875 0.375q0.359375 0 0.59375 -0.1875q0.25 -0.203125 0.375 -0.625zm0.078125 -1.53125q-0.015625 -0.65625 -0.34375 -0.984375q-0.3125 -0.34375 -0.765625 -0.34375q-0.5 0 -0.828125 0.359375q-0.3125 0.359375 -0.3125 0.96875l2.25 0z" fill-rule="nonzero"></path><path fill="#000000" fill-opacity="0.0" d="m736.1627 88.76378l162.01575 0l0 37.354332l-162.01575 0z" fill-rule="evenodd"></path><path fill="#000000" d="m752.7207 110.56378l-2.125 -6.734375l1.734375 0l1.25 4.40625l1.171875 -4.40625l1.71875 0l1.125 4.40625l1.28125 -4.40625l1.765625 0l-2.171875 6.734375l-1.703125 0l-1.171875 -4.328125l-1.140625 4.328125l-1.734375 0zm8.695129 -3.46875q0 -0.890625 0.4375 -1.71875q0.4375 -0.828125 1.234375 -1.265625q0.8125 -0.4375 1.8125 -0.4375q1.515625 0 2.5 1.0q0.984375 0.984375 0.984375 2.5q0 1.53125 -1.0 2.546875q-0.984375 1.0 -2.484375 1.0q-0.921875 0 -1.765625 -0.421875q-0.84375 -0.421875 -1.28125 -1.21875q-0.4375 -0.8125 -0.4375 -1.984375zm1.828125 0.09375q0 1.0 0.46875 1.546875q0.484375 0.53125 1.1875 0.53125q0.703125 0 1.171875 -0.53125q0.46875 -0.546875 0.46875 -1.5625q0 -0.984375 -0.46875 -1.515625q-0.46875 -0.53125 -1.171875 -0.53125q-0.703125 0 -1.1875 0.53125q-0.46875 0.53125 -0.46875 1.53125zm8.438232 3.375l-1.78125 0l0 -6.734375l1.65625 0l0 0.953125q0.421875 -0.6875 0.765625 -0.890625q0.34375 -0.21875 0.765625 -0.21875q0.609375 0 1.171875 0.328125l-0.546875 1.5625q-0.453125 -0.296875 -0.84375 -0.296875q-0.375 0 -0.640625 0.21875q-0.25 0.203125 -0.40625 0.75q-0.140625 0.53125 -0.140625 2.25l0 2.078125zm3.4212036 0l0 -9.3125l1.78125 0l0 4.9375l2.078125 -2.359375l2.203125 0l-2.296875 2.453125l2.46875 4.28125l-1.921875 0l-1.703125 -3.03125l-0.828125 0.875l0 2.15625l-1.78125 0zm11.381226 -2.140625l1.765625 0.296875q-0.34375 0.96875 -1.078125 1.484375q-0.734375 0.515625 -1.84375 0.515625q-1.765625 0 -2.609375 -1.15625q-0.671875 -0.921875 -0.671875 -2.3125q0 -1.6875 0.875 -2.625q0.890625 -0.953125 2.21875 -0.953125q1.515625 0 2.375 1.0q0.875 0.984375 0.828125 3.03125l-4.46875 0q0.03125 0.796875 0.4375 1.234375q0.40625 0.4375 1.03125 0.4375q0.421875 0 0.703125 -0.21875q0.28125 -0.234375 0.4375 -0.734375zm0.09375 -1.8125q-0.015625 -0.765625 -0.40625 -1.171875q-0.375 -0.40625 -0.921875 -0.40625q-0.578125 0 -0.96875 0.421875q-0.375 0.4375 -0.375 1.15625l2.671875 0zm5.1156006 3.953125l-1.78125 0l0 -6.734375l1.65625 0l0 0.953125q0.421875 -0.6875 0.765625 -0.890625q0.34375 -0.21875 0.765625 -0.21875q0.609375 0 1.171875 0.328125l-0.546875 1.5625q-0.453125 -0.296875 -0.84375 -0.296875q-0.375 0 -0.640625 0.21875q-0.25 0.203125 -0.40625 0.75q-0.140625 0.53125 -0.140625 2.25l0 2.078125zm3.2648926 -2.484375l0 -1.78125l3.515625 0l0 1.78125l-3.515625 0zm4.2352295 -0.984375q0 -0.890625 0.4375 -1.71875q0.4375 -0.828125 1.234375 -1.265625q0.8125 -0.4375 1.8125 -0.4375q1.515625 0 2.5 1.0q0.984375 0.984375 0.984375 2.5q0 1.53125 -1.0 2.546875q-0.984375 1.0 -2.484375 1.0q-0.921875 0 -1.765625 -0.421875q-0.84375 -0.421875 -1.28125 -1.21875q-0.4375 -0.8125 -0.4375 -1.984375zm1.828125 0.09375q0 1.0 0.46875 1.546875q0.484375 0.53125 1.1875 0.53125q0.703125 0 1.171875 -0.53125q0.46875 -0.546875 0.46875 -1.5625q0 -0.984375 -0.46875 -1.515625q-0.46875 -0.53125 -1.171875 -0.53125q-0.703125 0 -1.1875 0.53125q-0.46875 0.53125 -0.46875 1.53125zm11.172607 3.375l0 -1.015625q-0.375 0.546875 -0.984375 0.859375q-0.59375 0.3125 -1.25 0.3125q-0.6875 0 -1.234375 -0.296875q-0.53125 -0.296875 -0.78125 -0.84375q-0.234375 -0.546875 -0.234375 -1.484375l0 -4.265625l1.78125 0l0 3.09375q0 1.421875 0.09375 1.75q0.109375 0.3125 0.359375 0.5q0.265625 0.1875 0.671875 0.1875q0.453125 0 0.8125 -0.25q0.375 -0.25 0.5 -0.625q0.140625 -0.375 0.140625 -1.8125l0 -2.84375l1.78125 0l0 6.734375l-1.65625 0zm6.7976074 -6.734375l0 1.421875l-1.21875 0l0 2.703125q0 0.828125 0.03125 0.96875q0.03125 0.140625 0.15625 0.234375q0.125 0.078125 0.296875 0.078125q0.25 0 0.71875 -0.171875l0.15625 1.390625q-0.625 0.265625 -1.40625 0.265625q-0.484375 0 -0.875 -0.15625q-0.390625 -0.171875 -0.578125 -0.421875q-0.171875 -0.265625 -0.234375 -0.703125q-0.0625 -0.3125 -0.0625 -1.25l0 -2.9375l-0.8125 0l0 -1.421875l0.8125 0l0 -1.34375l1.796875 -1.046875l0 2.390625l1.21875 0zm1.2821045 0l1.671875 0l0 0.984375q0.328125 -0.515625 0.875 -0.828125q0.546875 -0.3125 1.21875 -0.3125q1.1875 0 2.0 0.921875q0.8125 0.921875 0.8125 2.5625q0 1.6875 -0.828125 2.625q-0.8125 0.9375 -1.984375 0.9375q-0.5625 0 -1.015625 -0.21875q-0.453125 -0.234375 -0.953125 -0.765625l0 3.390625l-1.796875 0l0 -9.296875zm1.765625 3.25q0 1.140625 0.453125 1.6875q0.453125 0.53125 1.109375 0.53125q0.609375 0 1.015625 -0.5q0.421875 -0.5 0.421875 -1.625q0 -1.0625 -0.421875 -1.578125q-0.421875 -0.515625 -1.046875 -0.515625q-0.65625 0 -1.09375 0.515625q-0.4375 0.5 -0.4375 1.484375zm10.875732 3.484375l0 -1.015625q-0.375 0.546875 -0.984375 0.859375q-0.59375 0.3125 -1.25 0.3125q-0.6875 0 -1.234375 -0.296875q-0.53125 -0.296875 -0.78125 -0.84375q-0.234375 -0.546875 -0.234375 -1.484375l0 -4.265625l1.78125 0l0 3.09375q0 1.421875 0.09375 1.75q0.109375 0.3125 0.359375 0.5q0.265625 0.1875 0.671875 0.1875q0.453125 0 0.8125 -0.25q0.375 -0.25 0.5 -0.625q0.140625 -0.375 0.140625 -1.8125l0 -2.84375l1.78125 0l0 6.734375l-1.65625 0zm6.7976074 -6.734375l0 1.421875l-1.21875 0l0 2.703125q0 0.828125 0.03125 0.96875q0.03125 0.140625 0.15625 0.234375q0.125 0.078125 0.296875 0.078125q0.25 0 0.71875 -0.171875l0.15625 1.390625q-0.625 0.265625 -1.40625 0.265625q-0.484375 0 -0.875 -0.15625q-0.390625 -0.171875 -0.578125 -0.421875q-0.171875 -0.265625 -0.234375 -0.703125q-0.0625 -0.3125 -0.0625 -1.25l0 -2.9375l-0.8125 0l0 -1.421875l0.8125 0l0 -1.34375l1.796875 -1.046875l0 2.390625l1.21875 0zm1.1259155 4.25l0 -1.78125l3.515625 0l0 1.78125l-3.515625 0zm9.0633545 5.046875l0 -3.390625q-0.359375 0.453125 -0.875 0.71875q-0.515625 0.265625 -1.125 0.265625q-1.140625 0 -1.890625 -0.875q-0.875 -1.0 -0.875 -2.734375q0 -1.625 0.8125 -2.53125q0.828125 -0.90625 2.046875 -0.90625q0.671875 0 1.15625 0.28125q0.5 0.28125 0.890625 0.859375l0 -0.984375l1.640625 0l0 9.296875l-1.78125 0zm0.046875 -6.015625q0 -1.03125 -0.421875 -1.53125q-0.421875 -0.515625 -1.046875 -0.515625q-0.65625 0 -1.09375 0.515625q-0.421875 0.515625 -0.421875 1.625q0 1.125 0.40625 1.625q0.421875 0.484375 1.046875 0.484375q0.609375 0 1.0625 -0.546875q0.46875 -0.5625 0.46875 -1.65625zm8.125732 3.453125l0 -1.015625q-0.375 0.546875 -0.984375 0.859375q-0.59375 0.3125 -1.25 0.3125q-0.6875 0 -1.234375 -0.296875q-0.53125 -0.296875 -0.78125 -0.84375q-0.234375 -0.546875 -0.234375 -1.484375l0 -4.265625l1.78125 0l0 3.09375q0 1.421875 0.09375 1.75q0.109375 0.3125 0.359375 0.5q0.265625 0.1875 0.671875 0.1875q0.453125 0 0.8125 -0.25q0.375 -0.25 0.5 -0.625q0.140625 -0.375 0.140625 -1.8125l0 -2.84375l1.78125 0l0 6.734375l-1.65625 0zm7.6101074 -2.140625l1.765625 0.296875q-0.34375 0.96875 -1.078125 1.484375q-0.734375 0.515625 -1.84375 0.515625q-1.765625 0 -2.609375 -1.15625q-0.671875 -0.921875 -0.671875 -2.3125q0 -1.6875 0.875 -2.625q0.890625 -0.953125 2.21875 -0.953125q1.515625 0 2.375 1.0q0.875 0.984375 0.828125 3.03125l-4.46875 0q0.03125 0.796875 0.4375 1.234375q0.40625 0.4375 1.03125 0.4375q0.421875 0 0.703125 -0.21875q0.28125 -0.234375 0.4375 -0.734375zm0.09375 -1.8125q-0.015625 -0.765625 -0.40625 -1.171875q-0.375 -0.40625 -0.921875 -0.40625q-0.578125 0 -0.96875 0.421875q-0.375 0.4375 -0.375 1.15625l2.671875 0zm7.8499756 3.953125l0 -1.015625q-0.375 0.546875 -0.984375 0.859375q-0.59375 0.3125 -1.25 0.3125q-0.6875 0 -1.234375 -0.296875q-0.53125 -0.296875 -0.78125 -0.84375q-0.234375 -0.546875 -0.234375 -1.484375l0 -4.265625l1.78125 0l0 3.09375q0 1.421875 0.09375 1.75q0.109375 0.3125 0.359375 0.5q0.265625 0.1875 0.671875 0.1875q0.453125 0 0.8125 -0.25q0.375 -0.25 0.5 -0.625q0.140625 -0.375 0.140625 -1.8125l0 -2.84375l1.78125 0l0 6.734375l-1.65625 0zm7.6101074 -2.140625l1.765625 0.296875q-0.34375 0.96875 -1.078125 1.484375q-0.734375 0.515625 -1.84375 0.515625q-1.765625 0 -2.609375 -1.15625q-0.671875 -0.921875 -0.671875 -2.3125q0 -1.6875 0.875 -2.625q0.890625 -0.953125 2.21875 -0.953125q1.515625 0 2.375 1.0q0.875 0.984375 0.828125 3.03125l-4.46875 0q0.03125 0.796875 0.4375 1.234375q0.40625 0.4375 1.03125 0.4375q0.421875 0 0.703125 -0.21875q0.28125 -0.234375 0.4375 -0.734375zm0.09375 -1.8125q-0.015625 -0.765625 -0.40625 -1.171875q-0.375 -0.40625 -0.921875 -0.40625q-0.578125 0 -0.96875 0.421875q-0.375 0.4375 -0.375 1.15625l2.671875 0z" fill-rule="nonzero"></path><path fill="#000000" fill-opacity="0.0" d="m31.04987 88.76378l162.01575 0l0 37.354332l-162.01575 0z" fill-rule="evenodd"></path><path fill="#000000" d="m52.046185 110.56378l-2.125 -6.734375l1.734375 0l1.25 4.40625l1.171875 -4.40625l1.71875 0l1.125 4.40625l1.28125 -4.40625l1.765625 0l-2.171875 6.734375l-1.703125 0l-1.171875 -4.328125l-1.140625 4.328125l-1.734375 0zm8.695175 -3.46875q0 -0.890625 0.4375 -1.71875q0.4375 -0.828125 1.234375 -1.265625q0.8125 -0.4375 1.8124962 -0.4375q1.515625 0 2.5 1.0q0.984375 0.984375 0.984375 2.5q0 1.53125 -1.0 2.546875q-0.984375 1.0 -2.484375 1.0q-0.9218712 0 -1.7656212 -0.421875q-0.84375 -0.421875 -1.28125 -1.21875q-0.4375 -0.8125 -0.4375 -1.984375zm1.828125 0.09375q0 1.0 0.46875 1.546875q0.484375 0.53125 1.1874962 0.53125q0.703125 0 1.171875 -0.53125q0.46875 -0.546875 0.46875 -1.5625q0 -0.984375 -0.46875 -1.515625q-0.46875 -0.53125 -1.171875 -0.53125q-0.7031212 0 -1.1874962 0.53125q-0.46875 0.53125 -0.46875 1.53125zm8.438229 3.375l-1.78125 0l0 -6.734375l1.65625 0l0 0.953125q0.421875 -0.6875 0.765625 -0.890625q0.34375 -0.21875 0.765625 -0.21875q0.609375 0 1.171875 0.328125l-0.546875 1.5625q-0.453125 -0.296875 -0.84375 -0.296875q-0.375 0 -0.640625 0.21875q-0.25 0.203125 -0.40625 0.75q-0.140625 0.53125 -0.140625 2.25l0 2.078125zm3.4211578 0l0 -9.3125l1.78125 0l0 4.9375l2.078125 -2.359375l2.203125 0l-2.296875 2.453125l2.46875 4.28125l-1.921875 0l-1.703125 -3.03125l-0.828125 0.875l0 2.15625l-1.78125 0zm11.381226 -2.140625l1.765625 0.296875q-0.34375 0.96875 -1.078125 1.484375q-0.734375 0.515625 -1.84375 0.515625q-1.765625 0 -2.609375 -1.15625q-0.671875 -0.921875 -0.671875 -2.3125q0 -1.6875 0.875 -2.625q0.890625 -0.953125 2.21875 -0.953125q1.515625 0 2.375 1.0q0.875 0.984375 0.828125 3.03125l-4.46875 0q0.03125 0.796875 0.4375 1.234375q0.40625 0.4375 1.03125 0.4375q0.421875 0 0.703125 -0.21875q0.28125 -0.234375 0.4375 -0.734375zm0.09375 -1.8125q-0.015625 -0.765625 -0.40625 -1.171875q-0.375 -0.40625 -0.921875 -0.40625q-0.578125 0 -0.96875 0.421875q-0.375 0.4375 -0.375 1.15625l2.671875 0zm5.1156006 3.953125l-1.78125 0l0 -6.734375l1.65625 0l0 0.953125q0.421875 -0.6875 0.765625 -0.890625q0.34375 -0.21875 0.765625 -0.21875q0.609375 0 1.171875 0.328125l-0.546875 1.5625q-0.453125 -0.296875 -0.84375 -0.296875q-0.375 0 -0.640625 0.21875q-0.25 0.203125 -0.40625 0.75q-0.140625 0.53125 -0.140625 2.25l0 2.078125zm3.2649078 -2.484375l0 -1.78125l3.515625 0l0 1.78125l-3.515625 0zm4.6571198 -5.171875l0 -1.65625l1.78125 0l0 1.65625l-1.78125 0zm0 7.65625l0 -6.734375l1.78125 0l0 6.734375l-1.78125 0zm9.827988 0l-1.78125 0l0 -3.4375q0 -1.09375 -0.125 -1.40625q-0.109375 -0.328125 -0.375 -0.5q-0.25 -0.1875 -0.609375 -0.1875q-0.453125 0 -0.828125 0.265625q-0.359375 0.25 -0.5 0.671875q-0.140625 0.40625 -0.140625 1.546875l0 3.046875l-1.78125 0l0 -6.734375l1.65625 0l0 0.984375q0.875 -1.140625 2.21875 -1.140625q0.59375 0 1.078125 0.21875q0.484375 0.203125 0.734375 0.53125q0.265625 0.328125 0.359375 0.75q0.09375 0.421875 0.09375 1.203125l0 4.1875zm1.9538574 -6.734375l1.671875 0l0 0.984375q0.328125 -0.515625 0.875 -0.828125q0.546875 -0.3125 1.21875 -0.3125q1.1875 0 2.0 0.921875q0.8125 0.921875 0.8125 2.5625q0 1.6875 -0.828125 2.625q-0.8125 0.9375 -1.984375 0.9375q-0.5625 0 -1.015625 -0.21875q-0.453125 -0.234375 -0.953125 -0.765625l0 3.390625l-1.796875 0l0 -9.296875zm1.765625 3.25q0 1.140625 0.453125 1.6875q0.453125 0.53125 1.109375 0.53125q0.609375 0 1.015625 -0.5q0.421875 -0.5 0.421875 -1.625q0 -1.0625 -0.421875 -1.578125q-0.421875 -0.515625 -1.046875 -0.515625q-0.65625 0 -1.09375 0.515625q-0.4375 0.5 -0.4375 1.484375zm10.875732 3.484375l0 -1.015625q-0.375 0.546875 -0.984375 0.859375q-0.59375 0.3125 -1.25 0.3125q-0.6875 0 -1.234375 -0.296875q-0.53125 -0.296875 -0.78125 -0.84375q-0.234375 -0.546875 -0.234375 -1.484375l0 -4.265625l1.78125 0l0 3.09375q0 1.421875 0.09375 1.75q0.109375 0.3125 0.359375 0.5q0.265625 0.1875 0.671875 0.1875q0.453125 0 0.8125 -0.25q0.375 -0.25 0.5 -0.625q0.140625 -0.375 0.140625 -1.8125l0 -2.84375l1.78125 0l0 6.734375l-1.65625 0zm6.797615 -6.734375l0 1.421875l-1.21875 0l0 2.703125q0 0.828125 0.03125 0.96875q0.03125 0.140625 0.15625 0.234375q0.125 0.078125 0.296875 0.078125q0.25 0 0.71875 -0.171875l0.15625 1.390625q-0.625 0.265625 -1.40625 0.265625q-0.484375 0 -0.875 -0.15625q-0.39063263 -0.171875 -0.5781326 -0.421875q-0.171875 -0.265625 -0.234375 -0.703125q-0.0625 -0.3125 -0.0625 -1.25l0 -2.9375l-0.8125 0l0 -1.421875l0.8125 0l0 -1.34375l1.7968826 -1.046875l0 2.390625l1.21875 0zm1.1258698 4.25l0 -1.78125l3.515625 0l0 1.78125l-3.515625 0zm9.06337 5.046875l0 -3.390625q-0.359375 0.453125 -0.875 0.71875q-0.515625 0.265625 -1.125 0.265625q-1.140625 0 -1.890625 -0.875q-0.875 -1.0 -0.875 -2.734375q0 -1.625 0.8125 -2.53125q0.828125 -0.90625 2.046875 -0.90625q0.671875 0 1.15625 0.28125q0.5 0.28125 0.890625 0.859375l0 -0.984375l1.640625 0l0 9.296875l-1.78125 0zm0.046875 -6.015625q0 -1.03125 -0.421875 -1.53125q-0.421875 -0.515625 -1.046875 -0.515625q-0.65625 0 -1.09375 0.515625q-0.421875 0.515625 -0.421875 1.625q0 1.125 0.40625 1.625q0.421875 0.484375 1.046875 0.484375q0.609375 0 1.0625 -0.546875q0.46875 -0.5625 0.46875 -1.65625zm8.125732 3.453125l0 -1.015625q-0.375 0.546875 -0.984375 0.859375q-0.59375 0.3125 -1.25 0.3125q-0.6875 0 -1.234375 -0.296875q-0.53125 -0.296875 -0.78125 -0.84375q-0.234375 -0.546875 -0.234375 -1.484375l0 -4.265625l1.78125 0l0 3.09375q0 1.421875 0.09375 1.75q0.109375 0.3125 0.359375 0.5q0.265625 0.1875 0.671875 0.1875q0.453125 0 0.8125 -0.25q0.375 -0.25 0.5 -0.625q0.140625 -0.375 0.140625 -1.8125l0 -2.84375l1.78125 0l0 6.734375l-1.65625 0zm7.6101074 -2.140625l1.765625 0.296875q-0.34375 0.96875 -1.078125 1.484375q-0.734375 0.515625 -1.84375 0.515625q-1.765625 0 -2.609375 -1.15625q-0.671875 -0.921875 -0.671875 -2.3125q0 -1.6875 0.875 -2.625q0.890625 -0.953125 2.21875 -0.953125q1.515625 0 2.375 1.0q0.875 0.984375 0.828125 3.03125l-4.46875 0q0.03125 0.796875 0.4375 1.234375q0.40625 0.4375 1.03125 0.4375q0.421875 0 0.703125 -0.21875q0.28125 -0.234375 0.4375 -0.734375zm0.09375 -1.8125q-0.015625 -0.765625 -0.40625 -1.171875q-0.375 -0.40625 -0.921875 -0.40625q-0.578125 0 -0.96875 0.421875q-0.375 0.4375 -0.375 1.15625l2.671875 0zm7.8499756 3.953125l0 -1.015625q-0.375 0.546875 -0.984375 0.859375q-0.59375 0.3125 -1.25 0.3125q-0.6875 0 -1.234375 -0.296875q-0.53125 -0.296875 -0.78125 -0.84375q-0.234375 -0.546875 -0.234375 -1.484375l0 -4.265625l1.78125 0l0 3.09375q0 1.421875 0.09375 1.75q0.109375 0.3125 0.359375 0.5q0.265625 0.1875 0.671875 0.1875q0.453125 0 0.8125 -0.25q0.375 -0.25 0.5 -0.625q0.140625 -0.375 0.140625 -1.8125l0 -2.84375l1.78125 0l0 6.734375l-1.65625 0zm7.6101074 -2.140625l1.765625 0.296875q-0.34375 0.96875 -1.078125 1.484375q-0.734375 0.515625 -1.84375 0.515625q-1.765625 0 -2.609375 -1.15625q-0.671875 -0.921875 -0.671875 -2.3125q0 -1.6875 0.875 -2.625q0.890625 -0.953125 2.21875 -0.953125q1.515625 0 2.375 1.0q0.875 0.984375 0.828125 3.03125l-4.46875 0q0.03125 0.796875 0.4375 1.234375q0.40625 0.4375 1.03125 0.4375q0.421875 0 0.703125 -0.21875q0.28125 -0.234375 0.4375 -0.734375zm0.09375 -1.8125q-0.015625 -0.765625 -0.40625 -1.171875q-0.375 -0.40625 -0.921875 -0.40625q-0.578125 0 -0.96875 0.421875q-0.375 0.4375 -0.375 1.15625l2.671875 0z" fill-rule="nonzero"></path><path fill="#000000" fill-opacity="0.0" d="m203.44095 163.88977l91.1181 0l0 52.503937l-91.1181 0z" fill-rule="evenodd"></path><path fill="#000000" d="m216.76907 183.12976l-1.515625 0l0 -5.6875q-0.8125 0.765625 -1.9375 1.140625l0 -1.359375q0.59375 -0.203125 1.28125 -0.734375q0.6875 -0.546875 0.953125 -1.265625l1.21875 0l0 7.90625zm2.3952484 0l0 -1.515625l1.5 0l0 1.515625l-1.5 0zm5.515045 -2.5625l1.546875 -0.15625q0.140625 0.78125 0.5625 1.15625q0.4375 0.359375 1.15625 0.359375q0.78125 0 1.15625 -0.328125q0.390625 -0.328125 0.390625 -0.75q0 -0.28125 -0.171875 -0.46875q-0.15625 -0.203125 -0.5625 -0.359375q-0.28125 -0.09375 -1.265625 -0.34375q-1.28125 -0.3125 -1.796875 -0.78125q-0.71875 -0.640625 -0.71875 -1.578125q0 -0.59375 0.328125 -1.109375q0.34375 -0.53125 0.984375 -0.8125q0.640625 -0.28125 1.5625 -0.28125q1.46875 0 2.21875 0.65625q0.75 0.65625 0.796875 1.734375l-1.59375 0.078125q-0.109375 -0.609375 -0.4375 -0.875q-0.328125 -0.265625 -1.0 -0.265625q-0.703125 0 -1.09375 0.28125q-0.25 0.1875 -0.25 0.484375q0 0.28125 0.234375 0.484375q0.296875 0.25 1.453125 0.53125q1.171875 0.265625 1.71875 0.5625q0.5625 0.28125 0.875 0.796875q0.3125 0.5 0.3125 1.25q0 0.6875 -0.375 1.28125q-0.375 0.578125 -1.0625 0.875q-0.6875 0.28125 -1.71875 0.28125q-1.484375 0 -2.296875 -0.6875q-0.796875 -0.6875 -0.953125 -2.015625zm10.1232605 -3.140625l0 1.203125l-1.03125 0l0 2.296875q0 0.703125 0.03125 0.828125q0.03125 0.109375 0.125 0.1875q0.109375 0.0625 0.265625 0.0625q0.203125 0 0.609375 -0.140625l0.125 1.171875q-0.53125 0.21875 -1.1875 0.21875q-0.421875 0 -0.75 -0.125q-0.328125 -0.140625 -0.484375 -0.359375q-0.140625 -0.21875 -0.203125 -0.59375q-0.046875 -0.265625 -0.046875 -1.0625l0 -2.484375l-0.6875 0l0 -1.203125l0.6875 0l0 -1.140625l1.515625 -0.875l0 2.015625l1.03125 0zm2.0642395 1.734375l-1.375 -0.25q0.234375 -0.8125 0.796875 -1.203125q0.5625 -0.40625 1.671875 -0.40625q1.015625 0 1.5 0.234375q0.5 0.234375 0.703125 0.609375q0.203125 0.359375 0.203125 1.34375l-0.015625 1.765625q0 0.75 0.0625 1.109375q0.078125 0.359375 0.28125 0.765625l-1.5 0q-0.0625 -0.15625 -0.140625 -0.453125q-0.03125 -0.125 -0.046875 -0.171875q-0.390625 0.375 -0.84375 0.5625q-0.4375 0.1875 -0.9375 0.1875q-0.875 0 -1.390625 -0.46875q-0.5 -0.484375 -0.5 -1.21875q0 -0.484375 0.234375 -0.859375q0.234375 -0.375 0.640625 -0.578125q0.421875 -0.203125 1.203125 -0.359375q1.0625 -0.1875 1.46875 -0.359375l0 -0.15625q0 -0.4375 -0.21875 -0.609375q-0.21875 -0.1875 -0.8125 -0.1875q-0.390625 0 -0.625 0.15625q-0.21875 0.15625 -0.359375 0.546875zm2.015625 1.234375q-0.296875 0.09375 -0.921875 0.234375q-0.625 0.125 -0.8125 0.25q-0.296875 0.21875 -0.296875 0.53125q0 0.328125 0.234375 0.5625q0.234375 0.21875 0.59375 0.21875q0.40625 0 0.78125 -0.265625q0.28125 -0.203125 0.359375 -0.5q0.0625 -0.1875 0.0625 -0.734375l0 -0.296875zm4.2233734 2.734375l-1.515625 0l0 -5.703125l1.40625 0l0 0.8125q0.359375 -0.578125 0.640625 -0.75q0.296875 -0.1875 0.65625 -0.1875q0.515625 0 1.0 0.28125l-0.46875 1.3125q-0.375 -0.25 -0.703125 -0.25q-0.328125 0 -0.546875 0.1875q-0.21875 0.171875 -0.34375 0.625q-0.125 0.453125 -0.125 1.90625l0 1.765625zm5.318863 -5.703125l0 1.203125l-1.03125 0l0 2.296875q0 0.703125 0.03125 0.828125q0.03125 0.109375 0.125 0.1875q0.109375 0.0625 0.265625 0.0625q0.203125 0 0.609375 -0.140625l0.125 1.171875q-0.53125 0.21875 -1.1875 0.21875q-0.421875 0 -0.75 -0.125q-0.328125 -0.140625 -0.484375 -0.359375q-0.140625 -0.21875 -0.203125 -0.59375q-0.046875 -0.265625 -0.046875 -1.0625l0 -2.484375l-0.6875 0l0 -1.203125l0.6875 0l0 -1.140625l1.515625 -0.875l0 2.015625l1.03125 0z" fill-rule="nonzero"></path><path fill="#000000" d="m213.19095 190.42664l1.40625 0l0 0.84375q0.265625 -0.4375 0.734375 -0.703125q0.46875 -0.265625 1.046875 -0.265625q0.984375 0 1.671875 0.78125q0.703125 0.765625 0.703125 2.15625q0 1.4375 -0.703125 2.234375q-0.6875 0.78125 -1.6875 0.78125q-0.46875 0 -0.859375 -0.1875q-0.375 -0.1875 -0.8125 -0.640625l0 2.875l-1.5 0l0 -7.875zm1.484375 2.75q0 0.96875 0.375 1.4375q0.390625 0.453125 0.9375 0.453125q0.53125 0 0.875 -0.421875q0.359375 -0.421875 0.359375 -1.390625q0 -0.890625 -0.359375 -1.328125q-0.359375 -0.4375 -0.890625 -0.4375q-0.5625 0 -0.9375 0.4375q-0.359375 0.421875 -0.359375 1.25zm6.509262 2.953125l-1.515625 0l0 -5.703125l1.40625 0l0 0.8125q0.359375 -0.578125 0.640625 -0.75q0.296875 -0.1875 0.65625 -0.1875q0.515625 0 1.0 0.28125l-0.46875 1.3125q-0.375 -0.25 -0.703125 -0.25q-0.328125 0 -0.546875 0.1875q-0.21875 0.171875 -0.34375 0.625q-0.125 0.453125 -0.125 1.90625l0 1.765625zm2.350113 -2.9375q0 -0.75 0.375 -1.453125q0.375 -0.703125 1.046875 -1.0625q0.6875 -0.375 1.515625 -0.375q1.296875 0 2.125 0.84375q0.828125 0.828125 0.828125 2.109375q0 1.296875 -0.84375 2.15625q-0.828125 0.84375 -2.09375 0.84375q-0.78125 0 -1.5 -0.34375q-0.703125 -0.359375 -1.078125 -1.046875q-0.375 -0.6875 -0.375 -1.671875zm1.546875 0.078125q0 0.859375 0.40625 1.3125q0.40625 0.453125 1.0 0.453125q0.578125 0 0.984375 -0.453125q0.40625 -0.453125 0.40625 -1.3125q0 -0.84375 -0.40625 -1.296875q-0.40625 -0.453125 -0.984375 -0.453125q-0.59375 0 -1.0 0.453125q-0.40625 0.453125 -0.40625 1.296875zm10.290512 -1.15625l-1.484375 0.265625q-0.078125 -0.4375 -0.34375 -0.65625q-0.265625 -0.234375 -0.6875 -0.234375q-0.5625 0 -0.90625 0.390625q-0.328125 0.375 -0.328125 1.296875q0 1.015625 0.328125 1.4375q0.34375 0.421875 0.921875 0.421875q0.4375 0 0.703125 -0.25q0.28125 -0.25 0.390625 -0.84375l1.484375 0.25q-0.234375 1.03125 -0.890625 1.546875q-0.65625 0.515625 -1.75 0.515625q-1.265625 0 -2.015625 -0.78125q-0.734375 -0.796875 -0.734375 -2.1875q0 -1.421875 0.75 -2.203125q0.75 -0.78125 2.015625 -0.78125q1.046875 0 1.65625 0.453125q0.625 0.4375 0.890625 1.359375zm4.2546234 2.203125l1.5 0.25q-0.28125 0.828125 -0.90625 1.265625q-0.625 0.421875 -1.578125 0.421875q-1.484375 0 -2.203125 -0.96875q-0.5625 -0.78125 -0.5625 -1.96875q0 -1.421875 0.734375 -2.21875q0.75 -0.796875 1.890625 -0.796875q1.265625 0 2.0 0.84375q0.734375 0.828125 0.703125 2.5625l-3.78125 0q0.015625 0.671875 0.359375 1.046875q0.359375 0.375 0.875 0.375q0.359375 0 0.59375 -0.1875q0.25 -0.203125 0.375 -0.625zm0.078125 -1.53125q-0.015625 -0.65625 -0.34375 -0.984375q-0.3125 -0.34375 -0.765625 -0.34375q-0.5 0 -0.828125 0.359375q-0.3125 0.359375 -0.3125 0.96875l2.25 0zm2.0202484 1.71875l1.5 -0.234375q0.109375 0.4375 0.390625 0.671875q0.296875 0.21875 0.828125 0.21875q0.59375 0 0.890625 -0.203125q0.203125 -0.15625 0.203125 -0.40625q0 -0.171875 -0.109375 -0.28125q-0.125 -0.109375 -0.515625 -0.203125q-1.8125 -0.40625 -2.3125 -0.734375q-0.671875 -0.46875 -0.671875 -1.28125q0 -0.75 0.578125 -1.25q0.59375 -0.5 1.828125 -0.5q1.171875 0 1.734375 0.375q0.5625 0.375 0.78125 1.125l-1.421875 0.265625q-0.09375 -0.328125 -0.34375 -0.5q-0.25 -0.1875 -0.734375 -0.1875q-0.59375 0 -0.84375 0.171875q-0.171875 0.109375 -0.171875 0.296875q0 0.171875 0.140625 0.28125q0.203125 0.15625 1.40625 0.4375q1.21875 0.265625 1.6875 0.65625q0.484375 0.40625 0.484375 1.125q0 0.78125 -0.65625 1.34375q-0.65625 0.5625 -1.953125 0.5625q-1.15625 0 -1.84375 -0.46875q-0.671875 -0.46875 -0.875 -1.28125zm5.9264984 0l1.5 -0.234375q0.109375 0.4375 0.390625 0.671875q0.296875 0.21875 0.828125 0.21875q0.59375 0 0.890625 -0.203125q0.203125 -0.15625 0.203125 -0.40625q0 -0.171875 -0.109375 -0.28125q-0.125 -0.109375 -0.515625 -0.203125q-1.8125 -0.40625 -2.3125 -0.734375q-0.671875 -0.46875 -0.671875 -1.28125q0 -0.75 0.578125 -1.25q0.59375 -0.5 1.828125 -0.5q1.171875 0 1.734375 0.375q0.5625 0.375 0.78125 1.125l-1.421875 0.265625q-0.09375 -0.328125 -0.34375 -0.5q-0.25 -0.1875 -0.734375 -0.1875q-0.59375 0 -0.84375 0.171875q-0.171875 0.109375 -0.171875 0.296875q0 0.171875 0.140625 0.28125q0.203125 0.15625 1.40625 0.4375q1.21875 0.265625 1.6875 0.65625q0.484375 0.40625 0.484375 1.125q0 0.78125 -0.65625 1.34375q-0.65625 0.5625 -1.953125 0.5625q-1.15625 0 -1.84375 -0.46875q-0.671875 -0.46875 -0.875 -1.28125zm6.4577484 -4.859375l0 -1.390625l1.5 0l0 1.390625l-1.5 0zm0 6.484375l0 -5.703125l1.5 0l0 5.703125l-1.5 0zm8.148148 0l-1.515625 0l0 -2.90625q0 -0.921875 -0.09375 -1.1875q-0.09375 -0.28125 -0.3125 -0.421875q-0.21875 -0.15625 -0.53125 -0.15625q-0.390625 0 -0.703125 0.21875q-0.3125 0.203125 -0.4375 0.5625q-0.109375 0.34375 -0.109375 1.3125l0 2.578125l-1.5 0l0 -5.703125l1.40625 0l0 0.84375q0.734375 -0.96875 1.875 -0.96875q0.5 0 0.90625 0.1875q0.421875 0.171875 0.625 0.453125q0.21875 0.265625 0.296875 0.625q0.09375 0.359375 0.09375 1.015625l0 3.546875zm1.1811218 0.375l1.71875 0.203125q0.046875 0.3125 0.203125 0.421875q0.203125 0.15625 0.671875 0.15625q0.59375 0 0.890625 -0.171875q0.1875 -0.125 0.296875 -0.375q0.0625 -0.203125 0.0625 -0.703125l0 -0.828125q-0.671875 0.921875 -1.703125 0.921875q-1.140625 0 -1.8125 -0.96875q-0.53125 -0.765625 -0.53125 -1.921875q0 -1.421875 0.6875 -2.171875q0.6875 -0.765625 1.71875 -0.765625q1.0625 0 1.75 0.921875l0 -0.796875l1.40625 0l0 5.125q0 1.0 -0.171875 1.5q-0.15625 0.5 -0.46875 0.78125q-0.296875 0.296875 -0.796875 0.453125q-0.5 0.15625 -1.265625 0.15625q-1.453125 0 -2.0625 -0.5q-0.609375 -0.484375 -0.609375 -1.25q0 -0.078125 0.015625 -0.1875zm1.34375 -3.34375q0 0.90625 0.34375 1.328125q0.359375 0.421875 0.875 0.421875q0.546875 0 0.921875 -0.421875q0.390625 -0.4375 0.390625 -1.296875q0 -0.875 -0.375 -1.296875q-0.359375 -0.4375 -0.90625 -0.4375q-0.546875 0 -0.90625 0.421875q-0.34375 0.421875 -0.34375 1.28125z" fill-rule="nonzero"></path><path fill="#000000" d="m213.11282 203.42664l1.390625 0l0 0.78125q0.75 -0.90625 1.78125 -0.90625q0.546875 0 0.953125 0.234375q0.40625 0.21875 0.65625 0.671875q0.375 -0.453125 0.8125 -0.671875q0.4375 -0.234375 0.9375 -0.234375q0.625 0 1.0625 0.25q0.4375 0.25 0.640625 0.75q0.15625 0.359375 0.15625 1.1875l0 3.640625l-1.5 0l0 -3.265625q0 -0.84375 -0.15625 -1.09375q-0.21875 -0.3125 -0.65625 -0.3125q-0.3125 0 -0.59375 0.1875q-0.28125 0.1875 -0.40625 0.5625q-0.109375 0.375 -0.109375 1.1875l0 2.734375l-1.515625 0l0 -3.125q0 -0.828125 -0.078125 -1.0625q-0.078125 -0.25 -0.25 -0.359375q-0.171875 -0.125 -0.46875 -0.125q-0.34375 0 -0.625 0.1875q-0.28125 0.1875 -0.40625 0.546875q-0.109375 0.34375 -0.109375 1.171875l0 2.765625l-1.515625 0l0 -5.703125zm12.896988 3.890625l1.5 0.25q-0.28125 0.828125 -0.90625 1.265625q-0.625 0.421875 -1.578125 0.421875q-1.484375 0 -2.203125 -0.96875q-0.5625 -0.78125 -0.5625 -1.96875q0 -1.421875 0.734375 -2.21875q0.75 -0.796875 1.890625 -0.796875q1.265625 0 2.0 0.84375q0.734375 0.828125 0.703125 2.5625l-3.78125 0q0.015625 0.671875 0.359375 1.046875q0.359375 0.375 0.875 0.375q0.359375 0 0.59375 -0.1875q0.25 -0.203125 0.375 -0.625zm0.078125 -1.53125q-0.015625 -0.65625 -0.34375 -0.984375q-0.3125 -0.34375 -0.765625 -0.34375q-0.5 0 -0.828125 0.359375q-0.3125 0.359375 -0.3125 0.96875l2.25 0zm2.0202484 1.71875l1.5 -0.234375q0.109375 0.4375 0.390625 0.671875q0.296875 0.21875 0.828125 0.21875q0.59375 0 0.890625 -0.203125q0.203125 -0.15625 0.203125 -0.40625q0 -0.171875 -0.109375 -0.28125q-0.125 -0.109375 -0.515625 -0.203125q-1.8125 -0.40625 -2.3125 -0.734375q-0.671875 -0.46875 -0.671875 -1.28125q0 -0.75 0.578125 -1.25q0.59375 -0.5 1.828125 -0.5q1.171875 0 1.734375 0.375q0.5625 0.375 0.78125 1.125l-1.421875 0.265625q-0.09375 -0.328125 -0.34375 -0.5q-0.25 -0.1875 -0.734375 -0.1875q-0.59375 0 -0.84375 0.171875q-0.171875 0.109375 -0.171875 0.296875q0 0.171875 0.140625 0.28125q0.203125 0.15625 1.40625 0.4375q1.21875 0.265625 1.6875 0.65625q0.484375 0.40625 0.484375 1.125q0 0.78125 -0.65625 1.34375q-0.65625 0.5625 -1.953125 0.5625q-1.15625 0 -1.84375 -0.46875q-0.671875 -0.46875 -0.875 -1.28125zm5.9264984 0l1.5 -0.234375q0.109375 0.4375 0.390625 0.671875q0.296875 0.21875 0.828125 0.21875q0.59375 0 0.890625 -0.203125q0.203125 -0.15625 0.203125 -0.40625q0 -0.171875 -0.109375 -0.28125q-0.125 -0.109375 -0.515625 -0.203125q-1.8125 -0.40625 -2.3125 -0.734375q-0.671875 -0.46875 -0.671875 -1.28125q0 -0.75 0.578125 -1.25q0.59375 -0.5 1.828125 -0.5q1.171875 0 1.734375 0.375q0.5625 0.375 0.78125 1.125l-1.421875 0.265625q-0.09375 -0.328125 -0.34375 -0.5q-0.25 -0.1875 -0.734375 -0.1875q-0.59375 0 -0.84375 0.171875q-0.171875 0.109375 -0.171875 0.296875q0 0.171875 0.140625 0.28125q0.203125 0.15625 1.40625 0.4375q1.21875 0.265625 1.6875 0.65625q0.484375 0.40625 0.484375 1.125q0 0.78125 -0.65625 1.34375q-0.65625 0.5625 -1.953125 0.5625q-1.15625 0 -1.84375 -0.46875q-0.671875 -0.46875 -0.875 -1.28125zm7.5827484 -2.34375l-1.375 -0.25q0.234375 -0.8125 0.796875 -1.203125q0.5625 -0.40625 1.671875 -0.40625q1.015625 0 1.5 0.234375q0.5 0.234375 0.703125 0.609375q0.203125 0.359375 0.203125 1.34375l-0.015625 1.765625q0 0.75 0.0625 1.109375q0.078125 0.359375 0.28125 0.765625l-1.5 0q-0.0625 -0.15625 -0.140625 -0.453125q-0.03125 -0.125 -0.046875 -0.171875q-0.390625 0.375 -0.84375 0.5625q-0.4375 0.1875 -0.9375 0.1875q-0.875 0 -1.390625 -0.46875q-0.5 -0.484375 -0.5 -1.21875q0 -0.484375 0.234375 -0.859375q0.234375 -0.375 0.640625 -0.578125q0.421875 -0.203125 1.203125 -0.359375q1.0625 -0.1875 1.46875 -0.359375l0 -0.15625q0 -0.4375 -0.21875 -0.609375q-0.21875 -0.1875 -0.8125 -0.1875q-0.390625 0 -0.625 0.15625q-0.21875 0.15625 -0.359375 0.546875zm2.015625 1.234375q-0.296875 0.09375 -0.921875 0.234375q-0.625 0.125 -0.8125 0.25q-0.296875 0.21875 -0.296875 0.53125q0 0.328125 0.234375 0.5625q0.234375 0.21875 0.59375 0.21875q0.40625 0 0.78125 -0.265625q0.28125 -0.203125 0.359375 -0.5q0.0625 -0.1875 0.0625 -0.734375l0 -0.296875zm2.6452484 3.109375l1.71875 0.203125q0.046875 0.3125 0.203125 0.421875q0.203125 0.15625 0.671875 0.15625q0.59375 0 0.890625 -0.171875q0.1875 -0.125 0.296875 -0.375q0.0625 -0.203125 0.0625 -0.703125l0 -0.828125q-0.671875 0.921875 -1.703125 0.921875q-1.140625 0 -1.8125 -0.96875q-0.53125 -0.765625 -0.53125 -1.921875q0 -1.421875 0.6875 -2.171875q0.6875 -0.765625 1.71875 -0.765625q1.0625 0 1.75 0.921875l0 -0.796875l1.40625 0l0 5.125q0 1.0 -0.171875 1.5q-0.15625 0.5 -0.46875 0.78125q-0.296875 0.296875 -0.796875 0.453125q-0.5 0.15625 -1.265625 0.15625q-1.453125 0 -2.0625 -0.5q-0.609375 -0.484375 -0.609375 -1.25q0 -0.078125 0.015625 -0.1875zm1.34375 -3.34375q0 0.90625 0.34375 1.328125q0.359375 0.421875 0.875 0.421875q0.546875 0 0.921875 -0.421875q0.390625 -0.4375 0.390625 -1.296875q0 -0.875 -0.375 -1.296875q-0.359375 -0.4375 -0.90625 -0.4375q-0.546875 0 -0.90625 0.421875q-0.34375 0.421875 -0.34375 1.28125zm8.603012 1.15625l1.5 0.25q-0.28125 0.828125 -0.90625 1.265625q-0.625 0.421875 -1.578125 0.421875q-1.484375 0 -2.203125 -0.96875q-0.5625 -0.78125 -0.5625 -1.96875q0 -1.421875 0.734375 -2.21875q0.75 -0.796875 1.890625 -0.796875q1.265625 0 2.0 0.84375q0.734375 0.828125 0.703125 2.5625l-3.78125 0q0.015625 0.671875 0.359375 1.046875q0.359375 0.375 0.875 0.375q0.359375 0 0.59375 -0.1875q0.25 -0.203125 0.375 -0.625zm0.078125 -1.53125q-0.015625 -0.65625 -0.34375 -0.984375q-0.3125 -0.34375 -0.765625 -0.34375q-0.5 0 -0.828125 0.359375q-0.3125 0.359375 -0.3125 0.96875l2.25 0z" fill-rule="nonzero"></path><path fill="#000000" fill-opacity="0.0" d="m294.55905 25.251968l364.9764 0l0 44.377953l-364.9764 0z" fill-rule="evenodd"></path><path fill="#000000" d="m407.77072 52.171967l-3.25 -13.59375l2.8125 0l2.046875 9.328125l2.484375 -9.328125l3.265625 0l2.390625 9.5l2.09375 -9.5l2.765625 0l-3.3125 13.59375l-2.90625 0l-2.71875 -10.171875l-2.6875 10.171875l-2.984375 0zm15.061768 -5.0625q0 -1.296875 0.640625 -2.515625q0.640625 -1.21875 1.8125 -1.859375q1.171875 -0.640625 2.609375 -0.640625q2.25 0 3.671875 1.453125q1.421875 1.453125 1.421875 3.671875q0 2.234375 -1.4375 3.703125q-1.4375 1.46875 -3.625 1.46875q-1.359375 0 -2.59375 -0.609375q-1.21875 -0.609375 -1.859375 -1.796875q-0.640625 -1.1875 -0.640625 -2.875zm2.671875 0.140625q0 1.46875 0.6875 2.25q0.703125 0.765625 1.71875 0.765625q1.015625 0 1.703125 -0.765625q0.703125 -0.78125 0.703125 -2.265625q0 -1.453125 -0.703125 -2.234375q-0.6875 -0.78125 -1.703125 -0.78125q-1.015625 0 -1.71875 0.78125q-0.6875 0.78125 -0.6875 2.25zm11.817871 4.921875l-2.609375 0l0 -9.859375l2.421875 0l0 1.40625q0.625 -0.984375 1.109375 -1.296875q0.5 -0.328125 1.140625 -0.328125q0.890625 0 1.71875 0.5l-0.8125 2.265625q-0.65625 -0.421875 -1.21875 -0.421875q-0.546875 0 -0.9375 0.296875q-0.375 0.296875 -0.59375 1.09375q-0.21875 0.78125 -0.21875 3.296875l0 3.046875zm4.666504 0l0 -13.59375l2.609375 0l0 7.203125l3.0625 -3.46875l3.203125 0l-3.375 3.609375l3.609375 6.25l-2.796875 0l-2.484375 -4.421875l-1.21875 1.265625l0 3.15625l-2.609375 0zm16.172607 -3.140625l2.609375 0.4375q-0.5 1.4375 -1.59375 2.1875q-1.078125 0.734375 -2.703125 0.734375q-2.5625 0 -3.796875 -1.671875q-0.96875 -1.34375 -0.96875 -3.40625q0 -2.4375 1.265625 -3.828125q1.28125 -1.390625 3.25 -1.390625q2.1875 0 3.453125 1.453125q1.28125 1.453125 1.234375 4.453125l-6.53125 0q0.015625 1.15625 0.625 1.8125q0.609375 0.640625 1.5 0.640625q0.609375 0 1.03125 -0.328125q0.421875 -0.34375 0.625 -1.09375zm0.15625 -2.625q-0.03125 -1.140625 -0.59375 -1.71875q-0.546875 -0.59375 -1.34375 -0.59375q-0.859375 0 -1.40625 0.625q-0.5625 0.609375 -0.546875 1.6875l3.890625 0zm7.016327 5.765625l-2.609375 0l0 -9.859375l2.421875 0l0 1.40625q0.625 -0.984375 1.109375 -1.296875q0.5 -0.328125 1.140625 -0.328125q0.890625 0 1.71875 0.5l-0.8125 2.265625q-0.65625 -0.421875 -1.21875 -0.421875q-0.546875 0 -0.9375 0.296875q-0.375 0.296875 -0.59375 1.09375q-0.21875 0.78125 -0.21875 3.296875l0 3.046875zm9.271698 -4.421875l2.671875 -0.265625q0.234375 1.34375 0.96875 1.984375q0.75 0.625 2.0 0.625q1.328125 0 2.0 -0.5625q0.671875 -0.5625 0.671875 -1.3125q0 -0.484375 -0.28125 -0.8125q-0.28125 -0.34375 -0.984375 -0.59375q-0.484375 -0.171875 -2.203125 -0.59375q-2.203125 -0.546875 -3.09375 -1.34375q-1.265625 -1.125 -1.265625 -2.734375q0 -1.046875 0.59375 -1.953125q0.59375 -0.90625 1.703125 -1.375q1.109375 -0.46875 2.671875 -0.46875q2.5625 0 3.859375 1.125q1.296875 1.109375 1.359375 2.984375l-2.75 0.125q-0.171875 -1.046875 -0.75 -1.5q-0.578125 -0.46875 -1.75 -0.46875q-1.1875 0 -1.875 0.5q-0.4375 0.3125 -0.4375 0.84375q0 0.484375 0.421875 0.828125q0.515625 0.421875 2.515625 0.90625q2.0 0.46875 2.953125 0.984375q0.96875 0.5 1.515625 1.375q0.546875 0.875 0.546875 2.15625q0 1.171875 -0.65625 2.203125q-0.640625 1.015625 -1.828125 1.515625q-1.1875 0.484375 -2.96875 0.484375q-2.578125 0 -3.96875 -1.1875q-1.375 -1.1875 -1.640625 -3.46875zm19.599823 4.421875l0 -1.46875q-0.53125 0.78125 -1.40625 1.234375q-0.875 0.453125 -1.859375 0.453125q-0.984375 0 -1.78125 -0.4375q-0.78125 -0.4375 -1.140625 -1.21875q-0.34375 -0.796875 -0.34375 -2.1875l0 -6.234375l2.609375 0l0 4.53125q0 2.078125 0.140625 2.546875q0.140625 0.46875 0.515625 0.75q0.390625 0.265625 0.96875 0.265625q0.671875 0 1.203125 -0.359375q0.53125 -0.375 0.71875 -0.90625q0.1875 -0.546875 0.1875 -2.671875l0 -4.15625l2.609375 0l0 9.859375l-2.421875 0zm13.505371 -6.9375l-2.5625 0.46875q-0.140625 -0.78125 -0.59375 -1.171875q-0.453125 -0.390625 -1.1875 -0.390625q-0.984375 0 -1.5625 0.671875q-0.578125 0.671875 -0.578125 2.25q0 1.765625 0.578125 2.484375q0.59375 0.71875 1.59375 0.71875q0.75 0 1.21875 -0.421875q0.46875 -0.421875 0.671875 -1.453125l2.546875 0.4375q-0.390625 1.765625 -1.53125 2.671875q-1.125 0.890625 -3.03125 0.890625q-2.15625 0 -3.453125 -1.359375q-1.28125 -1.359375 -1.28125 -3.78125q0 -2.4375 1.296875 -3.796875q1.296875 -1.359375 3.484375 -1.359375q1.796875 0 2.859375 0.78125q1.0625 0.765625 1.53125 2.359375zm10.375732 0l-2.5625 0.46875q-0.140625 -0.78125 -0.59375 -1.171875q-0.453125 -0.390625 -1.1875 -0.390625q-0.984375 0 -1.5625 0.671875q-0.5781555 0.671875 -0.5781555 2.25q0 1.765625 0.5781555 2.484375q0.59375 0.71875 1.59375 0.71875q0.75 0 1.21875 -0.421875q0.46875 -0.421875 0.671875 -1.453125l2.546875 0.4375q-0.390625 1.765625 -1.53125 2.671875q-1.125 0.890625 -3.03125 0.890625q-2.1562805 0 -3.4531555 -1.359375q-1.28125 -1.359375 -1.28125 -3.78125q0 -2.4375 1.296875 -3.796875q1.296875 -1.359375 3.4844055 -1.359375q1.796875 0 2.859375 0.78125q1.0625 0.765625 1.53125 2.359375zm7.4851074 3.796875l2.609375 0.4375q-0.5 1.4375 -1.59375 2.1875q-1.078125 0.734375 -2.703125 0.734375q-2.5625 0 -3.796875 -1.671875q-0.96875 -1.34375 -0.96875 -3.40625q0 -2.4375 1.265625 -3.828125q1.28125 -1.390625 3.25 -1.390625q2.1875 0 3.453125 1.453125q1.28125 1.453125 1.234375 4.453125l-6.53125 0q0.015625 1.15625 0.625 1.8125q0.609375 0.640625 1.5 0.640625q0.609375 0 1.03125 -0.328125q0.421875 -0.34375 0.625 -1.09375zm0.15625 -2.625q-0.03125 -1.140625 -0.59375 -1.71875q-0.546875 -0.59375 -1.34375 -0.59375q-0.859375 0 -1.40625 0.625q-0.5625 0.609375 -0.546875 1.6875l3.890625 0zm3.6100464 2.953125l2.609375 -0.390625q0.171875 0.75 0.671875 1.15625q0.515625 0.390625 1.4375 0.390625q1.0 0 1.515625 -0.375q0.34375 -0.265625 0.34375 -0.703125q0 -0.296875 -0.1875 -0.484375q-0.1875 -0.1875 -0.875 -0.34375q-3.140625 -0.703125 -4.0 -1.265625q-1.15625 -0.796875 -1.15625 -2.21875q0 -1.28125 1.0 -2.15625q1.015625 -0.875 3.140625 -0.875q2.03125 0 3.0 0.65625q0.984375 0.65625 1.359375 1.953125l-2.453125 0.453125q-0.15625 -0.578125 -0.609375 -0.875q-0.4375 -0.3125 -1.25 -0.3125q-1.03125 0 -1.46875 0.296875q-0.296875 0.203125 -0.296875 0.515625q0 0.28125 0.25 0.484375q0.359375 0.25 2.4375 0.734375q2.078125 0.46875 2.90625 1.15625q0.828125 0.6875 0.828125 1.9375q0 1.359375 -1.140625 2.328125q-1.125 0.96875 -3.34375 0.96875q-2.015625 0 -3.1875 -0.8125q-1.171875 -0.8125 -1.53125 -2.21875zm10.375732 0l2.609375 -0.390625q0.171875 0.75 0.671875 1.15625q0.515625 0.390625 1.4375 0.390625q1.0 0 1.515625 -0.375q0.34375 -0.265625 0.34375 -0.703125q0 -0.296875 -0.1875 -0.484375q-0.1875 -0.1875 -0.875 -0.34375q-3.140625 -0.703125 -4.0 -1.265625q-1.15625 -0.796875 -1.15625 -2.21875q0 -1.28125 1.0 -2.15625q1.015625 -0.875 3.140625 -0.875q2.03125 0 3.0 0.65625q0.984375 0.65625 1.359375 1.953125l-2.453125 0.453125q-0.15625 -0.578125 -0.609375 -0.875q-0.4375 -0.3125 -1.25 -0.3125q-1.03125 0 -1.46875 0.296875q-0.296875 0.203125 -0.296875 0.515625q0 0.28125 0.25 0.484375q0.359375 0.25 2.4375 0.734375q2.078125 0.46875 2.90625 1.15625q0.828125 0.6875 0.828125 1.9375q0 1.359375 -1.140625 2.328125q-1.125 0.96875 -3.34375 0.96875q-2.015625 0 -3.1875 -0.8125q-1.171875 -0.8125 -1.53125 -2.21875z" fill-rule="nonzero"></path><path fill="#cfe2f3" d="m783.5617 141.7874l66.74011 0l0 37.35434l-66.74011 0z" fill-rule="evenodd"></path><path stroke="#000000" stroke-width="1.0" stroke-linejoin="round" stroke-linecap="butt" d="m783.5617 141.7874l66.74011 0l0 37.35434l-66.74011 0z" fill-rule="evenodd"></path><path fill="#000000" fill-opacity="0.0" d="m816.2306 159.96889l-32.661438 -18.173218" fill-rule="evenodd"></path><path stroke="#000000" stroke-width="1.0" stroke-linejoin="round" stroke-linecap="butt" d="m816.2306 159.96889l-32.661438 -18.173218" fill-rule="evenodd"></path><path fill="#000000" fill-opacity="0.0" d="m816.03937 160.2126l34.740173 -18.425201" fill-rule="evenodd"></path><path stroke="#000000" stroke-width="1.0" stroke-linejoin="round" stroke-linecap="butt" d="m816.03937 160.2126l34.740173 -18.425201" fill-rule="evenodd"></path><path fill="#cfe2f3" d="m78.44882 141.94489l66.74016 0l0 37.354324l-66.74016 0z" fill-rule="evenodd"></path><path stroke="#000000" stroke-width="1.0" stroke-linejoin="round" stroke-linecap="butt" d="m78.44882 141.94489l66.74016 0l0 37.354324l-66.74016 0z" fill-rule="evenodd"></path><path fill="#000000" fill-opacity="0.0" d="m111.11773 160.12637l-32.661415 -18.173233" fill-rule="evenodd"></path><path stroke="#000000" stroke-width="1.0" stroke-linejoin="round" stroke-linecap="butt" d="m111.11773 160.12637l-32.661415 -18.173233" fill-rule="evenodd"></path><path fill="#000000" fill-opacity="0.0" d="m110.926506 160.37007l34.740166 -18.425186" fill-rule="evenodd"></path><path stroke="#000000" stroke-width="1.0" stroke-linejoin="round" stroke-linecap="butt" d="m110.926506 160.37007l34.740166 -18.425186" fill-rule="evenodd"></path></g></svg>

